M48
; DRILL file {KiCad (5.1.9)-1} date 07/20/21 08:15:34
; FORMAT={-:-/ absolute / metric / decimal}
; #@! TF.CreationDate,2021-07-20T08:15:34+01:00
; #@! TF.GenerationSoftware,Kicad,Pcbnew,(5.1.9)-1
; #@! TF.FileFunction,Plated,1,2,PTH
FMAT,2
METRIC
T1C0.800
T2C1.000
%
G90
G05
T1
X88.209Y-81.283
X88.209Y-96.523
X90.749Y-81.283
X90.749Y-96.523
X93.289Y-63.503
X93.289Y-66.043
X93.289Y-68.583
X93.289Y-71.123
X93.289Y-73.663
X93.289Y-76.203
X93.289Y-78.743
X93.289Y-81.283
X93.289Y-83.823
X93.289Y-86.363
X93.289Y-88.903
X93.289Y-91.443
X93.289Y-93.983
X93.289Y-96.523
X98.369Y-68.593
X98.369Y-71.133
X98.369Y-73.673
X98.369Y-76.213
X98.369Y-78.753
X98.369Y-81.293
X98.369Y-83.833
X98.369Y-86.373
X98.369Y-88.913
X98.369Y-91.453
X98.369Y-93.993
X98.369Y-96.533
X108.529Y-63.503
X108.529Y-66.043
X108.529Y-68.583
X108.529Y-71.123
X108.529Y-73.663
X108.529Y-76.203
X108.529Y-78.743
X108.529Y-81.283
X108.529Y-83.823
X108.529Y-86.363
X108.529Y-88.903
X108.529Y-91.443
X108.529Y-93.983
X108.529Y-96.523
X113.609Y-78.753
X116.149Y-66.043
X116.149Y-68.583
X116.149Y-76.203
X116.149Y-83.823
X116.149Y-86.363
X116.149Y-93.983
X118.689Y-68.583
X118.689Y-76.203
X118.689Y-86.363
X118.689Y-93.983
X121.149Y-66.043
X121.149Y-83.823
X121.229Y-68.583
X121.229Y-76.203
X121.229Y-86.363
X121.229Y-93.983
X123.769Y-68.583
X123.769Y-76.203
X123.769Y-86.363
X123.769Y-93.983
X126.309Y-68.583
X126.309Y-76.203
X126.309Y-86.363
X126.309Y-93.983
X128.849Y-68.583
X128.849Y-76.203
X128.849Y-86.363
X128.849Y-93.983
X131.389Y-68.583
X131.389Y-76.203
X131.389Y-86.363
X131.389Y-93.983
X136.469Y-68.573
X136.469Y-71.113
X136.469Y-73.653
X136.469Y-76.193
X136.469Y-78.733
X136.469Y-81.273
X136.469Y-83.813
X136.469Y-86.353
X136.469Y-88.893
X136.469Y-91.433
X136.469Y-93.973
X136.469Y-96.513
T2
X88.209Y-63.503
X88.209Y-66.043
X88.209Y-68.583
X88.209Y-71.123
T0
M30
