%TF.GenerationSoftware,KiCad,Pcbnew,(5.1.9)-1*%
%TF.CreationDate,2021-07-20T08:15:42+01:00*%
%TF.ProjectId,romboard,726f6d62-6f61-4726-942e-6b696361645f,rev?*%
%TF.SameCoordinates,Original*%
%TF.FileFunction,Copper,L2,Bot*%
%TF.FilePolarity,Positive*%
%FSLAX46Y46*%
G04 Gerber Fmt 4.6, Leading zero omitted, Abs format (unit mm)*
G04 Created by KiCad (PCBNEW (5.1.9)-1) date 2021-07-20 08:15:42*
%MOMM*%
%LPD*%
G01*
G04 APERTURE LIST*
%TA.AperFunction,ComponentPad*%
%ADD10C,1.600000*%
%TD*%
%TA.AperFunction,ComponentPad*%
%ADD11O,1.600000X1.600000*%
%TD*%
%TA.AperFunction,ComponentPad*%
%ADD12R,1.600000X1.600000*%
%TD*%
%TA.AperFunction,ComponentPad*%
%ADD13O,2.000000X1.200000*%
%TD*%
%TA.AperFunction,ComponentPad*%
%ADD14O,1.700000X1.700000*%
%TD*%
%TA.AperFunction,ComponentPad*%
%ADD15R,1.700000X1.700000*%
%TD*%
%TA.AperFunction,Conductor*%
%ADD16C,0.500000*%
%TD*%
%TA.AperFunction,Conductor*%
%ADD17C,0.250000*%
%TD*%
%TA.AperFunction,Conductor*%
%ADD18C,0.254000*%
%TD*%
%TA.AperFunction,Conductor*%
%ADD19C,0.100000*%
%TD*%
G04 APERTURE END LIST*
D10*
%TO.P,C2,2*%
%TO.N,GND*%
X121149120Y-83822540D03*
%TO.P,C2,1*%
%TO.N,VCC*%
X116149120Y-83822540D03*
%TD*%
%TO.P,C1,2*%
%TO.N,GND*%
X121149120Y-66042540D03*
%TO.P,C1,1*%
%TO.N,VCC*%
X116149120Y-66042540D03*
%TD*%
D11*
%TO.P,U5,28*%
%TO.N,VCC*%
X108529120Y-63502540D03*
%TO.P,U5,14*%
%TO.N,GND*%
X93289120Y-96522540D03*
%TO.P,U5,27*%
%TO.N,Net-(J1-Pad2)*%
X108529120Y-66042540D03*
%TO.P,U5,13*%
%TO.N,/D2*%
X93289120Y-93982540D03*
%TO.P,U5,26*%
%TO.N,Net-(U1-Pad4)*%
X108529120Y-68582540D03*
%TO.P,U5,12*%
%TO.N,/D1*%
X93289120Y-91442540D03*
%TO.P,U5,25*%
%TO.N,/A8*%
X108529120Y-71122540D03*
%TO.P,U5,11*%
%TO.N,/D0*%
X93289120Y-88902540D03*
%TO.P,U5,24*%
%TO.N,/A9*%
X108529120Y-73662540D03*
%TO.P,U5,10*%
%TO.N,/A0*%
X93289120Y-86362540D03*
%TO.P,U5,23*%
%TO.N,/A11*%
X108529120Y-76202540D03*
%TO.P,U5,9*%
%TO.N,/A1*%
X93289120Y-83822540D03*
%TO.P,U5,22*%
%TO.N,GND*%
X108529120Y-78742540D03*
%TO.P,U5,8*%
%TO.N,/A2*%
X93289120Y-81282540D03*
%TO.P,U5,21*%
%TO.N,/A10*%
X108529120Y-81282540D03*
%TO.P,U5,7*%
%TO.N,/A3*%
X93289120Y-78742540D03*
%TO.P,U5,20*%
%TO.N,Net-(U2-Pad1)*%
X108529120Y-83822540D03*
%TO.P,U5,6*%
%TO.N,/A4*%
X93289120Y-76202540D03*
%TO.P,U5,19*%
%TO.N,/D7*%
X108529120Y-86362540D03*
%TO.P,U5,5*%
%TO.N,/A5*%
X93289120Y-73662540D03*
%TO.P,U5,18*%
%TO.N,/D6*%
X108529120Y-88902540D03*
%TO.P,U5,4*%
%TO.N,/A6*%
X93289120Y-71122540D03*
%TO.P,U5,17*%
%TO.N,/D5*%
X108529120Y-91442540D03*
%TO.P,U5,3*%
%TO.N,/A7*%
X93289120Y-68582540D03*
%TO.P,U5,16*%
%TO.N,/D4*%
X108529120Y-93982540D03*
%TO.P,U5,2*%
%TO.N,/A12*%
X93289120Y-66042540D03*
%TO.P,U5,15*%
%TO.N,/D3*%
X108529120Y-96522540D03*
D12*
%TO.P,U5,1*%
%TO.N,Net-(J2-Pad2)*%
X93289120Y-63502540D03*
%TD*%
D13*
%TO.P,U4,12*%
%TO.N,GND*%
X98369120Y-96532540D03*
%TO.P,U4,11*%
%TO.N,/D2*%
X98369120Y-93992540D03*
%TO.P,U4,10*%
%TO.N,/D1*%
X98369120Y-91452540D03*
%TO.P,U4,9*%
%TO.N,/D0*%
X98369120Y-88912540D03*
%TO.P,U4,8*%
%TO.N,/A0*%
X98369120Y-86372540D03*
%TO.P,U4,7*%
%TO.N,/A1*%
X98369120Y-83832540D03*
%TO.P,U4,6*%
%TO.N,/A2*%
X98369120Y-81292540D03*
%TO.P,U4,5*%
%TO.N,/A3*%
X98369120Y-78752540D03*
%TO.P,U4,20*%
%TO.N,Net-(U1-Pad1)*%
X113609120Y-78752540D03*
%TO.P,U4,4*%
%TO.N,/A4*%
X98369120Y-76212540D03*
%TO.P,U4,3*%
%TO.N,/A5*%
X98369120Y-73672540D03*
%TO.P,U4,2*%
%TO.N,/A6*%
X98369120Y-71132540D03*
%TO.P,U4,1*%
%TO.N,/A7*%
X98369120Y-68592540D03*
%TD*%
%TO.P,U3,13*%
%TO.N,/D3*%
X136469120Y-96512540D03*
%TO.P,U3,14*%
%TO.N,/D4*%
X136469120Y-93972540D03*
%TO.P,U3,15*%
%TO.N,/D5*%
X136469120Y-91432540D03*
%TO.P,U3,16*%
%TO.N,/D6*%
X136469120Y-88892540D03*
%TO.P,U3,17*%
%TO.N,/D7*%
X136469120Y-86352540D03*
%TO.P,U3,18*%
%TO.N,/A11*%
X136469120Y-83812540D03*
%TO.P,U3,19*%
%TO.N,/A10*%
X136469120Y-81272540D03*
%TO.P,U3,20*%
%TO.N,Net-(U1-Pad3)*%
X136469120Y-78732540D03*
%TO.P,U3,21*%
%TO.N,/A12*%
X136469120Y-76192540D03*
%TO.P,U3,22*%
%TO.N,/A9*%
X136469120Y-73652540D03*
%TO.P,U3,23*%
%TO.N,/A8*%
X136469120Y-71112540D03*
%TO.P,U3,24*%
%TO.N,VCC*%
X136469120Y-68572540D03*
%TD*%
D11*
%TO.P,U2,14*%
%TO.N,VCC*%
X116149120Y-86362540D03*
%TO.P,U2,7*%
%TO.N,GND*%
X131389120Y-93982540D03*
%TO.P,U2,13*%
%TO.N,Net-(U2-Pad13)*%
X118689120Y-86362540D03*
%TO.P,U2,6*%
%TO.N,GND*%
X128849120Y-93982540D03*
%TO.P,U2,12*%
X121229120Y-86362540D03*
%TO.P,U2,5*%
X126309120Y-93982540D03*
%TO.P,U2,11*%
X123769120Y-86362540D03*
%TO.P,U2,4*%
%TO.N,Net-(U2-Pad4)*%
X123769120Y-93982540D03*
%TO.P,U2,10*%
%TO.N,Net-(U2-Pad10)*%
X126309120Y-86362540D03*
%TO.P,U2,3*%
%TO.N,Net-(U1-Pad4)*%
X121229120Y-93982540D03*
%TO.P,U2,9*%
%TO.N,GND*%
X128849120Y-86362540D03*
%TO.P,U2,2*%
%TO.N,Net-(U1-Pad2)*%
X118689120Y-93982540D03*
%TO.P,U2,8*%
%TO.N,GND*%
X131389120Y-86362540D03*
D12*
%TO.P,U2,1*%
%TO.N,Net-(U2-Pad1)*%
X116149120Y-93982540D03*
%TD*%
D11*
%TO.P,U1,14*%
%TO.N,VCC*%
X116149120Y-68582540D03*
%TO.P,U1,7*%
%TO.N,GND*%
X131389120Y-76202540D03*
%TO.P,U1,13*%
X118689120Y-68582540D03*
%TO.P,U1,6*%
%TO.N,Net-(U1-Pad6)*%
X128849120Y-76202540D03*
%TO.P,U1,12*%
%TO.N,Net-(U1-Pad12)*%
X121229120Y-68582540D03*
%TO.P,U1,5*%
%TO.N,GND*%
X126309120Y-76202540D03*
%TO.P,U1,11*%
X123769120Y-68582540D03*
%TO.P,U1,4*%
%TO.N,Net-(U1-Pad4)*%
X123769120Y-76202540D03*
%TO.P,U1,10*%
%TO.N,Net-(U1-Pad10)*%
X126309120Y-68582540D03*
%TO.P,U1,3*%
%TO.N,Net-(U1-Pad3)*%
X121229120Y-76202540D03*
%TO.P,U1,9*%
%TO.N,GND*%
X128849120Y-68582540D03*
%TO.P,U1,2*%
%TO.N,Net-(U1-Pad2)*%
X118689120Y-76202540D03*
%TO.P,U1,8*%
%TO.N,Net-(U1-Pad8)*%
X131389120Y-68582540D03*
D12*
%TO.P,U1,1*%
%TO.N,Net-(U1-Pad1)*%
X116149120Y-76202540D03*
%TD*%
D11*
%TO.P,R2,2*%
%TO.N,Net-(J2-Pad2)*%
X88209120Y-81282540D03*
D10*
%TO.P,R2,1*%
%TO.N,GND*%
X88209120Y-96522540D03*
%TD*%
D11*
%TO.P,R1,2*%
%TO.N,Net-(J1-Pad2)*%
X90749120Y-81282540D03*
D10*
%TO.P,R1,1*%
%TO.N,GND*%
X90749120Y-96522540D03*
%TD*%
D14*
%TO.P,A15,2*%
%TO.N,Net-(J2-Pad2)*%
X88209120Y-63502540D03*
D15*
%TO.P,A15,1*%
%TO.N,VCC*%
X88209120Y-66042540D03*
%TD*%
D14*
%TO.P,A14,2*%
%TO.N,Net-(J1-Pad2)*%
X88209120Y-68582540D03*
D15*
%TO.P,A14,1*%
%TO.N,VCC*%
X88209120Y-71122540D03*
%TD*%
D16*
%TO.N,VCC*%
X117439119Y-82532541D02*
X116149120Y-83822540D01*
X117439119Y-69872539D02*
X117439119Y-82532541D01*
X116149120Y-68582540D02*
X117439119Y-69872539D01*
D17*
%TO.N,Net-(U1-Pad4)*%
X124894121Y-77327541D02*
X123769120Y-76202540D01*
X124894121Y-90317539D02*
X124894121Y-77327541D01*
X121229120Y-93982540D02*
X124894121Y-90317539D01*
%TO.N,Net-(U1-Pad2)*%
X119814121Y-92857539D02*
X118689120Y-93982540D01*
X119814121Y-77327541D02*
X119814121Y-92857539D01*
X118689120Y-76202540D02*
X119814121Y-77327541D01*
%TO.N,Net-(U2-Pad1)*%
X108529120Y-83822540D02*
X110561120Y-83822540D01*
X110561120Y-83822540D02*
X113863120Y-87124540D01*
X113863120Y-91696540D02*
X116149120Y-93982540D01*
X113863120Y-87124540D02*
X113863120Y-91696540D01*
%TD*%
D18*
%TO.N,GND*%
X140864121Y-98377540D02*
X83814120Y-98377540D01*
X83814120Y-97515242D01*
X87396023Y-97515242D01*
X87467606Y-97759211D01*
X87723116Y-97880111D01*
X87997304Y-97948840D01*
X88279632Y-97962757D01*
X88559250Y-97921327D01*
X88825412Y-97826143D01*
X88950634Y-97759211D01*
X89022217Y-97515242D01*
X89936023Y-97515242D01*
X90007606Y-97759211D01*
X90263116Y-97880111D01*
X90537304Y-97948840D01*
X90819632Y-97962757D01*
X91099250Y-97921327D01*
X91365412Y-97826143D01*
X91490634Y-97759211D01*
X91562217Y-97515242D01*
X90749120Y-96702145D01*
X89936023Y-97515242D01*
X89022217Y-97515242D01*
X88209120Y-96702145D01*
X87396023Y-97515242D01*
X83814120Y-97515242D01*
X83814120Y-96593052D01*
X86768903Y-96593052D01*
X86810333Y-96872670D01*
X86905517Y-97138832D01*
X86972449Y-97264054D01*
X87216418Y-97335637D01*
X88029515Y-96522540D01*
X88388725Y-96522540D01*
X89201822Y-97335637D01*
X89445791Y-97264054D01*
X89477091Y-97197904D01*
X89512449Y-97264054D01*
X89756418Y-97335637D01*
X90569515Y-96522540D01*
X89756418Y-95709443D01*
X89512449Y-95781026D01*
X89481149Y-95847176D01*
X89445791Y-95781026D01*
X89201822Y-95709443D01*
X88388725Y-96522540D01*
X88029515Y-96522540D01*
X87216418Y-95709443D01*
X86972449Y-95781026D01*
X86851549Y-96036536D01*
X86782820Y-96310724D01*
X86768903Y-96593052D01*
X83814120Y-96593052D01*
X83814120Y-95529838D01*
X87396023Y-95529838D01*
X88209120Y-96342935D01*
X89022217Y-95529838D01*
X89936023Y-95529838D01*
X90749120Y-96342935D01*
X91562217Y-95529838D01*
X91490634Y-95285869D01*
X91235124Y-95164969D01*
X90960936Y-95096240D01*
X90678608Y-95082323D01*
X90398990Y-95123753D01*
X90132828Y-95218937D01*
X90007606Y-95285869D01*
X89936023Y-95529838D01*
X89022217Y-95529838D01*
X88950634Y-95285869D01*
X88695124Y-95164969D01*
X88420936Y-95096240D01*
X88138608Y-95082323D01*
X87858990Y-95123753D01*
X87592828Y-95218937D01*
X87467606Y-95285869D01*
X87396023Y-95529838D01*
X83814120Y-95529838D01*
X83814120Y-81141205D01*
X86774120Y-81141205D01*
X86774120Y-81423875D01*
X86829267Y-81701114D01*
X86937440Y-81962267D01*
X87094483Y-82197299D01*
X87294361Y-82397177D01*
X87529393Y-82554220D01*
X87790546Y-82662393D01*
X88067785Y-82717540D01*
X88350455Y-82717540D01*
X88627694Y-82662393D01*
X88888847Y-82554220D01*
X89123879Y-82397177D01*
X89323757Y-82197299D01*
X89479120Y-81964781D01*
X89634483Y-82197299D01*
X89834361Y-82397177D01*
X90069393Y-82554220D01*
X90330546Y-82662393D01*
X90607785Y-82717540D01*
X90890455Y-82717540D01*
X91167694Y-82662393D01*
X91428847Y-82554220D01*
X91663879Y-82397177D01*
X91863757Y-82197299D01*
X92019120Y-81964781D01*
X92174483Y-82197299D01*
X92374361Y-82397177D01*
X92606879Y-82552540D01*
X92374361Y-82707903D01*
X92174483Y-82907781D01*
X92017440Y-83142813D01*
X91909267Y-83403966D01*
X91854120Y-83681205D01*
X91854120Y-83963875D01*
X91909267Y-84241114D01*
X92017440Y-84502267D01*
X92174483Y-84737299D01*
X92374361Y-84937177D01*
X92606879Y-85092540D01*
X92374361Y-85247903D01*
X92174483Y-85447781D01*
X92017440Y-85682813D01*
X91909267Y-85943966D01*
X91854120Y-86221205D01*
X91854120Y-86503875D01*
X91909267Y-86781114D01*
X92017440Y-87042267D01*
X92174483Y-87277299D01*
X92374361Y-87477177D01*
X92606879Y-87632540D01*
X92374361Y-87787903D01*
X92174483Y-87987781D01*
X92017440Y-88222813D01*
X91909267Y-88483966D01*
X91854120Y-88761205D01*
X91854120Y-89043875D01*
X91909267Y-89321114D01*
X92017440Y-89582267D01*
X92174483Y-89817299D01*
X92374361Y-90017177D01*
X92606879Y-90172540D01*
X92374361Y-90327903D01*
X92174483Y-90527781D01*
X92017440Y-90762813D01*
X91909267Y-91023966D01*
X91854120Y-91301205D01*
X91854120Y-91583875D01*
X91909267Y-91861114D01*
X92017440Y-92122267D01*
X92174483Y-92357299D01*
X92374361Y-92557177D01*
X92606879Y-92712540D01*
X92374361Y-92867903D01*
X92174483Y-93067781D01*
X92017440Y-93302813D01*
X91909267Y-93563966D01*
X91854120Y-93841205D01*
X91854120Y-94123875D01*
X91909267Y-94401114D01*
X92017440Y-94662267D01*
X92174483Y-94897299D01*
X92374361Y-95097177D01*
X92609393Y-95254220D01*
X92619985Y-95258607D01*
X92433989Y-95370155D01*
X92225601Y-95559126D01*
X92058083Y-95785120D01*
X92025184Y-95854726D01*
X91985791Y-95781026D01*
X91741822Y-95709443D01*
X90928725Y-96522540D01*
X91741822Y-97335637D01*
X91985791Y-97264054D01*
X92022925Y-97185575D01*
X92058083Y-97259960D01*
X92225601Y-97485954D01*
X92433989Y-97674925D01*
X92675239Y-97819610D01*
X92940080Y-97914449D01*
X93162120Y-97793164D01*
X93162120Y-96649540D01*
X93416120Y-96649540D01*
X93416120Y-97793164D01*
X93638160Y-97914449D01*
X93903001Y-97819610D01*
X94144251Y-97674925D01*
X94352639Y-97485954D01*
X94520157Y-97259960D01*
X94640366Y-97005627D01*
X94681024Y-96871579D01*
X94669251Y-96850149D01*
X96775658Y-96850149D01*
X96779529Y-96887822D01*
X96871699Y-97113073D01*
X97006042Y-97316014D01*
X97177395Y-97488847D01*
X97379174Y-97624930D01*
X97603624Y-97719033D01*
X97842120Y-97767540D01*
X98242120Y-97767540D01*
X98242120Y-96659540D01*
X98496120Y-96659540D01*
X98496120Y-97767540D01*
X98896120Y-97767540D01*
X99134616Y-97719033D01*
X99359066Y-97624930D01*
X99560845Y-97488847D01*
X99732198Y-97316014D01*
X99866541Y-97113073D01*
X99958711Y-96887822D01*
X99962582Y-96850149D01*
X99837851Y-96659540D01*
X98496120Y-96659540D01*
X98242120Y-96659540D01*
X96900389Y-96659540D01*
X96775658Y-96850149D01*
X94669251Y-96850149D01*
X94559035Y-96649540D01*
X93416120Y-96649540D01*
X93162120Y-96649540D01*
X93142120Y-96649540D01*
X93142120Y-96395540D01*
X93162120Y-96395540D01*
X93162120Y-96375540D01*
X93416120Y-96375540D01*
X93416120Y-96395540D01*
X94559035Y-96395540D01*
X94658262Y-96214931D01*
X96775658Y-96214931D01*
X96900389Y-96405540D01*
X98242120Y-96405540D01*
X98242120Y-95297540D01*
X98496120Y-95297540D01*
X98496120Y-96405540D01*
X99837851Y-96405540D01*
X99962582Y-96214931D01*
X99958711Y-96177258D01*
X99866541Y-95952007D01*
X99732198Y-95749066D01*
X99560845Y-95576233D01*
X99359066Y-95440150D01*
X99134616Y-95346047D01*
X98896120Y-95297540D01*
X98496120Y-95297540D01*
X98242120Y-95297540D01*
X97842120Y-95297540D01*
X97603624Y-95346047D01*
X97379174Y-95440150D01*
X97177395Y-95576233D01*
X97006042Y-95749066D01*
X96871699Y-95952007D01*
X96779529Y-96177258D01*
X96775658Y-96214931D01*
X94658262Y-96214931D01*
X94681024Y-96173501D01*
X94640366Y-96039453D01*
X94520157Y-95785120D01*
X94352639Y-95559126D01*
X94144251Y-95370155D01*
X93958255Y-95258607D01*
X93968847Y-95254220D01*
X94203879Y-95097177D01*
X94403757Y-94897299D01*
X94560800Y-94662267D01*
X94668973Y-94401114D01*
X94724120Y-94123875D01*
X94724120Y-93992540D01*
X96728145Y-93992540D01*
X96751990Y-94234642D01*
X96822609Y-94467441D01*
X96937287Y-94681989D01*
X97091618Y-94870042D01*
X97279671Y-95024373D01*
X97494219Y-95139051D01*
X97727018Y-95209670D01*
X97908455Y-95227540D01*
X98829785Y-95227540D01*
X99011222Y-95209670D01*
X99244021Y-95139051D01*
X99458569Y-95024373D01*
X99646622Y-94870042D01*
X99800953Y-94681989D01*
X99915631Y-94467441D01*
X99986250Y-94234642D01*
X100010095Y-93992540D01*
X99986250Y-93750438D01*
X99915631Y-93517639D01*
X99800953Y-93303091D01*
X99646622Y-93115038D01*
X99458569Y-92960707D01*
X99244021Y-92846029D01*
X99011222Y-92775410D01*
X98829785Y-92757540D01*
X97908455Y-92757540D01*
X97727018Y-92775410D01*
X97494219Y-92846029D01*
X97279671Y-92960707D01*
X97091618Y-93115038D01*
X96937287Y-93303091D01*
X96822609Y-93517639D01*
X96751990Y-93750438D01*
X96728145Y-93992540D01*
X94724120Y-93992540D01*
X94724120Y-93841205D01*
X94668973Y-93563966D01*
X94560800Y-93302813D01*
X94403757Y-93067781D01*
X94203879Y-92867903D01*
X93971361Y-92712540D01*
X94203879Y-92557177D01*
X94403757Y-92357299D01*
X94560800Y-92122267D01*
X94668973Y-91861114D01*
X94724120Y-91583875D01*
X94724120Y-91452540D01*
X96728145Y-91452540D01*
X96751990Y-91694642D01*
X96822609Y-91927441D01*
X96937287Y-92141989D01*
X97091618Y-92330042D01*
X97279671Y-92484373D01*
X97494219Y-92599051D01*
X97727018Y-92669670D01*
X97908455Y-92687540D01*
X98829785Y-92687540D01*
X99011222Y-92669670D01*
X99244021Y-92599051D01*
X99458569Y-92484373D01*
X99646622Y-92330042D01*
X99800953Y-92141989D01*
X99915631Y-91927441D01*
X99986250Y-91694642D01*
X100010095Y-91452540D01*
X99986250Y-91210438D01*
X99915631Y-90977639D01*
X99800953Y-90763091D01*
X99646622Y-90575038D01*
X99458569Y-90420707D01*
X99244021Y-90306029D01*
X99011222Y-90235410D01*
X98829785Y-90217540D01*
X97908455Y-90217540D01*
X97727018Y-90235410D01*
X97494219Y-90306029D01*
X97279671Y-90420707D01*
X97091618Y-90575038D01*
X96937287Y-90763091D01*
X96822609Y-90977639D01*
X96751990Y-91210438D01*
X96728145Y-91452540D01*
X94724120Y-91452540D01*
X94724120Y-91301205D01*
X94668973Y-91023966D01*
X94560800Y-90762813D01*
X94403757Y-90527781D01*
X94203879Y-90327903D01*
X93971361Y-90172540D01*
X94203879Y-90017177D01*
X94403757Y-89817299D01*
X94560800Y-89582267D01*
X94668973Y-89321114D01*
X94724120Y-89043875D01*
X94724120Y-88912540D01*
X96728145Y-88912540D01*
X96751990Y-89154642D01*
X96822609Y-89387441D01*
X96937287Y-89601989D01*
X97091618Y-89790042D01*
X97279671Y-89944373D01*
X97494219Y-90059051D01*
X97727018Y-90129670D01*
X97908455Y-90147540D01*
X98829785Y-90147540D01*
X99011222Y-90129670D01*
X99244021Y-90059051D01*
X99458569Y-89944373D01*
X99646622Y-89790042D01*
X99800953Y-89601989D01*
X99915631Y-89387441D01*
X99986250Y-89154642D01*
X100010095Y-88912540D01*
X99986250Y-88670438D01*
X99915631Y-88437639D01*
X99800953Y-88223091D01*
X99646622Y-88035038D01*
X99458569Y-87880707D01*
X99244021Y-87766029D01*
X99011222Y-87695410D01*
X98829785Y-87677540D01*
X97908455Y-87677540D01*
X97727018Y-87695410D01*
X97494219Y-87766029D01*
X97279671Y-87880707D01*
X97091618Y-88035038D01*
X96937287Y-88223091D01*
X96822609Y-88437639D01*
X96751990Y-88670438D01*
X96728145Y-88912540D01*
X94724120Y-88912540D01*
X94724120Y-88761205D01*
X94668973Y-88483966D01*
X94560800Y-88222813D01*
X94403757Y-87987781D01*
X94203879Y-87787903D01*
X93971361Y-87632540D01*
X94203879Y-87477177D01*
X94403757Y-87277299D01*
X94560800Y-87042267D01*
X94668973Y-86781114D01*
X94724120Y-86503875D01*
X94724120Y-86372540D01*
X96728145Y-86372540D01*
X96751990Y-86614642D01*
X96822609Y-86847441D01*
X96937287Y-87061989D01*
X97091618Y-87250042D01*
X97279671Y-87404373D01*
X97494219Y-87519051D01*
X97727018Y-87589670D01*
X97908455Y-87607540D01*
X98829785Y-87607540D01*
X99011222Y-87589670D01*
X99244021Y-87519051D01*
X99458569Y-87404373D01*
X99646622Y-87250042D01*
X99800953Y-87061989D01*
X99915631Y-86847441D01*
X99986250Y-86614642D01*
X100010095Y-86372540D01*
X99986250Y-86130438D01*
X99915631Y-85897639D01*
X99800953Y-85683091D01*
X99646622Y-85495038D01*
X99458569Y-85340707D01*
X99244021Y-85226029D01*
X99011222Y-85155410D01*
X98829785Y-85137540D01*
X97908455Y-85137540D01*
X97727018Y-85155410D01*
X97494219Y-85226029D01*
X97279671Y-85340707D01*
X97091618Y-85495038D01*
X96937287Y-85683091D01*
X96822609Y-85897639D01*
X96751990Y-86130438D01*
X96728145Y-86372540D01*
X94724120Y-86372540D01*
X94724120Y-86221205D01*
X94668973Y-85943966D01*
X94560800Y-85682813D01*
X94403757Y-85447781D01*
X94203879Y-85247903D01*
X93971361Y-85092540D01*
X94203879Y-84937177D01*
X94403757Y-84737299D01*
X94560800Y-84502267D01*
X94668973Y-84241114D01*
X94724120Y-83963875D01*
X94724120Y-83832540D01*
X96728145Y-83832540D01*
X96751990Y-84074642D01*
X96822609Y-84307441D01*
X96937287Y-84521989D01*
X97091618Y-84710042D01*
X97279671Y-84864373D01*
X97494219Y-84979051D01*
X97727018Y-85049670D01*
X97908455Y-85067540D01*
X98829785Y-85067540D01*
X99011222Y-85049670D01*
X99244021Y-84979051D01*
X99458569Y-84864373D01*
X99646622Y-84710042D01*
X99800953Y-84521989D01*
X99915631Y-84307441D01*
X99986250Y-84074642D01*
X100010095Y-83832540D01*
X99986250Y-83590438D01*
X99915631Y-83357639D01*
X99800953Y-83143091D01*
X99646622Y-82955038D01*
X99458569Y-82800707D01*
X99244021Y-82686029D01*
X99011222Y-82615410D01*
X98829785Y-82597540D01*
X97908455Y-82597540D01*
X97727018Y-82615410D01*
X97494219Y-82686029D01*
X97279671Y-82800707D01*
X97091618Y-82955038D01*
X96937287Y-83143091D01*
X96822609Y-83357639D01*
X96751990Y-83590438D01*
X96728145Y-83832540D01*
X94724120Y-83832540D01*
X94724120Y-83681205D01*
X94668973Y-83403966D01*
X94560800Y-83142813D01*
X94403757Y-82907781D01*
X94203879Y-82707903D01*
X93971361Y-82552540D01*
X94203879Y-82397177D01*
X94403757Y-82197299D01*
X94560800Y-81962267D01*
X94668973Y-81701114D01*
X94724120Y-81423875D01*
X94724120Y-81292540D01*
X96728145Y-81292540D01*
X96751990Y-81534642D01*
X96822609Y-81767441D01*
X96937287Y-81981989D01*
X97091618Y-82170042D01*
X97279671Y-82324373D01*
X97494219Y-82439051D01*
X97727018Y-82509670D01*
X97908455Y-82527540D01*
X98829785Y-82527540D01*
X99011222Y-82509670D01*
X99244021Y-82439051D01*
X99458569Y-82324373D01*
X99646622Y-82170042D01*
X99800953Y-81981989D01*
X99915631Y-81767441D01*
X99986250Y-81534642D01*
X100010095Y-81292540D01*
X99995190Y-81141205D01*
X107094120Y-81141205D01*
X107094120Y-81423875D01*
X107149267Y-81701114D01*
X107257440Y-81962267D01*
X107414483Y-82197299D01*
X107614361Y-82397177D01*
X107846879Y-82552540D01*
X107614361Y-82707903D01*
X107414483Y-82907781D01*
X107257440Y-83142813D01*
X107149267Y-83403966D01*
X107094120Y-83681205D01*
X107094120Y-83963875D01*
X107149267Y-84241114D01*
X107257440Y-84502267D01*
X107414483Y-84737299D01*
X107614361Y-84937177D01*
X107846879Y-85092540D01*
X107614361Y-85247903D01*
X107414483Y-85447781D01*
X107257440Y-85682813D01*
X107149267Y-85943966D01*
X107094120Y-86221205D01*
X107094120Y-86503875D01*
X107149267Y-86781114D01*
X107257440Y-87042267D01*
X107414483Y-87277299D01*
X107614361Y-87477177D01*
X107846879Y-87632540D01*
X107614361Y-87787903D01*
X107414483Y-87987781D01*
X107257440Y-88222813D01*
X107149267Y-88483966D01*
X107094120Y-88761205D01*
X107094120Y-89043875D01*
X107149267Y-89321114D01*
X107257440Y-89582267D01*
X107414483Y-89817299D01*
X107614361Y-90017177D01*
X107846879Y-90172540D01*
X107614361Y-90327903D01*
X107414483Y-90527781D01*
X107257440Y-90762813D01*
X107149267Y-91023966D01*
X107094120Y-91301205D01*
X107094120Y-91583875D01*
X107149267Y-91861114D01*
X107257440Y-92122267D01*
X107414483Y-92357299D01*
X107614361Y-92557177D01*
X107846879Y-92712540D01*
X107614361Y-92867903D01*
X107414483Y-93067781D01*
X107257440Y-93302813D01*
X107149267Y-93563966D01*
X107094120Y-93841205D01*
X107094120Y-94123875D01*
X107149267Y-94401114D01*
X107257440Y-94662267D01*
X107414483Y-94897299D01*
X107614361Y-95097177D01*
X107846879Y-95252540D01*
X107614361Y-95407903D01*
X107414483Y-95607781D01*
X107257440Y-95842813D01*
X107149267Y-96103966D01*
X107094120Y-96381205D01*
X107094120Y-96663875D01*
X107149267Y-96941114D01*
X107257440Y-97202267D01*
X107414483Y-97437299D01*
X107614361Y-97637177D01*
X107849393Y-97794220D01*
X108110546Y-97902393D01*
X108387785Y-97957540D01*
X108670455Y-97957540D01*
X108947694Y-97902393D01*
X109208847Y-97794220D01*
X109443879Y-97637177D01*
X109643757Y-97437299D01*
X109800800Y-97202267D01*
X109908973Y-96941114D01*
X109964120Y-96663875D01*
X109964120Y-96512540D01*
X134828145Y-96512540D01*
X134851990Y-96754642D01*
X134922609Y-96987441D01*
X135037287Y-97201989D01*
X135191618Y-97390042D01*
X135379671Y-97544373D01*
X135594219Y-97659051D01*
X135827018Y-97729670D01*
X136008455Y-97747540D01*
X136929785Y-97747540D01*
X137111222Y-97729670D01*
X137344021Y-97659051D01*
X137558569Y-97544373D01*
X137746622Y-97390042D01*
X137900953Y-97201989D01*
X138015631Y-96987441D01*
X138086250Y-96754642D01*
X138110095Y-96512540D01*
X138086250Y-96270438D01*
X138015631Y-96037639D01*
X137900953Y-95823091D01*
X137746622Y-95635038D01*
X137558569Y-95480707D01*
X137344021Y-95366029D01*
X137111222Y-95295410D01*
X136929785Y-95277540D01*
X136008455Y-95277540D01*
X135827018Y-95295410D01*
X135594219Y-95366029D01*
X135379671Y-95480707D01*
X135191618Y-95635038D01*
X135037287Y-95823091D01*
X134922609Y-96037639D01*
X134851990Y-96270438D01*
X134828145Y-96512540D01*
X109964120Y-96512540D01*
X109964120Y-96381205D01*
X109908973Y-96103966D01*
X109800800Y-95842813D01*
X109643757Y-95607781D01*
X109443879Y-95407903D01*
X109211361Y-95252540D01*
X109443879Y-95097177D01*
X109643757Y-94897299D01*
X109800800Y-94662267D01*
X109908973Y-94401114D01*
X109964120Y-94123875D01*
X109964120Y-93841205D01*
X109908973Y-93563966D01*
X109800800Y-93302813D01*
X109643757Y-93067781D01*
X109443879Y-92867903D01*
X109211361Y-92712540D01*
X109443879Y-92557177D01*
X109643757Y-92357299D01*
X109800800Y-92122267D01*
X109908973Y-91861114D01*
X109964120Y-91583875D01*
X109964120Y-91301205D01*
X109908973Y-91023966D01*
X109800800Y-90762813D01*
X109643757Y-90527781D01*
X109443879Y-90327903D01*
X109211361Y-90172540D01*
X109443879Y-90017177D01*
X109643757Y-89817299D01*
X109800800Y-89582267D01*
X109908973Y-89321114D01*
X109964120Y-89043875D01*
X109964120Y-88761205D01*
X109908973Y-88483966D01*
X109800800Y-88222813D01*
X109643757Y-87987781D01*
X109443879Y-87787903D01*
X109211361Y-87632540D01*
X109443879Y-87477177D01*
X109643757Y-87277299D01*
X109800800Y-87042267D01*
X109908973Y-86781114D01*
X109964120Y-86503875D01*
X109964120Y-86221205D01*
X109908973Y-85943966D01*
X109800800Y-85682813D01*
X109643757Y-85447781D01*
X109443879Y-85247903D01*
X109211361Y-85092540D01*
X109443879Y-84937177D01*
X109643757Y-84737299D01*
X109747163Y-84582540D01*
X110246319Y-84582540D01*
X113103120Y-87439342D01*
X113103121Y-91659208D01*
X113099444Y-91696540D01*
X113103121Y-91733873D01*
X113114118Y-91845526D01*
X113127300Y-91888982D01*
X113157574Y-91988786D01*
X113228146Y-92120816D01*
X113253733Y-92151993D01*
X113323120Y-92236541D01*
X113352118Y-92260339D01*
X114711048Y-93619270D01*
X114711048Y-94782540D01*
X114723308Y-94907022D01*
X114759618Y-95026720D01*
X114818583Y-95137034D01*
X114897935Y-95233725D01*
X114994626Y-95313077D01*
X115104940Y-95372042D01*
X115224638Y-95408352D01*
X115349120Y-95420612D01*
X116949120Y-95420612D01*
X117073602Y-95408352D01*
X117193300Y-95372042D01*
X117303614Y-95313077D01*
X117400305Y-95233725D01*
X117479657Y-95137034D01*
X117538622Y-95026720D01*
X117574932Y-94907022D01*
X117575763Y-94898579D01*
X117774361Y-95097177D01*
X118009393Y-95254220D01*
X118270546Y-95362393D01*
X118547785Y-95417540D01*
X118830455Y-95417540D01*
X119107694Y-95362393D01*
X119368847Y-95254220D01*
X119603879Y-95097177D01*
X119803757Y-94897299D01*
X119959120Y-94664781D01*
X120114483Y-94897299D01*
X120314361Y-95097177D01*
X120549393Y-95254220D01*
X120810546Y-95362393D01*
X121087785Y-95417540D01*
X121370455Y-95417540D01*
X121647694Y-95362393D01*
X121908847Y-95254220D01*
X122143879Y-95097177D01*
X122343757Y-94897299D01*
X122499120Y-94664781D01*
X122654483Y-94897299D01*
X122854361Y-95097177D01*
X123089393Y-95254220D01*
X123350546Y-95362393D01*
X123627785Y-95417540D01*
X123910455Y-95417540D01*
X124187694Y-95362393D01*
X124448847Y-95254220D01*
X124683879Y-95097177D01*
X124883757Y-94897299D01*
X125040800Y-94662267D01*
X125045187Y-94651675D01*
X125156735Y-94837671D01*
X125345706Y-95046059D01*
X125571700Y-95213577D01*
X125826033Y-95333786D01*
X125960081Y-95374444D01*
X126182120Y-95252455D01*
X126182120Y-94109540D01*
X126436120Y-94109540D01*
X126436120Y-95252455D01*
X126658159Y-95374444D01*
X126792207Y-95333786D01*
X127046540Y-95213577D01*
X127272534Y-95046059D01*
X127461505Y-94837671D01*
X127579120Y-94641558D01*
X127696735Y-94837671D01*
X127885706Y-95046059D01*
X128111700Y-95213577D01*
X128366033Y-95333786D01*
X128500081Y-95374444D01*
X128722120Y-95252455D01*
X128722120Y-94109540D01*
X128976120Y-94109540D01*
X128976120Y-95252455D01*
X129198159Y-95374444D01*
X129332207Y-95333786D01*
X129586540Y-95213577D01*
X129812534Y-95046059D01*
X130001505Y-94837671D01*
X130119120Y-94641558D01*
X130236735Y-94837671D01*
X130425706Y-95046059D01*
X130651700Y-95213577D01*
X130906033Y-95333786D01*
X131040081Y-95374444D01*
X131262120Y-95252455D01*
X131262120Y-94109540D01*
X131516120Y-94109540D01*
X131516120Y-95252455D01*
X131738159Y-95374444D01*
X131872207Y-95333786D01*
X132126540Y-95213577D01*
X132352534Y-95046059D01*
X132541505Y-94837671D01*
X132686190Y-94596421D01*
X132781029Y-94331580D01*
X132659744Y-94109540D01*
X131516120Y-94109540D01*
X131262120Y-94109540D01*
X128976120Y-94109540D01*
X128722120Y-94109540D01*
X126436120Y-94109540D01*
X126182120Y-94109540D01*
X126162120Y-94109540D01*
X126162120Y-93972540D01*
X134828145Y-93972540D01*
X134851990Y-94214642D01*
X134922609Y-94447441D01*
X135037287Y-94661989D01*
X135191618Y-94850042D01*
X135379671Y-95004373D01*
X135594219Y-95119051D01*
X135827018Y-95189670D01*
X136008455Y-95207540D01*
X136929785Y-95207540D01*
X137111222Y-95189670D01*
X137344021Y-95119051D01*
X137558569Y-95004373D01*
X137746622Y-94850042D01*
X137900953Y-94661989D01*
X138015631Y-94447441D01*
X138086250Y-94214642D01*
X138110095Y-93972540D01*
X138086250Y-93730438D01*
X138015631Y-93497639D01*
X137900953Y-93283091D01*
X137746622Y-93095038D01*
X137558569Y-92940707D01*
X137344021Y-92826029D01*
X137111222Y-92755410D01*
X136929785Y-92737540D01*
X136008455Y-92737540D01*
X135827018Y-92755410D01*
X135594219Y-92826029D01*
X135379671Y-92940707D01*
X135191618Y-93095038D01*
X135037287Y-93283091D01*
X134922609Y-93497639D01*
X134851990Y-93730438D01*
X134828145Y-93972540D01*
X126162120Y-93972540D01*
X126162120Y-93855540D01*
X126182120Y-93855540D01*
X126182120Y-92712625D01*
X126436120Y-92712625D01*
X126436120Y-93855540D01*
X128722120Y-93855540D01*
X128722120Y-92712625D01*
X128976120Y-92712625D01*
X128976120Y-93855540D01*
X131262120Y-93855540D01*
X131262120Y-92712625D01*
X131516120Y-92712625D01*
X131516120Y-93855540D01*
X132659744Y-93855540D01*
X132781029Y-93633500D01*
X132686190Y-93368659D01*
X132541505Y-93127409D01*
X132352534Y-92919021D01*
X132126540Y-92751503D01*
X131872207Y-92631294D01*
X131738159Y-92590636D01*
X131516120Y-92712625D01*
X131262120Y-92712625D01*
X131040081Y-92590636D01*
X130906033Y-92631294D01*
X130651700Y-92751503D01*
X130425706Y-92919021D01*
X130236735Y-93127409D01*
X130119120Y-93323522D01*
X130001505Y-93127409D01*
X129812534Y-92919021D01*
X129586540Y-92751503D01*
X129332207Y-92631294D01*
X129198159Y-92590636D01*
X128976120Y-92712625D01*
X128722120Y-92712625D01*
X128500081Y-92590636D01*
X128366033Y-92631294D01*
X128111700Y-92751503D01*
X127885706Y-92919021D01*
X127696735Y-93127409D01*
X127579120Y-93323522D01*
X127461505Y-93127409D01*
X127272534Y-92919021D01*
X127046540Y-92751503D01*
X126792207Y-92631294D01*
X126658159Y-92590636D01*
X126436120Y-92712625D01*
X126182120Y-92712625D01*
X125960081Y-92590636D01*
X125826033Y-92631294D01*
X125571700Y-92751503D01*
X125345706Y-92919021D01*
X125156735Y-93127409D01*
X125045187Y-93313405D01*
X125040800Y-93302813D01*
X124883757Y-93067781D01*
X124683879Y-92867903D01*
X124448847Y-92710860D01*
X124187694Y-92602687D01*
X123910455Y-92547540D01*
X123738922Y-92547540D01*
X124853922Y-91432540D01*
X134828145Y-91432540D01*
X134851990Y-91674642D01*
X134922609Y-91907441D01*
X135037287Y-92121989D01*
X135191618Y-92310042D01*
X135379671Y-92464373D01*
X135594219Y-92579051D01*
X135827018Y-92649670D01*
X136008455Y-92667540D01*
X136929785Y-92667540D01*
X137111222Y-92649670D01*
X137344021Y-92579051D01*
X137558569Y-92464373D01*
X137746622Y-92310042D01*
X137900953Y-92121989D01*
X138015631Y-91907441D01*
X138086250Y-91674642D01*
X138110095Y-91432540D01*
X138086250Y-91190438D01*
X138015631Y-90957639D01*
X137900953Y-90743091D01*
X137746622Y-90555038D01*
X137558569Y-90400707D01*
X137344021Y-90286029D01*
X137111222Y-90215410D01*
X136929785Y-90197540D01*
X136008455Y-90197540D01*
X135827018Y-90215410D01*
X135594219Y-90286029D01*
X135379671Y-90400707D01*
X135191618Y-90555038D01*
X135037287Y-90743091D01*
X134922609Y-90957639D01*
X134851990Y-91190438D01*
X134828145Y-91432540D01*
X124853922Y-91432540D01*
X125405125Y-90881337D01*
X125434122Y-90857540D01*
X125460453Y-90825456D01*
X125529095Y-90741816D01*
X125599667Y-90609786D01*
X125599667Y-90609785D01*
X125643124Y-90466525D01*
X125654121Y-90354872D01*
X125654121Y-90354863D01*
X125657797Y-90317540D01*
X125654121Y-90280217D01*
X125654121Y-88892540D01*
X134828145Y-88892540D01*
X134851990Y-89134642D01*
X134922609Y-89367441D01*
X135037287Y-89581989D01*
X135191618Y-89770042D01*
X135379671Y-89924373D01*
X135594219Y-90039051D01*
X135827018Y-90109670D01*
X136008455Y-90127540D01*
X136929785Y-90127540D01*
X137111222Y-90109670D01*
X137344021Y-90039051D01*
X137558569Y-89924373D01*
X137746622Y-89770042D01*
X137900953Y-89581989D01*
X138015631Y-89367441D01*
X138086250Y-89134642D01*
X138110095Y-88892540D01*
X138086250Y-88650438D01*
X138015631Y-88417639D01*
X137900953Y-88203091D01*
X137746622Y-88015038D01*
X137558569Y-87860707D01*
X137344021Y-87746029D01*
X137111222Y-87675410D01*
X136929785Y-87657540D01*
X136008455Y-87657540D01*
X135827018Y-87675410D01*
X135594219Y-87746029D01*
X135379671Y-87860707D01*
X135191618Y-88015038D01*
X135037287Y-88203091D01*
X134922609Y-88417639D01*
X134851990Y-88650438D01*
X134828145Y-88892540D01*
X125654121Y-88892540D01*
X125654121Y-87644463D01*
X125890546Y-87742393D01*
X126167785Y-87797540D01*
X126450455Y-87797540D01*
X126727694Y-87742393D01*
X126988847Y-87634220D01*
X127223879Y-87477177D01*
X127423757Y-87277299D01*
X127580800Y-87042267D01*
X127585187Y-87031675D01*
X127696735Y-87217671D01*
X127885706Y-87426059D01*
X128111700Y-87593577D01*
X128366033Y-87713786D01*
X128500081Y-87754444D01*
X128722120Y-87632455D01*
X128722120Y-86489540D01*
X128976120Y-86489540D01*
X128976120Y-87632455D01*
X129198159Y-87754444D01*
X129332207Y-87713786D01*
X129586540Y-87593577D01*
X129812534Y-87426059D01*
X130001505Y-87217671D01*
X130119120Y-87021558D01*
X130236735Y-87217671D01*
X130425706Y-87426059D01*
X130651700Y-87593577D01*
X130906033Y-87713786D01*
X131040081Y-87754444D01*
X131262120Y-87632455D01*
X131262120Y-86489540D01*
X131516120Y-86489540D01*
X131516120Y-87632455D01*
X131738159Y-87754444D01*
X131872207Y-87713786D01*
X132126540Y-87593577D01*
X132352534Y-87426059D01*
X132541505Y-87217671D01*
X132686190Y-86976421D01*
X132781029Y-86711580D01*
X132659744Y-86489540D01*
X131516120Y-86489540D01*
X131262120Y-86489540D01*
X128976120Y-86489540D01*
X128722120Y-86489540D01*
X128702120Y-86489540D01*
X128702120Y-86352540D01*
X134828145Y-86352540D01*
X134851990Y-86594642D01*
X134922609Y-86827441D01*
X135037287Y-87041989D01*
X135191618Y-87230042D01*
X135379671Y-87384373D01*
X135594219Y-87499051D01*
X135827018Y-87569670D01*
X136008455Y-87587540D01*
X136929785Y-87587540D01*
X137111222Y-87569670D01*
X137344021Y-87499051D01*
X137558569Y-87384373D01*
X137746622Y-87230042D01*
X137900953Y-87041989D01*
X138015631Y-86827441D01*
X138086250Y-86594642D01*
X138110095Y-86352540D01*
X138086250Y-86110438D01*
X138015631Y-85877639D01*
X137900953Y-85663091D01*
X137746622Y-85475038D01*
X137558569Y-85320707D01*
X137344021Y-85206029D01*
X137111222Y-85135410D01*
X136929785Y-85117540D01*
X136008455Y-85117540D01*
X135827018Y-85135410D01*
X135594219Y-85206029D01*
X135379671Y-85320707D01*
X135191618Y-85475038D01*
X135037287Y-85663091D01*
X134922609Y-85877639D01*
X134851990Y-86110438D01*
X134828145Y-86352540D01*
X128702120Y-86352540D01*
X128702120Y-86235540D01*
X128722120Y-86235540D01*
X128722120Y-85092625D01*
X128976120Y-85092625D01*
X128976120Y-86235540D01*
X131262120Y-86235540D01*
X131262120Y-85092625D01*
X131516120Y-85092625D01*
X131516120Y-86235540D01*
X132659744Y-86235540D01*
X132781029Y-86013500D01*
X132686190Y-85748659D01*
X132541505Y-85507409D01*
X132352534Y-85299021D01*
X132126540Y-85131503D01*
X131872207Y-85011294D01*
X131738159Y-84970636D01*
X131516120Y-85092625D01*
X131262120Y-85092625D01*
X131040081Y-84970636D01*
X130906033Y-85011294D01*
X130651700Y-85131503D01*
X130425706Y-85299021D01*
X130236735Y-85507409D01*
X130119120Y-85703522D01*
X130001505Y-85507409D01*
X129812534Y-85299021D01*
X129586540Y-85131503D01*
X129332207Y-85011294D01*
X129198159Y-84970636D01*
X128976120Y-85092625D01*
X128722120Y-85092625D01*
X128500081Y-84970636D01*
X128366033Y-85011294D01*
X128111700Y-85131503D01*
X127885706Y-85299021D01*
X127696735Y-85507409D01*
X127585187Y-85693405D01*
X127580800Y-85682813D01*
X127423757Y-85447781D01*
X127223879Y-85247903D01*
X126988847Y-85090860D01*
X126727694Y-84982687D01*
X126450455Y-84927540D01*
X126167785Y-84927540D01*
X125890546Y-84982687D01*
X125654121Y-85080617D01*
X125654121Y-83812540D01*
X134828145Y-83812540D01*
X134851990Y-84054642D01*
X134922609Y-84287441D01*
X135037287Y-84501989D01*
X135191618Y-84690042D01*
X135379671Y-84844373D01*
X135594219Y-84959051D01*
X135827018Y-85029670D01*
X136008455Y-85047540D01*
X136929785Y-85047540D01*
X137111222Y-85029670D01*
X137344021Y-84959051D01*
X137558569Y-84844373D01*
X137746622Y-84690042D01*
X137900953Y-84501989D01*
X138015631Y-84287441D01*
X138086250Y-84054642D01*
X138110095Y-83812540D01*
X138086250Y-83570438D01*
X138015631Y-83337639D01*
X137900953Y-83123091D01*
X137746622Y-82935038D01*
X137558569Y-82780707D01*
X137344021Y-82666029D01*
X137111222Y-82595410D01*
X136929785Y-82577540D01*
X136008455Y-82577540D01*
X135827018Y-82595410D01*
X135594219Y-82666029D01*
X135379671Y-82780707D01*
X135191618Y-82935038D01*
X135037287Y-83123091D01*
X134922609Y-83337639D01*
X134851990Y-83570438D01*
X134828145Y-83812540D01*
X125654121Y-83812540D01*
X125654121Y-81272540D01*
X134828145Y-81272540D01*
X134851990Y-81514642D01*
X134922609Y-81747441D01*
X135037287Y-81961989D01*
X135191618Y-82150042D01*
X135379671Y-82304373D01*
X135594219Y-82419051D01*
X135827018Y-82489670D01*
X136008455Y-82507540D01*
X136929785Y-82507540D01*
X137111222Y-82489670D01*
X137344021Y-82419051D01*
X137558569Y-82304373D01*
X137746622Y-82150042D01*
X137900953Y-81961989D01*
X138015631Y-81747441D01*
X138086250Y-81514642D01*
X138110095Y-81272540D01*
X138086250Y-81030438D01*
X138015631Y-80797639D01*
X137900953Y-80583091D01*
X137746622Y-80395038D01*
X137558569Y-80240707D01*
X137344021Y-80126029D01*
X137111222Y-80055410D01*
X136929785Y-80037540D01*
X136008455Y-80037540D01*
X135827018Y-80055410D01*
X135594219Y-80126029D01*
X135379671Y-80240707D01*
X135191618Y-80395038D01*
X135037287Y-80583091D01*
X134922609Y-80797639D01*
X134851990Y-81030438D01*
X134828145Y-81272540D01*
X125654121Y-81272540D01*
X125654121Y-78732540D01*
X134828145Y-78732540D01*
X134851990Y-78974642D01*
X134922609Y-79207441D01*
X135037287Y-79421989D01*
X135191618Y-79610042D01*
X135379671Y-79764373D01*
X135594219Y-79879051D01*
X135827018Y-79949670D01*
X136008455Y-79967540D01*
X136929785Y-79967540D01*
X137111222Y-79949670D01*
X137344021Y-79879051D01*
X137558569Y-79764373D01*
X137746622Y-79610042D01*
X137900953Y-79421989D01*
X138015631Y-79207441D01*
X138086250Y-78974642D01*
X138110095Y-78732540D01*
X138086250Y-78490438D01*
X138015631Y-78257639D01*
X137900953Y-78043091D01*
X137746622Y-77855038D01*
X137558569Y-77700707D01*
X137344021Y-77586029D01*
X137111222Y-77515410D01*
X136929785Y-77497540D01*
X136008455Y-77497540D01*
X135827018Y-77515410D01*
X135594219Y-77586029D01*
X135379671Y-77700707D01*
X135191618Y-77855038D01*
X135037287Y-78043091D01*
X134922609Y-78257639D01*
X134851990Y-78490438D01*
X134828145Y-78732540D01*
X125654121Y-78732540D01*
X125654121Y-77472533D01*
X125826033Y-77553786D01*
X125960081Y-77594444D01*
X126182120Y-77472455D01*
X126182120Y-76329540D01*
X126162120Y-76329540D01*
X126162120Y-76075540D01*
X126182120Y-76075540D01*
X126182120Y-74932625D01*
X126436120Y-74932625D01*
X126436120Y-76075540D01*
X126456120Y-76075540D01*
X126456120Y-76329540D01*
X126436120Y-76329540D01*
X126436120Y-77472455D01*
X126658159Y-77594444D01*
X126792207Y-77553786D01*
X127046540Y-77433577D01*
X127272534Y-77266059D01*
X127461505Y-77057671D01*
X127573053Y-76871675D01*
X127577440Y-76882267D01*
X127734483Y-77117299D01*
X127934361Y-77317177D01*
X128169393Y-77474220D01*
X128430546Y-77582393D01*
X128707785Y-77637540D01*
X128990455Y-77637540D01*
X129267694Y-77582393D01*
X129528847Y-77474220D01*
X129763879Y-77317177D01*
X129963757Y-77117299D01*
X130120800Y-76882267D01*
X130125187Y-76871675D01*
X130236735Y-77057671D01*
X130425706Y-77266059D01*
X130651700Y-77433577D01*
X130906033Y-77553786D01*
X131040081Y-77594444D01*
X131262120Y-77472455D01*
X131262120Y-76329540D01*
X131516120Y-76329540D01*
X131516120Y-77472455D01*
X131738159Y-77594444D01*
X131872207Y-77553786D01*
X132126540Y-77433577D01*
X132352534Y-77266059D01*
X132541505Y-77057671D01*
X132686190Y-76816421D01*
X132781029Y-76551580D01*
X132659744Y-76329540D01*
X131516120Y-76329540D01*
X131262120Y-76329540D01*
X131242120Y-76329540D01*
X131242120Y-76192540D01*
X134828145Y-76192540D01*
X134851990Y-76434642D01*
X134922609Y-76667441D01*
X135037287Y-76881989D01*
X135191618Y-77070042D01*
X135379671Y-77224373D01*
X135594219Y-77339051D01*
X135827018Y-77409670D01*
X136008455Y-77427540D01*
X136929785Y-77427540D01*
X137111222Y-77409670D01*
X137344021Y-77339051D01*
X137558569Y-77224373D01*
X137746622Y-77070042D01*
X137900953Y-76881989D01*
X138015631Y-76667441D01*
X138086250Y-76434642D01*
X138110095Y-76192540D01*
X138086250Y-75950438D01*
X138015631Y-75717639D01*
X137900953Y-75503091D01*
X137746622Y-75315038D01*
X137558569Y-75160707D01*
X137344021Y-75046029D01*
X137111222Y-74975410D01*
X136929785Y-74957540D01*
X136008455Y-74957540D01*
X135827018Y-74975410D01*
X135594219Y-75046029D01*
X135379671Y-75160707D01*
X135191618Y-75315038D01*
X135037287Y-75503091D01*
X134922609Y-75717639D01*
X134851990Y-75950438D01*
X134828145Y-76192540D01*
X131242120Y-76192540D01*
X131242120Y-76075540D01*
X131262120Y-76075540D01*
X131262120Y-74932625D01*
X131516120Y-74932625D01*
X131516120Y-76075540D01*
X132659744Y-76075540D01*
X132781029Y-75853500D01*
X132686190Y-75588659D01*
X132541505Y-75347409D01*
X132352534Y-75139021D01*
X132126540Y-74971503D01*
X131872207Y-74851294D01*
X131738159Y-74810636D01*
X131516120Y-74932625D01*
X131262120Y-74932625D01*
X131040081Y-74810636D01*
X130906033Y-74851294D01*
X130651700Y-74971503D01*
X130425706Y-75139021D01*
X130236735Y-75347409D01*
X130125187Y-75533405D01*
X130120800Y-75522813D01*
X129963757Y-75287781D01*
X129763879Y-75087903D01*
X129528847Y-74930860D01*
X129267694Y-74822687D01*
X128990455Y-74767540D01*
X128707785Y-74767540D01*
X128430546Y-74822687D01*
X128169393Y-74930860D01*
X127934361Y-75087903D01*
X127734483Y-75287781D01*
X127577440Y-75522813D01*
X127573053Y-75533405D01*
X127461505Y-75347409D01*
X127272534Y-75139021D01*
X127046540Y-74971503D01*
X126792207Y-74851294D01*
X126658159Y-74810636D01*
X126436120Y-74932625D01*
X126182120Y-74932625D01*
X125960081Y-74810636D01*
X125826033Y-74851294D01*
X125571700Y-74971503D01*
X125345706Y-75139021D01*
X125156735Y-75347409D01*
X125045187Y-75533405D01*
X125040800Y-75522813D01*
X124883757Y-75287781D01*
X124683879Y-75087903D01*
X124448847Y-74930860D01*
X124187694Y-74822687D01*
X123910455Y-74767540D01*
X123627785Y-74767540D01*
X123350546Y-74822687D01*
X123089393Y-74930860D01*
X122854361Y-75087903D01*
X122654483Y-75287781D01*
X122499120Y-75520299D01*
X122343757Y-75287781D01*
X122143879Y-75087903D01*
X121908847Y-74930860D01*
X121647694Y-74822687D01*
X121370455Y-74767540D01*
X121087785Y-74767540D01*
X120810546Y-74822687D01*
X120549393Y-74930860D01*
X120314361Y-75087903D01*
X120114483Y-75287781D01*
X119959120Y-75520299D01*
X119803757Y-75287781D01*
X119603879Y-75087903D01*
X119368847Y-74930860D01*
X119107694Y-74822687D01*
X118830455Y-74767540D01*
X118547785Y-74767540D01*
X118324119Y-74812031D01*
X118324119Y-73652540D01*
X134828145Y-73652540D01*
X134851990Y-73894642D01*
X134922609Y-74127441D01*
X135037287Y-74341989D01*
X135191618Y-74530042D01*
X135379671Y-74684373D01*
X135594219Y-74799051D01*
X135827018Y-74869670D01*
X136008455Y-74887540D01*
X136929785Y-74887540D01*
X137111222Y-74869670D01*
X137344021Y-74799051D01*
X137558569Y-74684373D01*
X137746622Y-74530042D01*
X137900953Y-74341989D01*
X138015631Y-74127441D01*
X138086250Y-73894642D01*
X138110095Y-73652540D01*
X138086250Y-73410438D01*
X138015631Y-73177639D01*
X137900953Y-72963091D01*
X137746622Y-72775038D01*
X137558569Y-72620707D01*
X137344021Y-72506029D01*
X137111222Y-72435410D01*
X136929785Y-72417540D01*
X136008455Y-72417540D01*
X135827018Y-72435410D01*
X135594219Y-72506029D01*
X135379671Y-72620707D01*
X135191618Y-72775038D01*
X135037287Y-72963091D01*
X134922609Y-73177639D01*
X134851990Y-73410438D01*
X134828145Y-73652540D01*
X118324119Y-73652540D01*
X118324119Y-71112540D01*
X134828145Y-71112540D01*
X134851990Y-71354642D01*
X134922609Y-71587441D01*
X135037287Y-71801989D01*
X135191618Y-71990042D01*
X135379671Y-72144373D01*
X135594219Y-72259051D01*
X135827018Y-72329670D01*
X136008455Y-72347540D01*
X136929785Y-72347540D01*
X137111222Y-72329670D01*
X137344021Y-72259051D01*
X137558569Y-72144373D01*
X137746622Y-71990042D01*
X137900953Y-71801989D01*
X138015631Y-71587441D01*
X138086250Y-71354642D01*
X138110095Y-71112540D01*
X138086250Y-70870438D01*
X138015631Y-70637639D01*
X137900953Y-70423091D01*
X137746622Y-70235038D01*
X137558569Y-70080707D01*
X137344021Y-69966029D01*
X137111222Y-69895410D01*
X136929785Y-69877540D01*
X136008455Y-69877540D01*
X135827018Y-69895410D01*
X135594219Y-69966029D01*
X135379671Y-70080707D01*
X135191618Y-70235038D01*
X135037287Y-70423091D01*
X134922609Y-70637639D01*
X134851990Y-70870438D01*
X134828145Y-71112540D01*
X118324119Y-71112540D01*
X118324119Y-69969603D01*
X118340081Y-69974444D01*
X118562120Y-69852455D01*
X118562120Y-68709540D01*
X118542120Y-68709540D01*
X118542120Y-68455540D01*
X118562120Y-68455540D01*
X118562120Y-67312625D01*
X118816120Y-67312625D01*
X118816120Y-68455540D01*
X118836120Y-68455540D01*
X118836120Y-68709540D01*
X118816120Y-68709540D01*
X118816120Y-69852455D01*
X119038159Y-69974444D01*
X119172207Y-69933786D01*
X119426540Y-69813577D01*
X119652534Y-69646059D01*
X119841505Y-69437671D01*
X119953053Y-69251675D01*
X119957440Y-69262267D01*
X120114483Y-69497299D01*
X120314361Y-69697177D01*
X120549393Y-69854220D01*
X120810546Y-69962393D01*
X121087785Y-70017540D01*
X121370455Y-70017540D01*
X121647694Y-69962393D01*
X121908847Y-69854220D01*
X122143879Y-69697177D01*
X122343757Y-69497299D01*
X122500800Y-69262267D01*
X122505187Y-69251675D01*
X122616735Y-69437671D01*
X122805706Y-69646059D01*
X123031700Y-69813577D01*
X123286033Y-69933786D01*
X123420081Y-69974444D01*
X123642120Y-69852455D01*
X123642120Y-68709540D01*
X123622120Y-68709540D01*
X123622120Y-68455540D01*
X123642120Y-68455540D01*
X123642120Y-67312625D01*
X123896120Y-67312625D01*
X123896120Y-68455540D01*
X123916120Y-68455540D01*
X123916120Y-68709540D01*
X123896120Y-68709540D01*
X123896120Y-69852455D01*
X124118159Y-69974444D01*
X124252207Y-69933786D01*
X124506540Y-69813577D01*
X124732534Y-69646059D01*
X124921505Y-69437671D01*
X125033053Y-69251675D01*
X125037440Y-69262267D01*
X125194483Y-69497299D01*
X125394361Y-69697177D01*
X125629393Y-69854220D01*
X125890546Y-69962393D01*
X126167785Y-70017540D01*
X126450455Y-70017540D01*
X126727694Y-69962393D01*
X126988847Y-69854220D01*
X127223879Y-69697177D01*
X127423757Y-69497299D01*
X127580800Y-69262267D01*
X127585187Y-69251675D01*
X127696735Y-69437671D01*
X127885706Y-69646059D01*
X128111700Y-69813577D01*
X128366033Y-69933786D01*
X128500081Y-69974444D01*
X128722120Y-69852455D01*
X128722120Y-68709540D01*
X128702120Y-68709540D01*
X128702120Y-68455540D01*
X128722120Y-68455540D01*
X128722120Y-67312625D01*
X128976120Y-67312625D01*
X128976120Y-68455540D01*
X128996120Y-68455540D01*
X128996120Y-68709540D01*
X128976120Y-68709540D01*
X128976120Y-69852455D01*
X129198159Y-69974444D01*
X129332207Y-69933786D01*
X129586540Y-69813577D01*
X129812534Y-69646059D01*
X130001505Y-69437671D01*
X130113053Y-69251675D01*
X130117440Y-69262267D01*
X130274483Y-69497299D01*
X130474361Y-69697177D01*
X130709393Y-69854220D01*
X130970546Y-69962393D01*
X131247785Y-70017540D01*
X131530455Y-70017540D01*
X131807694Y-69962393D01*
X132068847Y-69854220D01*
X132303879Y-69697177D01*
X132503757Y-69497299D01*
X132660800Y-69262267D01*
X132768973Y-69001114D01*
X132824120Y-68723875D01*
X132824120Y-68572540D01*
X134828145Y-68572540D01*
X134851990Y-68814642D01*
X134922609Y-69047441D01*
X135037287Y-69261989D01*
X135191618Y-69450042D01*
X135379671Y-69604373D01*
X135594219Y-69719051D01*
X135827018Y-69789670D01*
X136008455Y-69807540D01*
X136929785Y-69807540D01*
X137111222Y-69789670D01*
X137344021Y-69719051D01*
X137558569Y-69604373D01*
X137746622Y-69450042D01*
X137900953Y-69261989D01*
X138015631Y-69047441D01*
X138086250Y-68814642D01*
X138110095Y-68572540D01*
X138086250Y-68330438D01*
X138015631Y-68097639D01*
X137900953Y-67883091D01*
X137746622Y-67695038D01*
X137558569Y-67540707D01*
X137344021Y-67426029D01*
X137111222Y-67355410D01*
X136929785Y-67337540D01*
X136008455Y-67337540D01*
X135827018Y-67355410D01*
X135594219Y-67426029D01*
X135379671Y-67540707D01*
X135191618Y-67695038D01*
X135037287Y-67883091D01*
X134922609Y-68097639D01*
X134851990Y-68330438D01*
X134828145Y-68572540D01*
X132824120Y-68572540D01*
X132824120Y-68441205D01*
X132768973Y-68163966D01*
X132660800Y-67902813D01*
X132503757Y-67667781D01*
X132303879Y-67467903D01*
X132068847Y-67310860D01*
X131807694Y-67202687D01*
X131530455Y-67147540D01*
X131247785Y-67147540D01*
X130970546Y-67202687D01*
X130709393Y-67310860D01*
X130474361Y-67467903D01*
X130274483Y-67667781D01*
X130117440Y-67902813D01*
X130113053Y-67913405D01*
X130001505Y-67727409D01*
X129812534Y-67519021D01*
X129586540Y-67351503D01*
X129332207Y-67231294D01*
X129198159Y-67190636D01*
X128976120Y-67312625D01*
X128722120Y-67312625D01*
X128500081Y-67190636D01*
X128366033Y-67231294D01*
X128111700Y-67351503D01*
X127885706Y-67519021D01*
X127696735Y-67727409D01*
X127585187Y-67913405D01*
X127580800Y-67902813D01*
X127423757Y-67667781D01*
X127223879Y-67467903D01*
X126988847Y-67310860D01*
X126727694Y-67202687D01*
X126450455Y-67147540D01*
X126167785Y-67147540D01*
X125890546Y-67202687D01*
X125629393Y-67310860D01*
X125394361Y-67467903D01*
X125194483Y-67667781D01*
X125037440Y-67902813D01*
X125033053Y-67913405D01*
X124921505Y-67727409D01*
X124732534Y-67519021D01*
X124506540Y-67351503D01*
X124252207Y-67231294D01*
X124118159Y-67190636D01*
X123896120Y-67312625D01*
X123642120Y-67312625D01*
X123420081Y-67190636D01*
X123286033Y-67231294D01*
X123031700Y-67351503D01*
X122805706Y-67519021D01*
X122616735Y-67727409D01*
X122505187Y-67913405D01*
X122500800Y-67902813D01*
X122343757Y-67667781D01*
X122143879Y-67467903D01*
X121908847Y-67310860D01*
X121865226Y-67292792D01*
X121890634Y-67279211D01*
X121962217Y-67035242D01*
X121149120Y-66222145D01*
X120336023Y-67035242D01*
X120407606Y-67279211D01*
X120518342Y-67331608D01*
X120314361Y-67467903D01*
X120114483Y-67667781D01*
X119957440Y-67902813D01*
X119953053Y-67913405D01*
X119841505Y-67727409D01*
X119652534Y-67519021D01*
X119426540Y-67351503D01*
X119172207Y-67231294D01*
X119038159Y-67190636D01*
X118816120Y-67312625D01*
X118562120Y-67312625D01*
X118340081Y-67190636D01*
X118206033Y-67231294D01*
X117951700Y-67351503D01*
X117725706Y-67519021D01*
X117536735Y-67727409D01*
X117425187Y-67913405D01*
X117420800Y-67902813D01*
X117263757Y-67667781D01*
X117063879Y-67467903D01*
X116831361Y-67312540D01*
X117063879Y-67157177D01*
X117263757Y-66957299D01*
X117420800Y-66722267D01*
X117528973Y-66461114D01*
X117584120Y-66183875D01*
X117584120Y-66113052D01*
X119708903Y-66113052D01*
X119750333Y-66392670D01*
X119845517Y-66658832D01*
X119912449Y-66784054D01*
X120156418Y-66855637D01*
X120969515Y-66042540D01*
X121328725Y-66042540D01*
X122141822Y-66855637D01*
X122385791Y-66784054D01*
X122506691Y-66528544D01*
X122575420Y-66254356D01*
X122589337Y-65972028D01*
X122547907Y-65692410D01*
X122452723Y-65426248D01*
X122385791Y-65301026D01*
X122141822Y-65229443D01*
X121328725Y-66042540D01*
X120969515Y-66042540D01*
X120156418Y-65229443D01*
X119912449Y-65301026D01*
X119791549Y-65556536D01*
X119722820Y-65830724D01*
X119708903Y-66113052D01*
X117584120Y-66113052D01*
X117584120Y-65901205D01*
X117528973Y-65623966D01*
X117420800Y-65362813D01*
X117263757Y-65127781D01*
X117185814Y-65049838D01*
X120336023Y-65049838D01*
X121149120Y-65862935D01*
X121962217Y-65049838D01*
X121890634Y-64805869D01*
X121635124Y-64684969D01*
X121360936Y-64616240D01*
X121078608Y-64602323D01*
X120798990Y-64643753D01*
X120532828Y-64738937D01*
X120407606Y-64805869D01*
X120336023Y-65049838D01*
X117185814Y-65049838D01*
X117063879Y-64927903D01*
X116828847Y-64770860D01*
X116567694Y-64662687D01*
X116290455Y-64607540D01*
X116007785Y-64607540D01*
X115730546Y-64662687D01*
X115469393Y-64770860D01*
X115234361Y-64927903D01*
X115034483Y-65127781D01*
X114877440Y-65362813D01*
X114769267Y-65623966D01*
X114714120Y-65901205D01*
X114714120Y-66183875D01*
X114769267Y-66461114D01*
X114877440Y-66722267D01*
X115034483Y-66957299D01*
X115234361Y-67157177D01*
X115466879Y-67312540D01*
X115234361Y-67467903D01*
X115034483Y-67667781D01*
X114877440Y-67902813D01*
X114769267Y-68163966D01*
X114714120Y-68441205D01*
X114714120Y-68723875D01*
X114769267Y-69001114D01*
X114877440Y-69262267D01*
X115034483Y-69497299D01*
X115234361Y-69697177D01*
X115469393Y-69854220D01*
X115730546Y-69962393D01*
X116007785Y-70017540D01*
X116290455Y-70017540D01*
X116325559Y-70010557D01*
X116554119Y-70239118D01*
X116554119Y-74764468D01*
X115349120Y-74764468D01*
X115224638Y-74776728D01*
X115104940Y-74813038D01*
X114994626Y-74872003D01*
X114897935Y-74951355D01*
X114818583Y-75048046D01*
X114759618Y-75158360D01*
X114723308Y-75278058D01*
X114711048Y-75402540D01*
X114711048Y-77002540D01*
X114723308Y-77127022D01*
X114759618Y-77246720D01*
X114818583Y-77357034D01*
X114897935Y-77453725D01*
X114994626Y-77533077D01*
X115104940Y-77592042D01*
X115224638Y-77628352D01*
X115349120Y-77640612D01*
X116554120Y-77640612D01*
X116554120Y-82165961D01*
X116325559Y-82394523D01*
X116290455Y-82387540D01*
X116007785Y-82387540D01*
X115730546Y-82442687D01*
X115469393Y-82550860D01*
X115234361Y-82707903D01*
X115034483Y-82907781D01*
X114877440Y-83142813D01*
X114769267Y-83403966D01*
X114714120Y-83681205D01*
X114714120Y-83963875D01*
X114769267Y-84241114D01*
X114877440Y-84502267D01*
X115034483Y-84737299D01*
X115234361Y-84937177D01*
X115466879Y-85092540D01*
X115234361Y-85247903D01*
X115034483Y-85447781D01*
X114877440Y-85682813D01*
X114769267Y-85943966D01*
X114714120Y-86221205D01*
X114714120Y-86503875D01*
X114769267Y-86781114D01*
X114877440Y-87042267D01*
X115034483Y-87277299D01*
X115234361Y-87477177D01*
X115469393Y-87634220D01*
X115730546Y-87742393D01*
X116007785Y-87797540D01*
X116290455Y-87797540D01*
X116567694Y-87742393D01*
X116828847Y-87634220D01*
X117063879Y-87477177D01*
X117263757Y-87277299D01*
X117419120Y-87044781D01*
X117574483Y-87277299D01*
X117774361Y-87477177D01*
X118009393Y-87634220D01*
X118270546Y-87742393D01*
X118547785Y-87797540D01*
X118830455Y-87797540D01*
X119054122Y-87753049D01*
X119054122Y-92542736D01*
X119013006Y-92583852D01*
X118830455Y-92547540D01*
X118547785Y-92547540D01*
X118270546Y-92602687D01*
X118009393Y-92710860D01*
X117774361Y-92867903D01*
X117575763Y-93066501D01*
X117574932Y-93058058D01*
X117538622Y-92938360D01*
X117479657Y-92828046D01*
X117400305Y-92731355D01*
X117303614Y-92652003D01*
X117193300Y-92593038D01*
X117073602Y-92556728D01*
X116949120Y-92544468D01*
X115785850Y-92544468D01*
X114623120Y-91381739D01*
X114623120Y-87161862D01*
X114626796Y-87124539D01*
X114623120Y-87087216D01*
X114623120Y-87087207D01*
X114612123Y-86975554D01*
X114568666Y-86832293D01*
X114498094Y-86700264D01*
X114403121Y-86584539D01*
X114374124Y-86560742D01*
X111124924Y-83311543D01*
X111101121Y-83282539D01*
X110985396Y-83187566D01*
X110853367Y-83116994D01*
X110710106Y-83073537D01*
X110598453Y-83062540D01*
X110598442Y-83062540D01*
X110561120Y-83058864D01*
X110523798Y-83062540D01*
X109747163Y-83062540D01*
X109643757Y-82907781D01*
X109443879Y-82707903D01*
X109211361Y-82552540D01*
X109443879Y-82397177D01*
X109643757Y-82197299D01*
X109800800Y-81962267D01*
X109908973Y-81701114D01*
X109964120Y-81423875D01*
X109964120Y-81141205D01*
X109908973Y-80863966D01*
X109800800Y-80602813D01*
X109643757Y-80367781D01*
X109443879Y-80167903D01*
X109208847Y-80010860D01*
X109198255Y-80006473D01*
X109384251Y-79894925D01*
X109592639Y-79705954D01*
X109760157Y-79479960D01*
X109880366Y-79225627D01*
X109921024Y-79091579D01*
X109799035Y-78869540D01*
X108656120Y-78869540D01*
X108656120Y-78889540D01*
X108402120Y-78889540D01*
X108402120Y-78869540D01*
X107259205Y-78869540D01*
X107137216Y-79091579D01*
X107177874Y-79225627D01*
X107298083Y-79479960D01*
X107465601Y-79705954D01*
X107673989Y-79894925D01*
X107859985Y-80006473D01*
X107849393Y-80010860D01*
X107614361Y-80167903D01*
X107414483Y-80367781D01*
X107257440Y-80602813D01*
X107149267Y-80863966D01*
X107094120Y-81141205D01*
X99995190Y-81141205D01*
X99986250Y-81050438D01*
X99915631Y-80817639D01*
X99800953Y-80603091D01*
X99646622Y-80415038D01*
X99458569Y-80260707D01*
X99244021Y-80146029D01*
X99011222Y-80075410D01*
X98829785Y-80057540D01*
X97908455Y-80057540D01*
X97727018Y-80075410D01*
X97494219Y-80146029D01*
X97279671Y-80260707D01*
X97091618Y-80415038D01*
X96937287Y-80603091D01*
X96822609Y-80817639D01*
X96751990Y-81050438D01*
X96728145Y-81292540D01*
X94724120Y-81292540D01*
X94724120Y-81141205D01*
X94668973Y-80863966D01*
X94560800Y-80602813D01*
X94403757Y-80367781D01*
X94203879Y-80167903D01*
X93971361Y-80012540D01*
X94203879Y-79857177D01*
X94403757Y-79657299D01*
X94560800Y-79422267D01*
X94668973Y-79161114D01*
X94724120Y-78883875D01*
X94724120Y-78752540D01*
X96728145Y-78752540D01*
X96751990Y-78994642D01*
X96822609Y-79227441D01*
X96937287Y-79441989D01*
X97091618Y-79630042D01*
X97279671Y-79784373D01*
X97494219Y-79899051D01*
X97727018Y-79969670D01*
X97908455Y-79987540D01*
X98829785Y-79987540D01*
X99011222Y-79969670D01*
X99244021Y-79899051D01*
X99458569Y-79784373D01*
X99646622Y-79630042D01*
X99800953Y-79441989D01*
X99915631Y-79227441D01*
X99986250Y-78994642D01*
X100010095Y-78752540D01*
X111968145Y-78752540D01*
X111991990Y-78994642D01*
X112062609Y-79227441D01*
X112177287Y-79441989D01*
X112331618Y-79630042D01*
X112519671Y-79784373D01*
X112734219Y-79899051D01*
X112967018Y-79969670D01*
X113148455Y-79987540D01*
X114069785Y-79987540D01*
X114251222Y-79969670D01*
X114484021Y-79899051D01*
X114698569Y-79784373D01*
X114886622Y-79630042D01*
X115040953Y-79441989D01*
X115155631Y-79227441D01*
X115226250Y-78994642D01*
X115250095Y-78752540D01*
X115226250Y-78510438D01*
X115155631Y-78277639D01*
X115040953Y-78063091D01*
X114886622Y-77875038D01*
X114698569Y-77720707D01*
X114484021Y-77606029D01*
X114251222Y-77535410D01*
X114069785Y-77517540D01*
X113148455Y-77517540D01*
X112967018Y-77535410D01*
X112734219Y-77606029D01*
X112519671Y-77720707D01*
X112331618Y-77875038D01*
X112177287Y-78063091D01*
X112062609Y-78277639D01*
X111991990Y-78510438D01*
X111968145Y-78752540D01*
X100010095Y-78752540D01*
X99986250Y-78510438D01*
X99915631Y-78277639D01*
X99800953Y-78063091D01*
X99646622Y-77875038D01*
X99458569Y-77720707D01*
X99244021Y-77606029D01*
X99011222Y-77535410D01*
X98829785Y-77517540D01*
X97908455Y-77517540D01*
X97727018Y-77535410D01*
X97494219Y-77606029D01*
X97279671Y-77720707D01*
X97091618Y-77875038D01*
X96937287Y-78063091D01*
X96822609Y-78277639D01*
X96751990Y-78510438D01*
X96728145Y-78752540D01*
X94724120Y-78752540D01*
X94724120Y-78601205D01*
X94668973Y-78323966D01*
X94560800Y-78062813D01*
X94403757Y-77827781D01*
X94203879Y-77627903D01*
X93971361Y-77472540D01*
X94203879Y-77317177D01*
X94403757Y-77117299D01*
X94560800Y-76882267D01*
X94668973Y-76621114D01*
X94724120Y-76343875D01*
X94724120Y-76212540D01*
X96728145Y-76212540D01*
X96751990Y-76454642D01*
X96822609Y-76687441D01*
X96937287Y-76901989D01*
X97091618Y-77090042D01*
X97279671Y-77244373D01*
X97494219Y-77359051D01*
X97727018Y-77429670D01*
X97908455Y-77447540D01*
X98829785Y-77447540D01*
X99011222Y-77429670D01*
X99244021Y-77359051D01*
X99458569Y-77244373D01*
X99646622Y-77090042D01*
X99800953Y-76901989D01*
X99915631Y-76687441D01*
X99986250Y-76454642D01*
X100010095Y-76212540D01*
X99986250Y-75970438D01*
X99915631Y-75737639D01*
X99800953Y-75523091D01*
X99646622Y-75335038D01*
X99458569Y-75180707D01*
X99244021Y-75066029D01*
X99011222Y-74995410D01*
X98829785Y-74977540D01*
X97908455Y-74977540D01*
X97727018Y-74995410D01*
X97494219Y-75066029D01*
X97279671Y-75180707D01*
X97091618Y-75335038D01*
X96937287Y-75523091D01*
X96822609Y-75737639D01*
X96751990Y-75970438D01*
X96728145Y-76212540D01*
X94724120Y-76212540D01*
X94724120Y-76061205D01*
X94668973Y-75783966D01*
X94560800Y-75522813D01*
X94403757Y-75287781D01*
X94203879Y-75087903D01*
X93971361Y-74932540D01*
X94203879Y-74777177D01*
X94403757Y-74577299D01*
X94560800Y-74342267D01*
X94668973Y-74081114D01*
X94724120Y-73803875D01*
X94724120Y-73672540D01*
X96728145Y-73672540D01*
X96751990Y-73914642D01*
X96822609Y-74147441D01*
X96937287Y-74361989D01*
X97091618Y-74550042D01*
X97279671Y-74704373D01*
X97494219Y-74819051D01*
X97727018Y-74889670D01*
X97908455Y-74907540D01*
X98829785Y-74907540D01*
X99011222Y-74889670D01*
X99244021Y-74819051D01*
X99458569Y-74704373D01*
X99646622Y-74550042D01*
X99800953Y-74361989D01*
X99915631Y-74147441D01*
X99986250Y-73914642D01*
X100010095Y-73672540D01*
X99986250Y-73430438D01*
X99915631Y-73197639D01*
X99800953Y-72983091D01*
X99646622Y-72795038D01*
X99458569Y-72640707D01*
X99244021Y-72526029D01*
X99011222Y-72455410D01*
X98829785Y-72437540D01*
X97908455Y-72437540D01*
X97727018Y-72455410D01*
X97494219Y-72526029D01*
X97279671Y-72640707D01*
X97091618Y-72795038D01*
X96937287Y-72983091D01*
X96822609Y-73197639D01*
X96751990Y-73430438D01*
X96728145Y-73672540D01*
X94724120Y-73672540D01*
X94724120Y-73521205D01*
X94668973Y-73243966D01*
X94560800Y-72982813D01*
X94403757Y-72747781D01*
X94203879Y-72547903D01*
X93971361Y-72392540D01*
X94203879Y-72237177D01*
X94403757Y-72037299D01*
X94560800Y-71802267D01*
X94668973Y-71541114D01*
X94724120Y-71263875D01*
X94724120Y-71132540D01*
X96728145Y-71132540D01*
X96751990Y-71374642D01*
X96822609Y-71607441D01*
X96937287Y-71821989D01*
X97091618Y-72010042D01*
X97279671Y-72164373D01*
X97494219Y-72279051D01*
X97727018Y-72349670D01*
X97908455Y-72367540D01*
X98829785Y-72367540D01*
X99011222Y-72349670D01*
X99244021Y-72279051D01*
X99458569Y-72164373D01*
X99646622Y-72010042D01*
X99800953Y-71821989D01*
X99915631Y-71607441D01*
X99986250Y-71374642D01*
X100010095Y-71132540D01*
X99986250Y-70890438D01*
X99915631Y-70657639D01*
X99800953Y-70443091D01*
X99646622Y-70255038D01*
X99458569Y-70100707D01*
X99244021Y-69986029D01*
X99011222Y-69915410D01*
X98829785Y-69897540D01*
X97908455Y-69897540D01*
X97727018Y-69915410D01*
X97494219Y-69986029D01*
X97279671Y-70100707D01*
X97091618Y-70255038D01*
X96937287Y-70443091D01*
X96822609Y-70657639D01*
X96751990Y-70890438D01*
X96728145Y-71132540D01*
X94724120Y-71132540D01*
X94724120Y-70981205D01*
X94668973Y-70703966D01*
X94560800Y-70442813D01*
X94403757Y-70207781D01*
X94203879Y-70007903D01*
X93971361Y-69852540D01*
X94203879Y-69697177D01*
X94403757Y-69497299D01*
X94560800Y-69262267D01*
X94668973Y-69001114D01*
X94724120Y-68723875D01*
X94724120Y-68592540D01*
X96728145Y-68592540D01*
X96751990Y-68834642D01*
X96822609Y-69067441D01*
X96937287Y-69281989D01*
X97091618Y-69470042D01*
X97279671Y-69624373D01*
X97494219Y-69739051D01*
X97727018Y-69809670D01*
X97908455Y-69827540D01*
X98829785Y-69827540D01*
X99011222Y-69809670D01*
X99244021Y-69739051D01*
X99458569Y-69624373D01*
X99646622Y-69470042D01*
X99800953Y-69281989D01*
X99915631Y-69067441D01*
X99986250Y-68834642D01*
X100010095Y-68592540D01*
X99986250Y-68350438D01*
X99915631Y-68117639D01*
X99800953Y-67903091D01*
X99646622Y-67715038D01*
X99458569Y-67560707D01*
X99244021Y-67446029D01*
X99011222Y-67375410D01*
X98829785Y-67357540D01*
X97908455Y-67357540D01*
X97727018Y-67375410D01*
X97494219Y-67446029D01*
X97279671Y-67560707D01*
X97091618Y-67715038D01*
X96937287Y-67903091D01*
X96822609Y-68117639D01*
X96751990Y-68350438D01*
X96728145Y-68592540D01*
X94724120Y-68592540D01*
X94724120Y-68441205D01*
X94668973Y-68163966D01*
X94560800Y-67902813D01*
X94403757Y-67667781D01*
X94203879Y-67467903D01*
X93971361Y-67312540D01*
X94203879Y-67157177D01*
X94403757Y-66957299D01*
X94560800Y-66722267D01*
X94668973Y-66461114D01*
X94724120Y-66183875D01*
X94724120Y-65901205D01*
X94668973Y-65623966D01*
X94560800Y-65362813D01*
X94403757Y-65127781D01*
X94205159Y-64929183D01*
X94213602Y-64928352D01*
X94333300Y-64892042D01*
X94443614Y-64833077D01*
X94540305Y-64753725D01*
X94619657Y-64657034D01*
X94678622Y-64546720D01*
X94714932Y-64427022D01*
X94727192Y-64302540D01*
X94727192Y-63361205D01*
X107094120Y-63361205D01*
X107094120Y-63643875D01*
X107149267Y-63921114D01*
X107257440Y-64182267D01*
X107414483Y-64417299D01*
X107614361Y-64617177D01*
X107846879Y-64772540D01*
X107614361Y-64927903D01*
X107414483Y-65127781D01*
X107257440Y-65362813D01*
X107149267Y-65623966D01*
X107094120Y-65901205D01*
X107094120Y-66183875D01*
X107149267Y-66461114D01*
X107257440Y-66722267D01*
X107414483Y-66957299D01*
X107614361Y-67157177D01*
X107846879Y-67312540D01*
X107614361Y-67467903D01*
X107414483Y-67667781D01*
X107257440Y-67902813D01*
X107149267Y-68163966D01*
X107094120Y-68441205D01*
X107094120Y-68723875D01*
X107149267Y-69001114D01*
X107257440Y-69262267D01*
X107414483Y-69497299D01*
X107614361Y-69697177D01*
X107846879Y-69852540D01*
X107614361Y-70007903D01*
X107414483Y-70207781D01*
X107257440Y-70442813D01*
X107149267Y-70703966D01*
X107094120Y-70981205D01*
X107094120Y-71263875D01*
X107149267Y-71541114D01*
X107257440Y-71802267D01*
X107414483Y-72037299D01*
X107614361Y-72237177D01*
X107846879Y-72392540D01*
X107614361Y-72547903D01*
X107414483Y-72747781D01*
X107257440Y-72982813D01*
X107149267Y-73243966D01*
X107094120Y-73521205D01*
X107094120Y-73803875D01*
X107149267Y-74081114D01*
X107257440Y-74342267D01*
X107414483Y-74577299D01*
X107614361Y-74777177D01*
X107846879Y-74932540D01*
X107614361Y-75087903D01*
X107414483Y-75287781D01*
X107257440Y-75522813D01*
X107149267Y-75783966D01*
X107094120Y-76061205D01*
X107094120Y-76343875D01*
X107149267Y-76621114D01*
X107257440Y-76882267D01*
X107414483Y-77117299D01*
X107614361Y-77317177D01*
X107849393Y-77474220D01*
X107859985Y-77478607D01*
X107673989Y-77590155D01*
X107465601Y-77779126D01*
X107298083Y-78005120D01*
X107177874Y-78259453D01*
X107137216Y-78393501D01*
X107259205Y-78615540D01*
X108402120Y-78615540D01*
X108402120Y-78595540D01*
X108656120Y-78595540D01*
X108656120Y-78615540D01*
X109799035Y-78615540D01*
X109921024Y-78393501D01*
X109880366Y-78259453D01*
X109760157Y-78005120D01*
X109592639Y-77779126D01*
X109384251Y-77590155D01*
X109198255Y-77478607D01*
X109208847Y-77474220D01*
X109443879Y-77317177D01*
X109643757Y-77117299D01*
X109800800Y-76882267D01*
X109908973Y-76621114D01*
X109964120Y-76343875D01*
X109964120Y-76061205D01*
X109908973Y-75783966D01*
X109800800Y-75522813D01*
X109643757Y-75287781D01*
X109443879Y-75087903D01*
X109211361Y-74932540D01*
X109443879Y-74777177D01*
X109643757Y-74577299D01*
X109800800Y-74342267D01*
X109908973Y-74081114D01*
X109964120Y-73803875D01*
X109964120Y-73521205D01*
X109908973Y-73243966D01*
X109800800Y-72982813D01*
X109643757Y-72747781D01*
X109443879Y-72547903D01*
X109211361Y-72392540D01*
X109443879Y-72237177D01*
X109643757Y-72037299D01*
X109800800Y-71802267D01*
X109908973Y-71541114D01*
X109964120Y-71263875D01*
X109964120Y-70981205D01*
X109908973Y-70703966D01*
X109800800Y-70442813D01*
X109643757Y-70207781D01*
X109443879Y-70007903D01*
X109211361Y-69852540D01*
X109443879Y-69697177D01*
X109643757Y-69497299D01*
X109800800Y-69262267D01*
X109908973Y-69001114D01*
X109964120Y-68723875D01*
X109964120Y-68441205D01*
X109908973Y-68163966D01*
X109800800Y-67902813D01*
X109643757Y-67667781D01*
X109443879Y-67467903D01*
X109211361Y-67312540D01*
X109443879Y-67157177D01*
X109643757Y-66957299D01*
X109800800Y-66722267D01*
X109908973Y-66461114D01*
X109964120Y-66183875D01*
X109964120Y-65901205D01*
X109908973Y-65623966D01*
X109800800Y-65362813D01*
X109643757Y-65127781D01*
X109443879Y-64927903D01*
X109211361Y-64772540D01*
X109443879Y-64617177D01*
X109643757Y-64417299D01*
X109800800Y-64182267D01*
X109908973Y-63921114D01*
X109964120Y-63643875D01*
X109964120Y-63361205D01*
X109908973Y-63083966D01*
X109800800Y-62822813D01*
X109643757Y-62587781D01*
X109443879Y-62387903D01*
X109208847Y-62230860D01*
X108947694Y-62122687D01*
X108670455Y-62067540D01*
X108387785Y-62067540D01*
X108110546Y-62122687D01*
X107849393Y-62230860D01*
X107614361Y-62387903D01*
X107414483Y-62587781D01*
X107257440Y-62822813D01*
X107149267Y-63083966D01*
X107094120Y-63361205D01*
X94727192Y-63361205D01*
X94727192Y-62702540D01*
X94714932Y-62578058D01*
X94678622Y-62458360D01*
X94619657Y-62348046D01*
X94540305Y-62251355D01*
X94443614Y-62172003D01*
X94333300Y-62113038D01*
X94213602Y-62076728D01*
X94089120Y-62064468D01*
X92489120Y-62064468D01*
X92364638Y-62076728D01*
X92244940Y-62113038D01*
X92134626Y-62172003D01*
X92037935Y-62251355D01*
X91958583Y-62348046D01*
X91899618Y-62458360D01*
X91863308Y-62578058D01*
X91851048Y-62702540D01*
X91851048Y-64302540D01*
X91863308Y-64427022D01*
X91899618Y-64546720D01*
X91958583Y-64657034D01*
X92037935Y-64753725D01*
X92134626Y-64833077D01*
X92244940Y-64892042D01*
X92364638Y-64928352D01*
X92373081Y-64929183D01*
X92174483Y-65127781D01*
X92017440Y-65362813D01*
X91909267Y-65623966D01*
X91854120Y-65901205D01*
X91854120Y-66183875D01*
X91909267Y-66461114D01*
X92017440Y-66722267D01*
X92174483Y-66957299D01*
X92374361Y-67157177D01*
X92606879Y-67312540D01*
X92374361Y-67467903D01*
X92174483Y-67667781D01*
X92017440Y-67902813D01*
X91909267Y-68163966D01*
X91854120Y-68441205D01*
X91854120Y-68723875D01*
X91909267Y-69001114D01*
X92017440Y-69262267D01*
X92174483Y-69497299D01*
X92374361Y-69697177D01*
X92606879Y-69852540D01*
X92374361Y-70007903D01*
X92174483Y-70207781D01*
X92017440Y-70442813D01*
X91909267Y-70703966D01*
X91854120Y-70981205D01*
X91854120Y-71263875D01*
X91909267Y-71541114D01*
X92017440Y-71802267D01*
X92174483Y-72037299D01*
X92374361Y-72237177D01*
X92606879Y-72392540D01*
X92374361Y-72547903D01*
X92174483Y-72747781D01*
X92017440Y-72982813D01*
X91909267Y-73243966D01*
X91854120Y-73521205D01*
X91854120Y-73803875D01*
X91909267Y-74081114D01*
X92017440Y-74342267D01*
X92174483Y-74577299D01*
X92374361Y-74777177D01*
X92606879Y-74932540D01*
X92374361Y-75087903D01*
X92174483Y-75287781D01*
X92017440Y-75522813D01*
X91909267Y-75783966D01*
X91854120Y-76061205D01*
X91854120Y-76343875D01*
X91909267Y-76621114D01*
X92017440Y-76882267D01*
X92174483Y-77117299D01*
X92374361Y-77317177D01*
X92606879Y-77472540D01*
X92374361Y-77627903D01*
X92174483Y-77827781D01*
X92017440Y-78062813D01*
X91909267Y-78323966D01*
X91854120Y-78601205D01*
X91854120Y-78883875D01*
X91909267Y-79161114D01*
X92017440Y-79422267D01*
X92174483Y-79657299D01*
X92374361Y-79857177D01*
X92606879Y-80012540D01*
X92374361Y-80167903D01*
X92174483Y-80367781D01*
X92019120Y-80600299D01*
X91863757Y-80367781D01*
X91663879Y-80167903D01*
X91428847Y-80010860D01*
X91167694Y-79902687D01*
X90890455Y-79847540D01*
X90607785Y-79847540D01*
X90330546Y-79902687D01*
X90069393Y-80010860D01*
X89834361Y-80167903D01*
X89634483Y-80367781D01*
X89479120Y-80600299D01*
X89323757Y-80367781D01*
X89123879Y-80167903D01*
X88888847Y-80010860D01*
X88627694Y-79902687D01*
X88350455Y-79847540D01*
X88067785Y-79847540D01*
X87790546Y-79902687D01*
X87529393Y-80010860D01*
X87294361Y-80167903D01*
X87094483Y-80367781D01*
X86937440Y-80602813D01*
X86829267Y-80863966D01*
X86774120Y-81141205D01*
X83814120Y-81141205D01*
X83814120Y-65192540D01*
X86721048Y-65192540D01*
X86721048Y-66892540D01*
X86733308Y-67017022D01*
X86769618Y-67136720D01*
X86828583Y-67247034D01*
X86907935Y-67343725D01*
X87004626Y-67423077D01*
X87114940Y-67482042D01*
X87187500Y-67504053D01*
X87055645Y-67635908D01*
X86893130Y-67879129D01*
X86781188Y-68149382D01*
X86724120Y-68436280D01*
X86724120Y-68728800D01*
X86781188Y-69015698D01*
X86893130Y-69285951D01*
X87055645Y-69529172D01*
X87187500Y-69661027D01*
X87114940Y-69683038D01*
X87004626Y-69742003D01*
X86907935Y-69821355D01*
X86828583Y-69918046D01*
X86769618Y-70028360D01*
X86733308Y-70148058D01*
X86721048Y-70272540D01*
X86721048Y-71972540D01*
X86733308Y-72097022D01*
X86769618Y-72216720D01*
X86828583Y-72327034D01*
X86907935Y-72423725D01*
X87004626Y-72503077D01*
X87114940Y-72562042D01*
X87234638Y-72598352D01*
X87359120Y-72610612D01*
X89059120Y-72610612D01*
X89183602Y-72598352D01*
X89303300Y-72562042D01*
X89413614Y-72503077D01*
X89510305Y-72423725D01*
X89589657Y-72327034D01*
X89648622Y-72216720D01*
X89684932Y-72097022D01*
X89697192Y-71972540D01*
X89697192Y-70272540D01*
X89684932Y-70148058D01*
X89648622Y-70028360D01*
X89589657Y-69918046D01*
X89510305Y-69821355D01*
X89413614Y-69742003D01*
X89303300Y-69683038D01*
X89230740Y-69661027D01*
X89362595Y-69529172D01*
X89525110Y-69285951D01*
X89637052Y-69015698D01*
X89694120Y-68728800D01*
X89694120Y-68436280D01*
X89637052Y-68149382D01*
X89525110Y-67879129D01*
X89362595Y-67635908D01*
X89230740Y-67504053D01*
X89303300Y-67482042D01*
X89413614Y-67423077D01*
X89510305Y-67343725D01*
X89589657Y-67247034D01*
X89648622Y-67136720D01*
X89684932Y-67017022D01*
X89697192Y-66892540D01*
X89697192Y-65192540D01*
X89684932Y-65068058D01*
X89648622Y-64948360D01*
X89589657Y-64838046D01*
X89510305Y-64741355D01*
X89413614Y-64662003D01*
X89303300Y-64603038D01*
X89230740Y-64581027D01*
X89362595Y-64449172D01*
X89525110Y-64205951D01*
X89637052Y-63935698D01*
X89694120Y-63648800D01*
X89694120Y-63356280D01*
X89637052Y-63069382D01*
X89525110Y-62799129D01*
X89362595Y-62555908D01*
X89155752Y-62349065D01*
X88912531Y-62186550D01*
X88642278Y-62074608D01*
X88355380Y-62017540D01*
X88062860Y-62017540D01*
X87775962Y-62074608D01*
X87505709Y-62186550D01*
X87262488Y-62349065D01*
X87055645Y-62555908D01*
X86893130Y-62799129D01*
X86781188Y-63069382D01*
X86724120Y-63356280D01*
X86724120Y-63648800D01*
X86781188Y-63935698D01*
X86893130Y-64205951D01*
X87055645Y-64449172D01*
X87187500Y-64581027D01*
X87114940Y-64603038D01*
X87004626Y-64662003D01*
X86907935Y-64741355D01*
X86828583Y-64838046D01*
X86769618Y-64948360D01*
X86733308Y-65068058D01*
X86721048Y-65192540D01*
X83814120Y-65192540D01*
X83814120Y-61647540D01*
X140864120Y-61647540D01*
X140864121Y-98377540D01*
%TA.AperFunction,Conductor*%
D19*
G36*
X140864121Y-98377540D02*
G01*
X83814120Y-98377540D01*
X83814120Y-97515242D01*
X87396023Y-97515242D01*
X87467606Y-97759211D01*
X87723116Y-97880111D01*
X87997304Y-97948840D01*
X88279632Y-97962757D01*
X88559250Y-97921327D01*
X88825412Y-97826143D01*
X88950634Y-97759211D01*
X89022217Y-97515242D01*
X89936023Y-97515242D01*
X90007606Y-97759211D01*
X90263116Y-97880111D01*
X90537304Y-97948840D01*
X90819632Y-97962757D01*
X91099250Y-97921327D01*
X91365412Y-97826143D01*
X91490634Y-97759211D01*
X91562217Y-97515242D01*
X90749120Y-96702145D01*
X89936023Y-97515242D01*
X89022217Y-97515242D01*
X88209120Y-96702145D01*
X87396023Y-97515242D01*
X83814120Y-97515242D01*
X83814120Y-96593052D01*
X86768903Y-96593052D01*
X86810333Y-96872670D01*
X86905517Y-97138832D01*
X86972449Y-97264054D01*
X87216418Y-97335637D01*
X88029515Y-96522540D01*
X88388725Y-96522540D01*
X89201822Y-97335637D01*
X89445791Y-97264054D01*
X89477091Y-97197904D01*
X89512449Y-97264054D01*
X89756418Y-97335637D01*
X90569515Y-96522540D01*
X89756418Y-95709443D01*
X89512449Y-95781026D01*
X89481149Y-95847176D01*
X89445791Y-95781026D01*
X89201822Y-95709443D01*
X88388725Y-96522540D01*
X88029515Y-96522540D01*
X87216418Y-95709443D01*
X86972449Y-95781026D01*
X86851549Y-96036536D01*
X86782820Y-96310724D01*
X86768903Y-96593052D01*
X83814120Y-96593052D01*
X83814120Y-95529838D01*
X87396023Y-95529838D01*
X88209120Y-96342935D01*
X89022217Y-95529838D01*
X89936023Y-95529838D01*
X90749120Y-96342935D01*
X91562217Y-95529838D01*
X91490634Y-95285869D01*
X91235124Y-95164969D01*
X90960936Y-95096240D01*
X90678608Y-95082323D01*
X90398990Y-95123753D01*
X90132828Y-95218937D01*
X90007606Y-95285869D01*
X89936023Y-95529838D01*
X89022217Y-95529838D01*
X88950634Y-95285869D01*
X88695124Y-95164969D01*
X88420936Y-95096240D01*
X88138608Y-95082323D01*
X87858990Y-95123753D01*
X87592828Y-95218937D01*
X87467606Y-95285869D01*
X87396023Y-95529838D01*
X83814120Y-95529838D01*
X83814120Y-81141205D01*
X86774120Y-81141205D01*
X86774120Y-81423875D01*
X86829267Y-81701114D01*
X86937440Y-81962267D01*
X87094483Y-82197299D01*
X87294361Y-82397177D01*
X87529393Y-82554220D01*
X87790546Y-82662393D01*
X88067785Y-82717540D01*
X88350455Y-82717540D01*
X88627694Y-82662393D01*
X88888847Y-82554220D01*
X89123879Y-82397177D01*
X89323757Y-82197299D01*
X89479120Y-81964781D01*
X89634483Y-82197299D01*
X89834361Y-82397177D01*
X90069393Y-82554220D01*
X90330546Y-82662393D01*
X90607785Y-82717540D01*
X90890455Y-82717540D01*
X91167694Y-82662393D01*
X91428847Y-82554220D01*
X91663879Y-82397177D01*
X91863757Y-82197299D01*
X92019120Y-81964781D01*
X92174483Y-82197299D01*
X92374361Y-82397177D01*
X92606879Y-82552540D01*
X92374361Y-82707903D01*
X92174483Y-82907781D01*
X92017440Y-83142813D01*
X91909267Y-83403966D01*
X91854120Y-83681205D01*
X91854120Y-83963875D01*
X91909267Y-84241114D01*
X92017440Y-84502267D01*
X92174483Y-84737299D01*
X92374361Y-84937177D01*
X92606879Y-85092540D01*
X92374361Y-85247903D01*
X92174483Y-85447781D01*
X92017440Y-85682813D01*
X91909267Y-85943966D01*
X91854120Y-86221205D01*
X91854120Y-86503875D01*
X91909267Y-86781114D01*
X92017440Y-87042267D01*
X92174483Y-87277299D01*
X92374361Y-87477177D01*
X92606879Y-87632540D01*
X92374361Y-87787903D01*
X92174483Y-87987781D01*
X92017440Y-88222813D01*
X91909267Y-88483966D01*
X91854120Y-88761205D01*
X91854120Y-89043875D01*
X91909267Y-89321114D01*
X92017440Y-89582267D01*
X92174483Y-89817299D01*
X92374361Y-90017177D01*
X92606879Y-90172540D01*
X92374361Y-90327903D01*
X92174483Y-90527781D01*
X92017440Y-90762813D01*
X91909267Y-91023966D01*
X91854120Y-91301205D01*
X91854120Y-91583875D01*
X91909267Y-91861114D01*
X92017440Y-92122267D01*
X92174483Y-92357299D01*
X92374361Y-92557177D01*
X92606879Y-92712540D01*
X92374361Y-92867903D01*
X92174483Y-93067781D01*
X92017440Y-93302813D01*
X91909267Y-93563966D01*
X91854120Y-93841205D01*
X91854120Y-94123875D01*
X91909267Y-94401114D01*
X92017440Y-94662267D01*
X92174483Y-94897299D01*
X92374361Y-95097177D01*
X92609393Y-95254220D01*
X92619985Y-95258607D01*
X92433989Y-95370155D01*
X92225601Y-95559126D01*
X92058083Y-95785120D01*
X92025184Y-95854726D01*
X91985791Y-95781026D01*
X91741822Y-95709443D01*
X90928725Y-96522540D01*
X91741822Y-97335637D01*
X91985791Y-97264054D01*
X92022925Y-97185575D01*
X92058083Y-97259960D01*
X92225601Y-97485954D01*
X92433989Y-97674925D01*
X92675239Y-97819610D01*
X92940080Y-97914449D01*
X93162120Y-97793164D01*
X93162120Y-96649540D01*
X93416120Y-96649540D01*
X93416120Y-97793164D01*
X93638160Y-97914449D01*
X93903001Y-97819610D01*
X94144251Y-97674925D01*
X94352639Y-97485954D01*
X94520157Y-97259960D01*
X94640366Y-97005627D01*
X94681024Y-96871579D01*
X94669251Y-96850149D01*
X96775658Y-96850149D01*
X96779529Y-96887822D01*
X96871699Y-97113073D01*
X97006042Y-97316014D01*
X97177395Y-97488847D01*
X97379174Y-97624930D01*
X97603624Y-97719033D01*
X97842120Y-97767540D01*
X98242120Y-97767540D01*
X98242120Y-96659540D01*
X98496120Y-96659540D01*
X98496120Y-97767540D01*
X98896120Y-97767540D01*
X99134616Y-97719033D01*
X99359066Y-97624930D01*
X99560845Y-97488847D01*
X99732198Y-97316014D01*
X99866541Y-97113073D01*
X99958711Y-96887822D01*
X99962582Y-96850149D01*
X99837851Y-96659540D01*
X98496120Y-96659540D01*
X98242120Y-96659540D01*
X96900389Y-96659540D01*
X96775658Y-96850149D01*
X94669251Y-96850149D01*
X94559035Y-96649540D01*
X93416120Y-96649540D01*
X93162120Y-96649540D01*
X93142120Y-96649540D01*
X93142120Y-96395540D01*
X93162120Y-96395540D01*
X93162120Y-96375540D01*
X93416120Y-96375540D01*
X93416120Y-96395540D01*
X94559035Y-96395540D01*
X94658262Y-96214931D01*
X96775658Y-96214931D01*
X96900389Y-96405540D01*
X98242120Y-96405540D01*
X98242120Y-95297540D01*
X98496120Y-95297540D01*
X98496120Y-96405540D01*
X99837851Y-96405540D01*
X99962582Y-96214931D01*
X99958711Y-96177258D01*
X99866541Y-95952007D01*
X99732198Y-95749066D01*
X99560845Y-95576233D01*
X99359066Y-95440150D01*
X99134616Y-95346047D01*
X98896120Y-95297540D01*
X98496120Y-95297540D01*
X98242120Y-95297540D01*
X97842120Y-95297540D01*
X97603624Y-95346047D01*
X97379174Y-95440150D01*
X97177395Y-95576233D01*
X97006042Y-95749066D01*
X96871699Y-95952007D01*
X96779529Y-96177258D01*
X96775658Y-96214931D01*
X94658262Y-96214931D01*
X94681024Y-96173501D01*
X94640366Y-96039453D01*
X94520157Y-95785120D01*
X94352639Y-95559126D01*
X94144251Y-95370155D01*
X93958255Y-95258607D01*
X93968847Y-95254220D01*
X94203879Y-95097177D01*
X94403757Y-94897299D01*
X94560800Y-94662267D01*
X94668973Y-94401114D01*
X94724120Y-94123875D01*
X94724120Y-93992540D01*
X96728145Y-93992540D01*
X96751990Y-94234642D01*
X96822609Y-94467441D01*
X96937287Y-94681989D01*
X97091618Y-94870042D01*
X97279671Y-95024373D01*
X97494219Y-95139051D01*
X97727018Y-95209670D01*
X97908455Y-95227540D01*
X98829785Y-95227540D01*
X99011222Y-95209670D01*
X99244021Y-95139051D01*
X99458569Y-95024373D01*
X99646622Y-94870042D01*
X99800953Y-94681989D01*
X99915631Y-94467441D01*
X99986250Y-94234642D01*
X100010095Y-93992540D01*
X99986250Y-93750438D01*
X99915631Y-93517639D01*
X99800953Y-93303091D01*
X99646622Y-93115038D01*
X99458569Y-92960707D01*
X99244021Y-92846029D01*
X99011222Y-92775410D01*
X98829785Y-92757540D01*
X97908455Y-92757540D01*
X97727018Y-92775410D01*
X97494219Y-92846029D01*
X97279671Y-92960707D01*
X97091618Y-93115038D01*
X96937287Y-93303091D01*
X96822609Y-93517639D01*
X96751990Y-93750438D01*
X96728145Y-93992540D01*
X94724120Y-93992540D01*
X94724120Y-93841205D01*
X94668973Y-93563966D01*
X94560800Y-93302813D01*
X94403757Y-93067781D01*
X94203879Y-92867903D01*
X93971361Y-92712540D01*
X94203879Y-92557177D01*
X94403757Y-92357299D01*
X94560800Y-92122267D01*
X94668973Y-91861114D01*
X94724120Y-91583875D01*
X94724120Y-91452540D01*
X96728145Y-91452540D01*
X96751990Y-91694642D01*
X96822609Y-91927441D01*
X96937287Y-92141989D01*
X97091618Y-92330042D01*
X97279671Y-92484373D01*
X97494219Y-92599051D01*
X97727018Y-92669670D01*
X97908455Y-92687540D01*
X98829785Y-92687540D01*
X99011222Y-92669670D01*
X99244021Y-92599051D01*
X99458569Y-92484373D01*
X99646622Y-92330042D01*
X99800953Y-92141989D01*
X99915631Y-91927441D01*
X99986250Y-91694642D01*
X100010095Y-91452540D01*
X99986250Y-91210438D01*
X99915631Y-90977639D01*
X99800953Y-90763091D01*
X99646622Y-90575038D01*
X99458569Y-90420707D01*
X99244021Y-90306029D01*
X99011222Y-90235410D01*
X98829785Y-90217540D01*
X97908455Y-90217540D01*
X97727018Y-90235410D01*
X97494219Y-90306029D01*
X97279671Y-90420707D01*
X97091618Y-90575038D01*
X96937287Y-90763091D01*
X96822609Y-90977639D01*
X96751990Y-91210438D01*
X96728145Y-91452540D01*
X94724120Y-91452540D01*
X94724120Y-91301205D01*
X94668973Y-91023966D01*
X94560800Y-90762813D01*
X94403757Y-90527781D01*
X94203879Y-90327903D01*
X93971361Y-90172540D01*
X94203879Y-90017177D01*
X94403757Y-89817299D01*
X94560800Y-89582267D01*
X94668973Y-89321114D01*
X94724120Y-89043875D01*
X94724120Y-88912540D01*
X96728145Y-88912540D01*
X96751990Y-89154642D01*
X96822609Y-89387441D01*
X96937287Y-89601989D01*
X97091618Y-89790042D01*
X97279671Y-89944373D01*
X97494219Y-90059051D01*
X97727018Y-90129670D01*
X97908455Y-90147540D01*
X98829785Y-90147540D01*
X99011222Y-90129670D01*
X99244021Y-90059051D01*
X99458569Y-89944373D01*
X99646622Y-89790042D01*
X99800953Y-89601989D01*
X99915631Y-89387441D01*
X99986250Y-89154642D01*
X100010095Y-88912540D01*
X99986250Y-88670438D01*
X99915631Y-88437639D01*
X99800953Y-88223091D01*
X99646622Y-88035038D01*
X99458569Y-87880707D01*
X99244021Y-87766029D01*
X99011222Y-87695410D01*
X98829785Y-87677540D01*
X97908455Y-87677540D01*
X97727018Y-87695410D01*
X97494219Y-87766029D01*
X97279671Y-87880707D01*
X97091618Y-88035038D01*
X96937287Y-88223091D01*
X96822609Y-88437639D01*
X96751990Y-88670438D01*
X96728145Y-88912540D01*
X94724120Y-88912540D01*
X94724120Y-88761205D01*
X94668973Y-88483966D01*
X94560800Y-88222813D01*
X94403757Y-87987781D01*
X94203879Y-87787903D01*
X93971361Y-87632540D01*
X94203879Y-87477177D01*
X94403757Y-87277299D01*
X94560800Y-87042267D01*
X94668973Y-86781114D01*
X94724120Y-86503875D01*
X94724120Y-86372540D01*
X96728145Y-86372540D01*
X96751990Y-86614642D01*
X96822609Y-86847441D01*
X96937287Y-87061989D01*
X97091618Y-87250042D01*
X97279671Y-87404373D01*
X97494219Y-87519051D01*
X97727018Y-87589670D01*
X97908455Y-87607540D01*
X98829785Y-87607540D01*
X99011222Y-87589670D01*
X99244021Y-87519051D01*
X99458569Y-87404373D01*
X99646622Y-87250042D01*
X99800953Y-87061989D01*
X99915631Y-86847441D01*
X99986250Y-86614642D01*
X100010095Y-86372540D01*
X99986250Y-86130438D01*
X99915631Y-85897639D01*
X99800953Y-85683091D01*
X99646622Y-85495038D01*
X99458569Y-85340707D01*
X99244021Y-85226029D01*
X99011222Y-85155410D01*
X98829785Y-85137540D01*
X97908455Y-85137540D01*
X97727018Y-85155410D01*
X97494219Y-85226029D01*
X97279671Y-85340707D01*
X97091618Y-85495038D01*
X96937287Y-85683091D01*
X96822609Y-85897639D01*
X96751990Y-86130438D01*
X96728145Y-86372540D01*
X94724120Y-86372540D01*
X94724120Y-86221205D01*
X94668973Y-85943966D01*
X94560800Y-85682813D01*
X94403757Y-85447781D01*
X94203879Y-85247903D01*
X93971361Y-85092540D01*
X94203879Y-84937177D01*
X94403757Y-84737299D01*
X94560800Y-84502267D01*
X94668973Y-84241114D01*
X94724120Y-83963875D01*
X94724120Y-83832540D01*
X96728145Y-83832540D01*
X96751990Y-84074642D01*
X96822609Y-84307441D01*
X96937287Y-84521989D01*
X97091618Y-84710042D01*
X97279671Y-84864373D01*
X97494219Y-84979051D01*
X97727018Y-85049670D01*
X97908455Y-85067540D01*
X98829785Y-85067540D01*
X99011222Y-85049670D01*
X99244021Y-84979051D01*
X99458569Y-84864373D01*
X99646622Y-84710042D01*
X99800953Y-84521989D01*
X99915631Y-84307441D01*
X99986250Y-84074642D01*
X100010095Y-83832540D01*
X99986250Y-83590438D01*
X99915631Y-83357639D01*
X99800953Y-83143091D01*
X99646622Y-82955038D01*
X99458569Y-82800707D01*
X99244021Y-82686029D01*
X99011222Y-82615410D01*
X98829785Y-82597540D01*
X97908455Y-82597540D01*
X97727018Y-82615410D01*
X97494219Y-82686029D01*
X97279671Y-82800707D01*
X97091618Y-82955038D01*
X96937287Y-83143091D01*
X96822609Y-83357639D01*
X96751990Y-83590438D01*
X96728145Y-83832540D01*
X94724120Y-83832540D01*
X94724120Y-83681205D01*
X94668973Y-83403966D01*
X94560800Y-83142813D01*
X94403757Y-82907781D01*
X94203879Y-82707903D01*
X93971361Y-82552540D01*
X94203879Y-82397177D01*
X94403757Y-82197299D01*
X94560800Y-81962267D01*
X94668973Y-81701114D01*
X94724120Y-81423875D01*
X94724120Y-81292540D01*
X96728145Y-81292540D01*
X96751990Y-81534642D01*
X96822609Y-81767441D01*
X96937287Y-81981989D01*
X97091618Y-82170042D01*
X97279671Y-82324373D01*
X97494219Y-82439051D01*
X97727018Y-82509670D01*
X97908455Y-82527540D01*
X98829785Y-82527540D01*
X99011222Y-82509670D01*
X99244021Y-82439051D01*
X99458569Y-82324373D01*
X99646622Y-82170042D01*
X99800953Y-81981989D01*
X99915631Y-81767441D01*
X99986250Y-81534642D01*
X100010095Y-81292540D01*
X99995190Y-81141205D01*
X107094120Y-81141205D01*
X107094120Y-81423875D01*
X107149267Y-81701114D01*
X107257440Y-81962267D01*
X107414483Y-82197299D01*
X107614361Y-82397177D01*
X107846879Y-82552540D01*
X107614361Y-82707903D01*
X107414483Y-82907781D01*
X107257440Y-83142813D01*
X107149267Y-83403966D01*
X107094120Y-83681205D01*
X107094120Y-83963875D01*
X107149267Y-84241114D01*
X107257440Y-84502267D01*
X107414483Y-84737299D01*
X107614361Y-84937177D01*
X107846879Y-85092540D01*
X107614361Y-85247903D01*
X107414483Y-85447781D01*
X107257440Y-85682813D01*
X107149267Y-85943966D01*
X107094120Y-86221205D01*
X107094120Y-86503875D01*
X107149267Y-86781114D01*
X107257440Y-87042267D01*
X107414483Y-87277299D01*
X107614361Y-87477177D01*
X107846879Y-87632540D01*
X107614361Y-87787903D01*
X107414483Y-87987781D01*
X107257440Y-88222813D01*
X107149267Y-88483966D01*
X107094120Y-88761205D01*
X107094120Y-89043875D01*
X107149267Y-89321114D01*
X107257440Y-89582267D01*
X107414483Y-89817299D01*
X107614361Y-90017177D01*
X107846879Y-90172540D01*
X107614361Y-90327903D01*
X107414483Y-90527781D01*
X107257440Y-90762813D01*
X107149267Y-91023966D01*
X107094120Y-91301205D01*
X107094120Y-91583875D01*
X107149267Y-91861114D01*
X107257440Y-92122267D01*
X107414483Y-92357299D01*
X107614361Y-92557177D01*
X107846879Y-92712540D01*
X107614361Y-92867903D01*
X107414483Y-93067781D01*
X107257440Y-93302813D01*
X107149267Y-93563966D01*
X107094120Y-93841205D01*
X107094120Y-94123875D01*
X107149267Y-94401114D01*
X107257440Y-94662267D01*
X107414483Y-94897299D01*
X107614361Y-95097177D01*
X107846879Y-95252540D01*
X107614361Y-95407903D01*
X107414483Y-95607781D01*
X107257440Y-95842813D01*
X107149267Y-96103966D01*
X107094120Y-96381205D01*
X107094120Y-96663875D01*
X107149267Y-96941114D01*
X107257440Y-97202267D01*
X107414483Y-97437299D01*
X107614361Y-97637177D01*
X107849393Y-97794220D01*
X108110546Y-97902393D01*
X108387785Y-97957540D01*
X108670455Y-97957540D01*
X108947694Y-97902393D01*
X109208847Y-97794220D01*
X109443879Y-97637177D01*
X109643757Y-97437299D01*
X109800800Y-97202267D01*
X109908973Y-96941114D01*
X109964120Y-96663875D01*
X109964120Y-96512540D01*
X134828145Y-96512540D01*
X134851990Y-96754642D01*
X134922609Y-96987441D01*
X135037287Y-97201989D01*
X135191618Y-97390042D01*
X135379671Y-97544373D01*
X135594219Y-97659051D01*
X135827018Y-97729670D01*
X136008455Y-97747540D01*
X136929785Y-97747540D01*
X137111222Y-97729670D01*
X137344021Y-97659051D01*
X137558569Y-97544373D01*
X137746622Y-97390042D01*
X137900953Y-97201989D01*
X138015631Y-96987441D01*
X138086250Y-96754642D01*
X138110095Y-96512540D01*
X138086250Y-96270438D01*
X138015631Y-96037639D01*
X137900953Y-95823091D01*
X137746622Y-95635038D01*
X137558569Y-95480707D01*
X137344021Y-95366029D01*
X137111222Y-95295410D01*
X136929785Y-95277540D01*
X136008455Y-95277540D01*
X135827018Y-95295410D01*
X135594219Y-95366029D01*
X135379671Y-95480707D01*
X135191618Y-95635038D01*
X135037287Y-95823091D01*
X134922609Y-96037639D01*
X134851990Y-96270438D01*
X134828145Y-96512540D01*
X109964120Y-96512540D01*
X109964120Y-96381205D01*
X109908973Y-96103966D01*
X109800800Y-95842813D01*
X109643757Y-95607781D01*
X109443879Y-95407903D01*
X109211361Y-95252540D01*
X109443879Y-95097177D01*
X109643757Y-94897299D01*
X109800800Y-94662267D01*
X109908973Y-94401114D01*
X109964120Y-94123875D01*
X109964120Y-93841205D01*
X109908973Y-93563966D01*
X109800800Y-93302813D01*
X109643757Y-93067781D01*
X109443879Y-92867903D01*
X109211361Y-92712540D01*
X109443879Y-92557177D01*
X109643757Y-92357299D01*
X109800800Y-92122267D01*
X109908973Y-91861114D01*
X109964120Y-91583875D01*
X109964120Y-91301205D01*
X109908973Y-91023966D01*
X109800800Y-90762813D01*
X109643757Y-90527781D01*
X109443879Y-90327903D01*
X109211361Y-90172540D01*
X109443879Y-90017177D01*
X109643757Y-89817299D01*
X109800800Y-89582267D01*
X109908973Y-89321114D01*
X109964120Y-89043875D01*
X109964120Y-88761205D01*
X109908973Y-88483966D01*
X109800800Y-88222813D01*
X109643757Y-87987781D01*
X109443879Y-87787903D01*
X109211361Y-87632540D01*
X109443879Y-87477177D01*
X109643757Y-87277299D01*
X109800800Y-87042267D01*
X109908973Y-86781114D01*
X109964120Y-86503875D01*
X109964120Y-86221205D01*
X109908973Y-85943966D01*
X109800800Y-85682813D01*
X109643757Y-85447781D01*
X109443879Y-85247903D01*
X109211361Y-85092540D01*
X109443879Y-84937177D01*
X109643757Y-84737299D01*
X109747163Y-84582540D01*
X110246319Y-84582540D01*
X113103120Y-87439342D01*
X113103121Y-91659208D01*
X113099444Y-91696540D01*
X113103121Y-91733873D01*
X113114118Y-91845526D01*
X113127300Y-91888982D01*
X113157574Y-91988786D01*
X113228146Y-92120816D01*
X113253733Y-92151993D01*
X113323120Y-92236541D01*
X113352118Y-92260339D01*
X114711048Y-93619270D01*
X114711048Y-94782540D01*
X114723308Y-94907022D01*
X114759618Y-95026720D01*
X114818583Y-95137034D01*
X114897935Y-95233725D01*
X114994626Y-95313077D01*
X115104940Y-95372042D01*
X115224638Y-95408352D01*
X115349120Y-95420612D01*
X116949120Y-95420612D01*
X117073602Y-95408352D01*
X117193300Y-95372042D01*
X117303614Y-95313077D01*
X117400305Y-95233725D01*
X117479657Y-95137034D01*
X117538622Y-95026720D01*
X117574932Y-94907022D01*
X117575763Y-94898579D01*
X117774361Y-95097177D01*
X118009393Y-95254220D01*
X118270546Y-95362393D01*
X118547785Y-95417540D01*
X118830455Y-95417540D01*
X119107694Y-95362393D01*
X119368847Y-95254220D01*
X119603879Y-95097177D01*
X119803757Y-94897299D01*
X119959120Y-94664781D01*
X120114483Y-94897299D01*
X120314361Y-95097177D01*
X120549393Y-95254220D01*
X120810546Y-95362393D01*
X121087785Y-95417540D01*
X121370455Y-95417540D01*
X121647694Y-95362393D01*
X121908847Y-95254220D01*
X122143879Y-95097177D01*
X122343757Y-94897299D01*
X122499120Y-94664781D01*
X122654483Y-94897299D01*
X122854361Y-95097177D01*
X123089393Y-95254220D01*
X123350546Y-95362393D01*
X123627785Y-95417540D01*
X123910455Y-95417540D01*
X124187694Y-95362393D01*
X124448847Y-95254220D01*
X124683879Y-95097177D01*
X124883757Y-94897299D01*
X125040800Y-94662267D01*
X125045187Y-94651675D01*
X125156735Y-94837671D01*
X125345706Y-95046059D01*
X125571700Y-95213577D01*
X125826033Y-95333786D01*
X125960081Y-95374444D01*
X126182120Y-95252455D01*
X126182120Y-94109540D01*
X126436120Y-94109540D01*
X126436120Y-95252455D01*
X126658159Y-95374444D01*
X126792207Y-95333786D01*
X127046540Y-95213577D01*
X127272534Y-95046059D01*
X127461505Y-94837671D01*
X127579120Y-94641558D01*
X127696735Y-94837671D01*
X127885706Y-95046059D01*
X128111700Y-95213577D01*
X128366033Y-95333786D01*
X128500081Y-95374444D01*
X128722120Y-95252455D01*
X128722120Y-94109540D01*
X128976120Y-94109540D01*
X128976120Y-95252455D01*
X129198159Y-95374444D01*
X129332207Y-95333786D01*
X129586540Y-95213577D01*
X129812534Y-95046059D01*
X130001505Y-94837671D01*
X130119120Y-94641558D01*
X130236735Y-94837671D01*
X130425706Y-95046059D01*
X130651700Y-95213577D01*
X130906033Y-95333786D01*
X131040081Y-95374444D01*
X131262120Y-95252455D01*
X131262120Y-94109540D01*
X131516120Y-94109540D01*
X131516120Y-95252455D01*
X131738159Y-95374444D01*
X131872207Y-95333786D01*
X132126540Y-95213577D01*
X132352534Y-95046059D01*
X132541505Y-94837671D01*
X132686190Y-94596421D01*
X132781029Y-94331580D01*
X132659744Y-94109540D01*
X131516120Y-94109540D01*
X131262120Y-94109540D01*
X128976120Y-94109540D01*
X128722120Y-94109540D01*
X126436120Y-94109540D01*
X126182120Y-94109540D01*
X126162120Y-94109540D01*
X126162120Y-93972540D01*
X134828145Y-93972540D01*
X134851990Y-94214642D01*
X134922609Y-94447441D01*
X135037287Y-94661989D01*
X135191618Y-94850042D01*
X135379671Y-95004373D01*
X135594219Y-95119051D01*
X135827018Y-95189670D01*
X136008455Y-95207540D01*
X136929785Y-95207540D01*
X137111222Y-95189670D01*
X137344021Y-95119051D01*
X137558569Y-95004373D01*
X137746622Y-94850042D01*
X137900953Y-94661989D01*
X138015631Y-94447441D01*
X138086250Y-94214642D01*
X138110095Y-93972540D01*
X138086250Y-93730438D01*
X138015631Y-93497639D01*
X137900953Y-93283091D01*
X137746622Y-93095038D01*
X137558569Y-92940707D01*
X137344021Y-92826029D01*
X137111222Y-92755410D01*
X136929785Y-92737540D01*
X136008455Y-92737540D01*
X135827018Y-92755410D01*
X135594219Y-92826029D01*
X135379671Y-92940707D01*
X135191618Y-93095038D01*
X135037287Y-93283091D01*
X134922609Y-93497639D01*
X134851990Y-93730438D01*
X134828145Y-93972540D01*
X126162120Y-93972540D01*
X126162120Y-93855540D01*
X126182120Y-93855540D01*
X126182120Y-92712625D01*
X126436120Y-92712625D01*
X126436120Y-93855540D01*
X128722120Y-93855540D01*
X128722120Y-92712625D01*
X128976120Y-92712625D01*
X128976120Y-93855540D01*
X131262120Y-93855540D01*
X131262120Y-92712625D01*
X131516120Y-92712625D01*
X131516120Y-93855540D01*
X132659744Y-93855540D01*
X132781029Y-93633500D01*
X132686190Y-93368659D01*
X132541505Y-93127409D01*
X132352534Y-92919021D01*
X132126540Y-92751503D01*
X131872207Y-92631294D01*
X131738159Y-92590636D01*
X131516120Y-92712625D01*
X131262120Y-92712625D01*
X131040081Y-92590636D01*
X130906033Y-92631294D01*
X130651700Y-92751503D01*
X130425706Y-92919021D01*
X130236735Y-93127409D01*
X130119120Y-93323522D01*
X130001505Y-93127409D01*
X129812534Y-92919021D01*
X129586540Y-92751503D01*
X129332207Y-92631294D01*
X129198159Y-92590636D01*
X128976120Y-92712625D01*
X128722120Y-92712625D01*
X128500081Y-92590636D01*
X128366033Y-92631294D01*
X128111700Y-92751503D01*
X127885706Y-92919021D01*
X127696735Y-93127409D01*
X127579120Y-93323522D01*
X127461505Y-93127409D01*
X127272534Y-92919021D01*
X127046540Y-92751503D01*
X126792207Y-92631294D01*
X126658159Y-92590636D01*
X126436120Y-92712625D01*
X126182120Y-92712625D01*
X125960081Y-92590636D01*
X125826033Y-92631294D01*
X125571700Y-92751503D01*
X125345706Y-92919021D01*
X125156735Y-93127409D01*
X125045187Y-93313405D01*
X125040800Y-93302813D01*
X124883757Y-93067781D01*
X124683879Y-92867903D01*
X124448847Y-92710860D01*
X124187694Y-92602687D01*
X123910455Y-92547540D01*
X123738922Y-92547540D01*
X124853922Y-91432540D01*
X134828145Y-91432540D01*
X134851990Y-91674642D01*
X134922609Y-91907441D01*
X135037287Y-92121989D01*
X135191618Y-92310042D01*
X135379671Y-92464373D01*
X135594219Y-92579051D01*
X135827018Y-92649670D01*
X136008455Y-92667540D01*
X136929785Y-92667540D01*
X137111222Y-92649670D01*
X137344021Y-92579051D01*
X137558569Y-92464373D01*
X137746622Y-92310042D01*
X137900953Y-92121989D01*
X138015631Y-91907441D01*
X138086250Y-91674642D01*
X138110095Y-91432540D01*
X138086250Y-91190438D01*
X138015631Y-90957639D01*
X137900953Y-90743091D01*
X137746622Y-90555038D01*
X137558569Y-90400707D01*
X137344021Y-90286029D01*
X137111222Y-90215410D01*
X136929785Y-90197540D01*
X136008455Y-90197540D01*
X135827018Y-90215410D01*
X135594219Y-90286029D01*
X135379671Y-90400707D01*
X135191618Y-90555038D01*
X135037287Y-90743091D01*
X134922609Y-90957639D01*
X134851990Y-91190438D01*
X134828145Y-91432540D01*
X124853922Y-91432540D01*
X125405125Y-90881337D01*
X125434122Y-90857540D01*
X125460453Y-90825456D01*
X125529095Y-90741816D01*
X125599667Y-90609786D01*
X125599667Y-90609785D01*
X125643124Y-90466525D01*
X125654121Y-90354872D01*
X125654121Y-90354863D01*
X125657797Y-90317540D01*
X125654121Y-90280217D01*
X125654121Y-88892540D01*
X134828145Y-88892540D01*
X134851990Y-89134642D01*
X134922609Y-89367441D01*
X135037287Y-89581989D01*
X135191618Y-89770042D01*
X135379671Y-89924373D01*
X135594219Y-90039051D01*
X135827018Y-90109670D01*
X136008455Y-90127540D01*
X136929785Y-90127540D01*
X137111222Y-90109670D01*
X137344021Y-90039051D01*
X137558569Y-89924373D01*
X137746622Y-89770042D01*
X137900953Y-89581989D01*
X138015631Y-89367441D01*
X138086250Y-89134642D01*
X138110095Y-88892540D01*
X138086250Y-88650438D01*
X138015631Y-88417639D01*
X137900953Y-88203091D01*
X137746622Y-88015038D01*
X137558569Y-87860707D01*
X137344021Y-87746029D01*
X137111222Y-87675410D01*
X136929785Y-87657540D01*
X136008455Y-87657540D01*
X135827018Y-87675410D01*
X135594219Y-87746029D01*
X135379671Y-87860707D01*
X135191618Y-88015038D01*
X135037287Y-88203091D01*
X134922609Y-88417639D01*
X134851990Y-88650438D01*
X134828145Y-88892540D01*
X125654121Y-88892540D01*
X125654121Y-87644463D01*
X125890546Y-87742393D01*
X126167785Y-87797540D01*
X126450455Y-87797540D01*
X126727694Y-87742393D01*
X126988847Y-87634220D01*
X127223879Y-87477177D01*
X127423757Y-87277299D01*
X127580800Y-87042267D01*
X127585187Y-87031675D01*
X127696735Y-87217671D01*
X127885706Y-87426059D01*
X128111700Y-87593577D01*
X128366033Y-87713786D01*
X128500081Y-87754444D01*
X128722120Y-87632455D01*
X128722120Y-86489540D01*
X128976120Y-86489540D01*
X128976120Y-87632455D01*
X129198159Y-87754444D01*
X129332207Y-87713786D01*
X129586540Y-87593577D01*
X129812534Y-87426059D01*
X130001505Y-87217671D01*
X130119120Y-87021558D01*
X130236735Y-87217671D01*
X130425706Y-87426059D01*
X130651700Y-87593577D01*
X130906033Y-87713786D01*
X131040081Y-87754444D01*
X131262120Y-87632455D01*
X131262120Y-86489540D01*
X131516120Y-86489540D01*
X131516120Y-87632455D01*
X131738159Y-87754444D01*
X131872207Y-87713786D01*
X132126540Y-87593577D01*
X132352534Y-87426059D01*
X132541505Y-87217671D01*
X132686190Y-86976421D01*
X132781029Y-86711580D01*
X132659744Y-86489540D01*
X131516120Y-86489540D01*
X131262120Y-86489540D01*
X128976120Y-86489540D01*
X128722120Y-86489540D01*
X128702120Y-86489540D01*
X128702120Y-86352540D01*
X134828145Y-86352540D01*
X134851990Y-86594642D01*
X134922609Y-86827441D01*
X135037287Y-87041989D01*
X135191618Y-87230042D01*
X135379671Y-87384373D01*
X135594219Y-87499051D01*
X135827018Y-87569670D01*
X136008455Y-87587540D01*
X136929785Y-87587540D01*
X137111222Y-87569670D01*
X137344021Y-87499051D01*
X137558569Y-87384373D01*
X137746622Y-87230042D01*
X137900953Y-87041989D01*
X138015631Y-86827441D01*
X138086250Y-86594642D01*
X138110095Y-86352540D01*
X138086250Y-86110438D01*
X138015631Y-85877639D01*
X137900953Y-85663091D01*
X137746622Y-85475038D01*
X137558569Y-85320707D01*
X137344021Y-85206029D01*
X137111222Y-85135410D01*
X136929785Y-85117540D01*
X136008455Y-85117540D01*
X135827018Y-85135410D01*
X135594219Y-85206029D01*
X135379671Y-85320707D01*
X135191618Y-85475038D01*
X135037287Y-85663091D01*
X134922609Y-85877639D01*
X134851990Y-86110438D01*
X134828145Y-86352540D01*
X128702120Y-86352540D01*
X128702120Y-86235540D01*
X128722120Y-86235540D01*
X128722120Y-85092625D01*
X128976120Y-85092625D01*
X128976120Y-86235540D01*
X131262120Y-86235540D01*
X131262120Y-85092625D01*
X131516120Y-85092625D01*
X131516120Y-86235540D01*
X132659744Y-86235540D01*
X132781029Y-86013500D01*
X132686190Y-85748659D01*
X132541505Y-85507409D01*
X132352534Y-85299021D01*
X132126540Y-85131503D01*
X131872207Y-85011294D01*
X131738159Y-84970636D01*
X131516120Y-85092625D01*
X131262120Y-85092625D01*
X131040081Y-84970636D01*
X130906033Y-85011294D01*
X130651700Y-85131503D01*
X130425706Y-85299021D01*
X130236735Y-85507409D01*
X130119120Y-85703522D01*
X130001505Y-85507409D01*
X129812534Y-85299021D01*
X129586540Y-85131503D01*
X129332207Y-85011294D01*
X129198159Y-84970636D01*
X128976120Y-85092625D01*
X128722120Y-85092625D01*
X128500081Y-84970636D01*
X128366033Y-85011294D01*
X128111700Y-85131503D01*
X127885706Y-85299021D01*
X127696735Y-85507409D01*
X127585187Y-85693405D01*
X127580800Y-85682813D01*
X127423757Y-85447781D01*
X127223879Y-85247903D01*
X126988847Y-85090860D01*
X126727694Y-84982687D01*
X126450455Y-84927540D01*
X126167785Y-84927540D01*
X125890546Y-84982687D01*
X125654121Y-85080617D01*
X125654121Y-83812540D01*
X134828145Y-83812540D01*
X134851990Y-84054642D01*
X134922609Y-84287441D01*
X135037287Y-84501989D01*
X135191618Y-84690042D01*
X135379671Y-84844373D01*
X135594219Y-84959051D01*
X135827018Y-85029670D01*
X136008455Y-85047540D01*
X136929785Y-85047540D01*
X137111222Y-85029670D01*
X137344021Y-84959051D01*
X137558569Y-84844373D01*
X137746622Y-84690042D01*
X137900953Y-84501989D01*
X138015631Y-84287441D01*
X138086250Y-84054642D01*
X138110095Y-83812540D01*
X138086250Y-83570438D01*
X138015631Y-83337639D01*
X137900953Y-83123091D01*
X137746622Y-82935038D01*
X137558569Y-82780707D01*
X137344021Y-82666029D01*
X137111222Y-82595410D01*
X136929785Y-82577540D01*
X136008455Y-82577540D01*
X135827018Y-82595410D01*
X135594219Y-82666029D01*
X135379671Y-82780707D01*
X135191618Y-82935038D01*
X135037287Y-83123091D01*
X134922609Y-83337639D01*
X134851990Y-83570438D01*
X134828145Y-83812540D01*
X125654121Y-83812540D01*
X125654121Y-81272540D01*
X134828145Y-81272540D01*
X134851990Y-81514642D01*
X134922609Y-81747441D01*
X135037287Y-81961989D01*
X135191618Y-82150042D01*
X135379671Y-82304373D01*
X135594219Y-82419051D01*
X135827018Y-82489670D01*
X136008455Y-82507540D01*
X136929785Y-82507540D01*
X137111222Y-82489670D01*
X137344021Y-82419051D01*
X137558569Y-82304373D01*
X137746622Y-82150042D01*
X137900953Y-81961989D01*
X138015631Y-81747441D01*
X138086250Y-81514642D01*
X138110095Y-81272540D01*
X138086250Y-81030438D01*
X138015631Y-80797639D01*
X137900953Y-80583091D01*
X137746622Y-80395038D01*
X137558569Y-80240707D01*
X137344021Y-80126029D01*
X137111222Y-80055410D01*
X136929785Y-80037540D01*
X136008455Y-80037540D01*
X135827018Y-80055410D01*
X135594219Y-80126029D01*
X135379671Y-80240707D01*
X135191618Y-80395038D01*
X135037287Y-80583091D01*
X134922609Y-80797639D01*
X134851990Y-81030438D01*
X134828145Y-81272540D01*
X125654121Y-81272540D01*
X125654121Y-78732540D01*
X134828145Y-78732540D01*
X134851990Y-78974642D01*
X134922609Y-79207441D01*
X135037287Y-79421989D01*
X135191618Y-79610042D01*
X135379671Y-79764373D01*
X135594219Y-79879051D01*
X135827018Y-79949670D01*
X136008455Y-79967540D01*
X136929785Y-79967540D01*
X137111222Y-79949670D01*
X137344021Y-79879051D01*
X137558569Y-79764373D01*
X137746622Y-79610042D01*
X137900953Y-79421989D01*
X138015631Y-79207441D01*
X138086250Y-78974642D01*
X138110095Y-78732540D01*
X138086250Y-78490438D01*
X138015631Y-78257639D01*
X137900953Y-78043091D01*
X137746622Y-77855038D01*
X137558569Y-77700707D01*
X137344021Y-77586029D01*
X137111222Y-77515410D01*
X136929785Y-77497540D01*
X136008455Y-77497540D01*
X135827018Y-77515410D01*
X135594219Y-77586029D01*
X135379671Y-77700707D01*
X135191618Y-77855038D01*
X135037287Y-78043091D01*
X134922609Y-78257639D01*
X134851990Y-78490438D01*
X134828145Y-78732540D01*
X125654121Y-78732540D01*
X125654121Y-77472533D01*
X125826033Y-77553786D01*
X125960081Y-77594444D01*
X126182120Y-77472455D01*
X126182120Y-76329540D01*
X126162120Y-76329540D01*
X126162120Y-76075540D01*
X126182120Y-76075540D01*
X126182120Y-74932625D01*
X126436120Y-74932625D01*
X126436120Y-76075540D01*
X126456120Y-76075540D01*
X126456120Y-76329540D01*
X126436120Y-76329540D01*
X126436120Y-77472455D01*
X126658159Y-77594444D01*
X126792207Y-77553786D01*
X127046540Y-77433577D01*
X127272534Y-77266059D01*
X127461505Y-77057671D01*
X127573053Y-76871675D01*
X127577440Y-76882267D01*
X127734483Y-77117299D01*
X127934361Y-77317177D01*
X128169393Y-77474220D01*
X128430546Y-77582393D01*
X128707785Y-77637540D01*
X128990455Y-77637540D01*
X129267694Y-77582393D01*
X129528847Y-77474220D01*
X129763879Y-77317177D01*
X129963757Y-77117299D01*
X130120800Y-76882267D01*
X130125187Y-76871675D01*
X130236735Y-77057671D01*
X130425706Y-77266059D01*
X130651700Y-77433577D01*
X130906033Y-77553786D01*
X131040081Y-77594444D01*
X131262120Y-77472455D01*
X131262120Y-76329540D01*
X131516120Y-76329540D01*
X131516120Y-77472455D01*
X131738159Y-77594444D01*
X131872207Y-77553786D01*
X132126540Y-77433577D01*
X132352534Y-77266059D01*
X132541505Y-77057671D01*
X132686190Y-76816421D01*
X132781029Y-76551580D01*
X132659744Y-76329540D01*
X131516120Y-76329540D01*
X131262120Y-76329540D01*
X131242120Y-76329540D01*
X131242120Y-76192540D01*
X134828145Y-76192540D01*
X134851990Y-76434642D01*
X134922609Y-76667441D01*
X135037287Y-76881989D01*
X135191618Y-77070042D01*
X135379671Y-77224373D01*
X135594219Y-77339051D01*
X135827018Y-77409670D01*
X136008455Y-77427540D01*
X136929785Y-77427540D01*
X137111222Y-77409670D01*
X137344021Y-77339051D01*
X137558569Y-77224373D01*
X137746622Y-77070042D01*
X137900953Y-76881989D01*
X138015631Y-76667441D01*
X138086250Y-76434642D01*
X138110095Y-76192540D01*
X138086250Y-75950438D01*
X138015631Y-75717639D01*
X137900953Y-75503091D01*
X137746622Y-75315038D01*
X137558569Y-75160707D01*
X137344021Y-75046029D01*
X137111222Y-74975410D01*
X136929785Y-74957540D01*
X136008455Y-74957540D01*
X135827018Y-74975410D01*
X135594219Y-75046029D01*
X135379671Y-75160707D01*
X135191618Y-75315038D01*
X135037287Y-75503091D01*
X134922609Y-75717639D01*
X134851990Y-75950438D01*
X134828145Y-76192540D01*
X131242120Y-76192540D01*
X131242120Y-76075540D01*
X131262120Y-76075540D01*
X131262120Y-74932625D01*
X131516120Y-74932625D01*
X131516120Y-76075540D01*
X132659744Y-76075540D01*
X132781029Y-75853500D01*
X132686190Y-75588659D01*
X132541505Y-75347409D01*
X132352534Y-75139021D01*
X132126540Y-74971503D01*
X131872207Y-74851294D01*
X131738159Y-74810636D01*
X131516120Y-74932625D01*
X131262120Y-74932625D01*
X131040081Y-74810636D01*
X130906033Y-74851294D01*
X130651700Y-74971503D01*
X130425706Y-75139021D01*
X130236735Y-75347409D01*
X130125187Y-75533405D01*
X130120800Y-75522813D01*
X129963757Y-75287781D01*
X129763879Y-75087903D01*
X129528847Y-74930860D01*
X129267694Y-74822687D01*
X128990455Y-74767540D01*
X128707785Y-74767540D01*
X128430546Y-74822687D01*
X128169393Y-74930860D01*
X127934361Y-75087903D01*
X127734483Y-75287781D01*
X127577440Y-75522813D01*
X127573053Y-75533405D01*
X127461505Y-75347409D01*
X127272534Y-75139021D01*
X127046540Y-74971503D01*
X126792207Y-74851294D01*
X126658159Y-74810636D01*
X126436120Y-74932625D01*
X126182120Y-74932625D01*
X125960081Y-74810636D01*
X125826033Y-74851294D01*
X125571700Y-74971503D01*
X125345706Y-75139021D01*
X125156735Y-75347409D01*
X125045187Y-75533405D01*
X125040800Y-75522813D01*
X124883757Y-75287781D01*
X124683879Y-75087903D01*
X124448847Y-74930860D01*
X124187694Y-74822687D01*
X123910455Y-74767540D01*
X123627785Y-74767540D01*
X123350546Y-74822687D01*
X123089393Y-74930860D01*
X122854361Y-75087903D01*
X122654483Y-75287781D01*
X122499120Y-75520299D01*
X122343757Y-75287781D01*
X122143879Y-75087903D01*
X121908847Y-74930860D01*
X121647694Y-74822687D01*
X121370455Y-74767540D01*
X121087785Y-74767540D01*
X120810546Y-74822687D01*
X120549393Y-74930860D01*
X120314361Y-75087903D01*
X120114483Y-75287781D01*
X119959120Y-75520299D01*
X119803757Y-75287781D01*
X119603879Y-75087903D01*
X119368847Y-74930860D01*
X119107694Y-74822687D01*
X118830455Y-74767540D01*
X118547785Y-74767540D01*
X118324119Y-74812031D01*
X118324119Y-73652540D01*
X134828145Y-73652540D01*
X134851990Y-73894642D01*
X134922609Y-74127441D01*
X135037287Y-74341989D01*
X135191618Y-74530042D01*
X135379671Y-74684373D01*
X135594219Y-74799051D01*
X135827018Y-74869670D01*
X136008455Y-74887540D01*
X136929785Y-74887540D01*
X137111222Y-74869670D01*
X137344021Y-74799051D01*
X137558569Y-74684373D01*
X137746622Y-74530042D01*
X137900953Y-74341989D01*
X138015631Y-74127441D01*
X138086250Y-73894642D01*
X138110095Y-73652540D01*
X138086250Y-73410438D01*
X138015631Y-73177639D01*
X137900953Y-72963091D01*
X137746622Y-72775038D01*
X137558569Y-72620707D01*
X137344021Y-72506029D01*
X137111222Y-72435410D01*
X136929785Y-72417540D01*
X136008455Y-72417540D01*
X135827018Y-72435410D01*
X135594219Y-72506029D01*
X135379671Y-72620707D01*
X135191618Y-72775038D01*
X135037287Y-72963091D01*
X134922609Y-73177639D01*
X134851990Y-73410438D01*
X134828145Y-73652540D01*
X118324119Y-73652540D01*
X118324119Y-71112540D01*
X134828145Y-71112540D01*
X134851990Y-71354642D01*
X134922609Y-71587441D01*
X135037287Y-71801989D01*
X135191618Y-71990042D01*
X135379671Y-72144373D01*
X135594219Y-72259051D01*
X135827018Y-72329670D01*
X136008455Y-72347540D01*
X136929785Y-72347540D01*
X137111222Y-72329670D01*
X137344021Y-72259051D01*
X137558569Y-72144373D01*
X137746622Y-71990042D01*
X137900953Y-71801989D01*
X138015631Y-71587441D01*
X138086250Y-71354642D01*
X138110095Y-71112540D01*
X138086250Y-70870438D01*
X138015631Y-70637639D01*
X137900953Y-70423091D01*
X137746622Y-70235038D01*
X137558569Y-70080707D01*
X137344021Y-69966029D01*
X137111222Y-69895410D01*
X136929785Y-69877540D01*
X136008455Y-69877540D01*
X135827018Y-69895410D01*
X135594219Y-69966029D01*
X135379671Y-70080707D01*
X135191618Y-70235038D01*
X135037287Y-70423091D01*
X134922609Y-70637639D01*
X134851990Y-70870438D01*
X134828145Y-71112540D01*
X118324119Y-71112540D01*
X118324119Y-69969603D01*
X118340081Y-69974444D01*
X118562120Y-69852455D01*
X118562120Y-68709540D01*
X118542120Y-68709540D01*
X118542120Y-68455540D01*
X118562120Y-68455540D01*
X118562120Y-67312625D01*
X118816120Y-67312625D01*
X118816120Y-68455540D01*
X118836120Y-68455540D01*
X118836120Y-68709540D01*
X118816120Y-68709540D01*
X118816120Y-69852455D01*
X119038159Y-69974444D01*
X119172207Y-69933786D01*
X119426540Y-69813577D01*
X119652534Y-69646059D01*
X119841505Y-69437671D01*
X119953053Y-69251675D01*
X119957440Y-69262267D01*
X120114483Y-69497299D01*
X120314361Y-69697177D01*
X120549393Y-69854220D01*
X120810546Y-69962393D01*
X121087785Y-70017540D01*
X121370455Y-70017540D01*
X121647694Y-69962393D01*
X121908847Y-69854220D01*
X122143879Y-69697177D01*
X122343757Y-69497299D01*
X122500800Y-69262267D01*
X122505187Y-69251675D01*
X122616735Y-69437671D01*
X122805706Y-69646059D01*
X123031700Y-69813577D01*
X123286033Y-69933786D01*
X123420081Y-69974444D01*
X123642120Y-69852455D01*
X123642120Y-68709540D01*
X123622120Y-68709540D01*
X123622120Y-68455540D01*
X123642120Y-68455540D01*
X123642120Y-67312625D01*
X123896120Y-67312625D01*
X123896120Y-68455540D01*
X123916120Y-68455540D01*
X123916120Y-68709540D01*
X123896120Y-68709540D01*
X123896120Y-69852455D01*
X124118159Y-69974444D01*
X124252207Y-69933786D01*
X124506540Y-69813577D01*
X124732534Y-69646059D01*
X124921505Y-69437671D01*
X125033053Y-69251675D01*
X125037440Y-69262267D01*
X125194483Y-69497299D01*
X125394361Y-69697177D01*
X125629393Y-69854220D01*
X125890546Y-69962393D01*
X126167785Y-70017540D01*
X126450455Y-70017540D01*
X126727694Y-69962393D01*
X126988847Y-69854220D01*
X127223879Y-69697177D01*
X127423757Y-69497299D01*
X127580800Y-69262267D01*
X127585187Y-69251675D01*
X127696735Y-69437671D01*
X127885706Y-69646059D01*
X128111700Y-69813577D01*
X128366033Y-69933786D01*
X128500081Y-69974444D01*
X128722120Y-69852455D01*
X128722120Y-68709540D01*
X128702120Y-68709540D01*
X128702120Y-68455540D01*
X128722120Y-68455540D01*
X128722120Y-67312625D01*
X128976120Y-67312625D01*
X128976120Y-68455540D01*
X128996120Y-68455540D01*
X128996120Y-68709540D01*
X128976120Y-68709540D01*
X128976120Y-69852455D01*
X129198159Y-69974444D01*
X129332207Y-69933786D01*
X129586540Y-69813577D01*
X129812534Y-69646059D01*
X130001505Y-69437671D01*
X130113053Y-69251675D01*
X130117440Y-69262267D01*
X130274483Y-69497299D01*
X130474361Y-69697177D01*
X130709393Y-69854220D01*
X130970546Y-69962393D01*
X131247785Y-70017540D01*
X131530455Y-70017540D01*
X131807694Y-69962393D01*
X132068847Y-69854220D01*
X132303879Y-69697177D01*
X132503757Y-69497299D01*
X132660800Y-69262267D01*
X132768973Y-69001114D01*
X132824120Y-68723875D01*
X132824120Y-68572540D01*
X134828145Y-68572540D01*
X134851990Y-68814642D01*
X134922609Y-69047441D01*
X135037287Y-69261989D01*
X135191618Y-69450042D01*
X135379671Y-69604373D01*
X135594219Y-69719051D01*
X135827018Y-69789670D01*
X136008455Y-69807540D01*
X136929785Y-69807540D01*
X137111222Y-69789670D01*
X137344021Y-69719051D01*
X137558569Y-69604373D01*
X137746622Y-69450042D01*
X137900953Y-69261989D01*
X138015631Y-69047441D01*
X138086250Y-68814642D01*
X138110095Y-68572540D01*
X138086250Y-68330438D01*
X138015631Y-68097639D01*
X137900953Y-67883091D01*
X137746622Y-67695038D01*
X137558569Y-67540707D01*
X137344021Y-67426029D01*
X137111222Y-67355410D01*
X136929785Y-67337540D01*
X136008455Y-67337540D01*
X135827018Y-67355410D01*
X135594219Y-67426029D01*
X135379671Y-67540707D01*
X135191618Y-67695038D01*
X135037287Y-67883091D01*
X134922609Y-68097639D01*
X134851990Y-68330438D01*
X134828145Y-68572540D01*
X132824120Y-68572540D01*
X132824120Y-68441205D01*
X132768973Y-68163966D01*
X132660800Y-67902813D01*
X132503757Y-67667781D01*
X132303879Y-67467903D01*
X132068847Y-67310860D01*
X131807694Y-67202687D01*
X131530455Y-67147540D01*
X131247785Y-67147540D01*
X130970546Y-67202687D01*
X130709393Y-67310860D01*
X130474361Y-67467903D01*
X130274483Y-67667781D01*
X130117440Y-67902813D01*
X130113053Y-67913405D01*
X130001505Y-67727409D01*
X129812534Y-67519021D01*
X129586540Y-67351503D01*
X129332207Y-67231294D01*
X129198159Y-67190636D01*
X128976120Y-67312625D01*
X128722120Y-67312625D01*
X128500081Y-67190636D01*
X128366033Y-67231294D01*
X128111700Y-67351503D01*
X127885706Y-67519021D01*
X127696735Y-67727409D01*
X127585187Y-67913405D01*
X127580800Y-67902813D01*
X127423757Y-67667781D01*
X127223879Y-67467903D01*
X126988847Y-67310860D01*
X126727694Y-67202687D01*
X126450455Y-67147540D01*
X126167785Y-67147540D01*
X125890546Y-67202687D01*
X125629393Y-67310860D01*
X125394361Y-67467903D01*
X125194483Y-67667781D01*
X125037440Y-67902813D01*
X125033053Y-67913405D01*
X124921505Y-67727409D01*
X124732534Y-67519021D01*
X124506540Y-67351503D01*
X124252207Y-67231294D01*
X124118159Y-67190636D01*
X123896120Y-67312625D01*
X123642120Y-67312625D01*
X123420081Y-67190636D01*
X123286033Y-67231294D01*
X123031700Y-67351503D01*
X122805706Y-67519021D01*
X122616735Y-67727409D01*
X122505187Y-67913405D01*
X122500800Y-67902813D01*
X122343757Y-67667781D01*
X122143879Y-67467903D01*
X121908847Y-67310860D01*
X121865226Y-67292792D01*
X121890634Y-67279211D01*
X121962217Y-67035242D01*
X121149120Y-66222145D01*
X120336023Y-67035242D01*
X120407606Y-67279211D01*
X120518342Y-67331608D01*
X120314361Y-67467903D01*
X120114483Y-67667781D01*
X119957440Y-67902813D01*
X119953053Y-67913405D01*
X119841505Y-67727409D01*
X119652534Y-67519021D01*
X119426540Y-67351503D01*
X119172207Y-67231294D01*
X119038159Y-67190636D01*
X118816120Y-67312625D01*
X118562120Y-67312625D01*
X118340081Y-67190636D01*
X118206033Y-67231294D01*
X117951700Y-67351503D01*
X117725706Y-67519021D01*
X117536735Y-67727409D01*
X117425187Y-67913405D01*
X117420800Y-67902813D01*
X117263757Y-67667781D01*
X117063879Y-67467903D01*
X116831361Y-67312540D01*
X117063879Y-67157177D01*
X117263757Y-66957299D01*
X117420800Y-66722267D01*
X117528973Y-66461114D01*
X117584120Y-66183875D01*
X117584120Y-66113052D01*
X119708903Y-66113052D01*
X119750333Y-66392670D01*
X119845517Y-66658832D01*
X119912449Y-66784054D01*
X120156418Y-66855637D01*
X120969515Y-66042540D01*
X121328725Y-66042540D01*
X122141822Y-66855637D01*
X122385791Y-66784054D01*
X122506691Y-66528544D01*
X122575420Y-66254356D01*
X122589337Y-65972028D01*
X122547907Y-65692410D01*
X122452723Y-65426248D01*
X122385791Y-65301026D01*
X122141822Y-65229443D01*
X121328725Y-66042540D01*
X120969515Y-66042540D01*
X120156418Y-65229443D01*
X119912449Y-65301026D01*
X119791549Y-65556536D01*
X119722820Y-65830724D01*
X119708903Y-66113052D01*
X117584120Y-66113052D01*
X117584120Y-65901205D01*
X117528973Y-65623966D01*
X117420800Y-65362813D01*
X117263757Y-65127781D01*
X117185814Y-65049838D01*
X120336023Y-65049838D01*
X121149120Y-65862935D01*
X121962217Y-65049838D01*
X121890634Y-64805869D01*
X121635124Y-64684969D01*
X121360936Y-64616240D01*
X121078608Y-64602323D01*
X120798990Y-64643753D01*
X120532828Y-64738937D01*
X120407606Y-64805869D01*
X120336023Y-65049838D01*
X117185814Y-65049838D01*
X117063879Y-64927903D01*
X116828847Y-64770860D01*
X116567694Y-64662687D01*
X116290455Y-64607540D01*
X116007785Y-64607540D01*
X115730546Y-64662687D01*
X115469393Y-64770860D01*
X115234361Y-64927903D01*
X115034483Y-65127781D01*
X114877440Y-65362813D01*
X114769267Y-65623966D01*
X114714120Y-65901205D01*
X114714120Y-66183875D01*
X114769267Y-66461114D01*
X114877440Y-66722267D01*
X115034483Y-66957299D01*
X115234361Y-67157177D01*
X115466879Y-67312540D01*
X115234361Y-67467903D01*
X115034483Y-67667781D01*
X114877440Y-67902813D01*
X114769267Y-68163966D01*
X114714120Y-68441205D01*
X114714120Y-68723875D01*
X114769267Y-69001114D01*
X114877440Y-69262267D01*
X115034483Y-69497299D01*
X115234361Y-69697177D01*
X115469393Y-69854220D01*
X115730546Y-69962393D01*
X116007785Y-70017540D01*
X116290455Y-70017540D01*
X116325559Y-70010557D01*
X116554119Y-70239118D01*
X116554119Y-74764468D01*
X115349120Y-74764468D01*
X115224638Y-74776728D01*
X115104940Y-74813038D01*
X114994626Y-74872003D01*
X114897935Y-74951355D01*
X114818583Y-75048046D01*
X114759618Y-75158360D01*
X114723308Y-75278058D01*
X114711048Y-75402540D01*
X114711048Y-77002540D01*
X114723308Y-77127022D01*
X114759618Y-77246720D01*
X114818583Y-77357034D01*
X114897935Y-77453725D01*
X114994626Y-77533077D01*
X115104940Y-77592042D01*
X115224638Y-77628352D01*
X115349120Y-77640612D01*
X116554120Y-77640612D01*
X116554120Y-82165961D01*
X116325559Y-82394523D01*
X116290455Y-82387540D01*
X116007785Y-82387540D01*
X115730546Y-82442687D01*
X115469393Y-82550860D01*
X115234361Y-82707903D01*
X115034483Y-82907781D01*
X114877440Y-83142813D01*
X114769267Y-83403966D01*
X114714120Y-83681205D01*
X114714120Y-83963875D01*
X114769267Y-84241114D01*
X114877440Y-84502267D01*
X115034483Y-84737299D01*
X115234361Y-84937177D01*
X115466879Y-85092540D01*
X115234361Y-85247903D01*
X115034483Y-85447781D01*
X114877440Y-85682813D01*
X114769267Y-85943966D01*
X114714120Y-86221205D01*
X114714120Y-86503875D01*
X114769267Y-86781114D01*
X114877440Y-87042267D01*
X115034483Y-87277299D01*
X115234361Y-87477177D01*
X115469393Y-87634220D01*
X115730546Y-87742393D01*
X116007785Y-87797540D01*
X116290455Y-87797540D01*
X116567694Y-87742393D01*
X116828847Y-87634220D01*
X117063879Y-87477177D01*
X117263757Y-87277299D01*
X117419120Y-87044781D01*
X117574483Y-87277299D01*
X117774361Y-87477177D01*
X118009393Y-87634220D01*
X118270546Y-87742393D01*
X118547785Y-87797540D01*
X118830455Y-87797540D01*
X119054122Y-87753049D01*
X119054122Y-92542736D01*
X119013006Y-92583852D01*
X118830455Y-92547540D01*
X118547785Y-92547540D01*
X118270546Y-92602687D01*
X118009393Y-92710860D01*
X117774361Y-92867903D01*
X117575763Y-93066501D01*
X117574932Y-93058058D01*
X117538622Y-92938360D01*
X117479657Y-92828046D01*
X117400305Y-92731355D01*
X117303614Y-92652003D01*
X117193300Y-92593038D01*
X117073602Y-92556728D01*
X116949120Y-92544468D01*
X115785850Y-92544468D01*
X114623120Y-91381739D01*
X114623120Y-87161862D01*
X114626796Y-87124539D01*
X114623120Y-87087216D01*
X114623120Y-87087207D01*
X114612123Y-86975554D01*
X114568666Y-86832293D01*
X114498094Y-86700264D01*
X114403121Y-86584539D01*
X114374124Y-86560742D01*
X111124924Y-83311543D01*
X111101121Y-83282539D01*
X110985396Y-83187566D01*
X110853367Y-83116994D01*
X110710106Y-83073537D01*
X110598453Y-83062540D01*
X110598442Y-83062540D01*
X110561120Y-83058864D01*
X110523798Y-83062540D01*
X109747163Y-83062540D01*
X109643757Y-82907781D01*
X109443879Y-82707903D01*
X109211361Y-82552540D01*
X109443879Y-82397177D01*
X109643757Y-82197299D01*
X109800800Y-81962267D01*
X109908973Y-81701114D01*
X109964120Y-81423875D01*
X109964120Y-81141205D01*
X109908973Y-80863966D01*
X109800800Y-80602813D01*
X109643757Y-80367781D01*
X109443879Y-80167903D01*
X109208847Y-80010860D01*
X109198255Y-80006473D01*
X109384251Y-79894925D01*
X109592639Y-79705954D01*
X109760157Y-79479960D01*
X109880366Y-79225627D01*
X109921024Y-79091579D01*
X109799035Y-78869540D01*
X108656120Y-78869540D01*
X108656120Y-78889540D01*
X108402120Y-78889540D01*
X108402120Y-78869540D01*
X107259205Y-78869540D01*
X107137216Y-79091579D01*
X107177874Y-79225627D01*
X107298083Y-79479960D01*
X107465601Y-79705954D01*
X107673989Y-79894925D01*
X107859985Y-80006473D01*
X107849393Y-80010860D01*
X107614361Y-80167903D01*
X107414483Y-80367781D01*
X107257440Y-80602813D01*
X107149267Y-80863966D01*
X107094120Y-81141205D01*
X99995190Y-81141205D01*
X99986250Y-81050438D01*
X99915631Y-80817639D01*
X99800953Y-80603091D01*
X99646622Y-80415038D01*
X99458569Y-80260707D01*
X99244021Y-80146029D01*
X99011222Y-80075410D01*
X98829785Y-80057540D01*
X97908455Y-80057540D01*
X97727018Y-80075410D01*
X97494219Y-80146029D01*
X97279671Y-80260707D01*
X97091618Y-80415038D01*
X96937287Y-80603091D01*
X96822609Y-80817639D01*
X96751990Y-81050438D01*
X96728145Y-81292540D01*
X94724120Y-81292540D01*
X94724120Y-81141205D01*
X94668973Y-80863966D01*
X94560800Y-80602813D01*
X94403757Y-80367781D01*
X94203879Y-80167903D01*
X93971361Y-80012540D01*
X94203879Y-79857177D01*
X94403757Y-79657299D01*
X94560800Y-79422267D01*
X94668973Y-79161114D01*
X94724120Y-78883875D01*
X94724120Y-78752540D01*
X96728145Y-78752540D01*
X96751990Y-78994642D01*
X96822609Y-79227441D01*
X96937287Y-79441989D01*
X97091618Y-79630042D01*
X97279671Y-79784373D01*
X97494219Y-79899051D01*
X97727018Y-79969670D01*
X97908455Y-79987540D01*
X98829785Y-79987540D01*
X99011222Y-79969670D01*
X99244021Y-79899051D01*
X99458569Y-79784373D01*
X99646622Y-79630042D01*
X99800953Y-79441989D01*
X99915631Y-79227441D01*
X99986250Y-78994642D01*
X100010095Y-78752540D01*
X111968145Y-78752540D01*
X111991990Y-78994642D01*
X112062609Y-79227441D01*
X112177287Y-79441989D01*
X112331618Y-79630042D01*
X112519671Y-79784373D01*
X112734219Y-79899051D01*
X112967018Y-79969670D01*
X113148455Y-79987540D01*
X114069785Y-79987540D01*
X114251222Y-79969670D01*
X114484021Y-79899051D01*
X114698569Y-79784373D01*
X114886622Y-79630042D01*
X115040953Y-79441989D01*
X115155631Y-79227441D01*
X115226250Y-78994642D01*
X115250095Y-78752540D01*
X115226250Y-78510438D01*
X115155631Y-78277639D01*
X115040953Y-78063091D01*
X114886622Y-77875038D01*
X114698569Y-77720707D01*
X114484021Y-77606029D01*
X114251222Y-77535410D01*
X114069785Y-77517540D01*
X113148455Y-77517540D01*
X112967018Y-77535410D01*
X112734219Y-77606029D01*
X112519671Y-77720707D01*
X112331618Y-77875038D01*
X112177287Y-78063091D01*
X112062609Y-78277639D01*
X111991990Y-78510438D01*
X111968145Y-78752540D01*
X100010095Y-78752540D01*
X99986250Y-78510438D01*
X99915631Y-78277639D01*
X99800953Y-78063091D01*
X99646622Y-77875038D01*
X99458569Y-77720707D01*
X99244021Y-77606029D01*
X99011222Y-77535410D01*
X98829785Y-77517540D01*
X97908455Y-77517540D01*
X97727018Y-77535410D01*
X97494219Y-77606029D01*
X97279671Y-77720707D01*
X97091618Y-77875038D01*
X96937287Y-78063091D01*
X96822609Y-78277639D01*
X96751990Y-78510438D01*
X96728145Y-78752540D01*
X94724120Y-78752540D01*
X94724120Y-78601205D01*
X94668973Y-78323966D01*
X94560800Y-78062813D01*
X94403757Y-77827781D01*
X94203879Y-77627903D01*
X93971361Y-77472540D01*
X94203879Y-77317177D01*
X94403757Y-77117299D01*
X94560800Y-76882267D01*
X94668973Y-76621114D01*
X94724120Y-76343875D01*
X94724120Y-76212540D01*
X96728145Y-76212540D01*
X96751990Y-76454642D01*
X96822609Y-76687441D01*
X96937287Y-76901989D01*
X97091618Y-77090042D01*
X97279671Y-77244373D01*
X97494219Y-77359051D01*
X97727018Y-77429670D01*
X97908455Y-77447540D01*
X98829785Y-77447540D01*
X99011222Y-77429670D01*
X99244021Y-77359051D01*
X99458569Y-77244373D01*
X99646622Y-77090042D01*
X99800953Y-76901989D01*
X99915631Y-76687441D01*
X99986250Y-76454642D01*
X100010095Y-76212540D01*
X99986250Y-75970438D01*
X99915631Y-75737639D01*
X99800953Y-75523091D01*
X99646622Y-75335038D01*
X99458569Y-75180707D01*
X99244021Y-75066029D01*
X99011222Y-74995410D01*
X98829785Y-74977540D01*
X97908455Y-74977540D01*
X97727018Y-74995410D01*
X97494219Y-75066029D01*
X97279671Y-75180707D01*
X97091618Y-75335038D01*
X96937287Y-75523091D01*
X96822609Y-75737639D01*
X96751990Y-75970438D01*
X96728145Y-76212540D01*
X94724120Y-76212540D01*
X94724120Y-76061205D01*
X94668973Y-75783966D01*
X94560800Y-75522813D01*
X94403757Y-75287781D01*
X94203879Y-75087903D01*
X93971361Y-74932540D01*
X94203879Y-74777177D01*
X94403757Y-74577299D01*
X94560800Y-74342267D01*
X94668973Y-74081114D01*
X94724120Y-73803875D01*
X94724120Y-73672540D01*
X96728145Y-73672540D01*
X96751990Y-73914642D01*
X96822609Y-74147441D01*
X96937287Y-74361989D01*
X97091618Y-74550042D01*
X97279671Y-74704373D01*
X97494219Y-74819051D01*
X97727018Y-74889670D01*
X97908455Y-74907540D01*
X98829785Y-74907540D01*
X99011222Y-74889670D01*
X99244021Y-74819051D01*
X99458569Y-74704373D01*
X99646622Y-74550042D01*
X99800953Y-74361989D01*
X99915631Y-74147441D01*
X99986250Y-73914642D01*
X100010095Y-73672540D01*
X99986250Y-73430438D01*
X99915631Y-73197639D01*
X99800953Y-72983091D01*
X99646622Y-72795038D01*
X99458569Y-72640707D01*
X99244021Y-72526029D01*
X99011222Y-72455410D01*
X98829785Y-72437540D01*
X97908455Y-72437540D01*
X97727018Y-72455410D01*
X97494219Y-72526029D01*
X97279671Y-72640707D01*
X97091618Y-72795038D01*
X96937287Y-72983091D01*
X96822609Y-73197639D01*
X96751990Y-73430438D01*
X96728145Y-73672540D01*
X94724120Y-73672540D01*
X94724120Y-73521205D01*
X94668973Y-73243966D01*
X94560800Y-72982813D01*
X94403757Y-72747781D01*
X94203879Y-72547903D01*
X93971361Y-72392540D01*
X94203879Y-72237177D01*
X94403757Y-72037299D01*
X94560800Y-71802267D01*
X94668973Y-71541114D01*
X94724120Y-71263875D01*
X94724120Y-71132540D01*
X96728145Y-71132540D01*
X96751990Y-71374642D01*
X96822609Y-71607441D01*
X96937287Y-71821989D01*
X97091618Y-72010042D01*
X97279671Y-72164373D01*
X97494219Y-72279051D01*
X97727018Y-72349670D01*
X97908455Y-72367540D01*
X98829785Y-72367540D01*
X99011222Y-72349670D01*
X99244021Y-72279051D01*
X99458569Y-72164373D01*
X99646622Y-72010042D01*
X99800953Y-71821989D01*
X99915631Y-71607441D01*
X99986250Y-71374642D01*
X100010095Y-71132540D01*
X99986250Y-70890438D01*
X99915631Y-70657639D01*
X99800953Y-70443091D01*
X99646622Y-70255038D01*
X99458569Y-70100707D01*
X99244021Y-69986029D01*
X99011222Y-69915410D01*
X98829785Y-69897540D01*
X97908455Y-69897540D01*
X97727018Y-69915410D01*
X97494219Y-69986029D01*
X97279671Y-70100707D01*
X97091618Y-70255038D01*
X96937287Y-70443091D01*
X96822609Y-70657639D01*
X96751990Y-70890438D01*
X96728145Y-71132540D01*
X94724120Y-71132540D01*
X94724120Y-70981205D01*
X94668973Y-70703966D01*
X94560800Y-70442813D01*
X94403757Y-70207781D01*
X94203879Y-70007903D01*
X93971361Y-69852540D01*
X94203879Y-69697177D01*
X94403757Y-69497299D01*
X94560800Y-69262267D01*
X94668973Y-69001114D01*
X94724120Y-68723875D01*
X94724120Y-68592540D01*
X96728145Y-68592540D01*
X96751990Y-68834642D01*
X96822609Y-69067441D01*
X96937287Y-69281989D01*
X97091618Y-69470042D01*
X97279671Y-69624373D01*
X97494219Y-69739051D01*
X97727018Y-69809670D01*
X97908455Y-69827540D01*
X98829785Y-69827540D01*
X99011222Y-69809670D01*
X99244021Y-69739051D01*
X99458569Y-69624373D01*
X99646622Y-69470042D01*
X99800953Y-69281989D01*
X99915631Y-69067441D01*
X99986250Y-68834642D01*
X100010095Y-68592540D01*
X99986250Y-68350438D01*
X99915631Y-68117639D01*
X99800953Y-67903091D01*
X99646622Y-67715038D01*
X99458569Y-67560707D01*
X99244021Y-67446029D01*
X99011222Y-67375410D01*
X98829785Y-67357540D01*
X97908455Y-67357540D01*
X97727018Y-67375410D01*
X97494219Y-67446029D01*
X97279671Y-67560707D01*
X97091618Y-67715038D01*
X96937287Y-67903091D01*
X96822609Y-68117639D01*
X96751990Y-68350438D01*
X96728145Y-68592540D01*
X94724120Y-68592540D01*
X94724120Y-68441205D01*
X94668973Y-68163966D01*
X94560800Y-67902813D01*
X94403757Y-67667781D01*
X94203879Y-67467903D01*
X93971361Y-67312540D01*
X94203879Y-67157177D01*
X94403757Y-66957299D01*
X94560800Y-66722267D01*
X94668973Y-66461114D01*
X94724120Y-66183875D01*
X94724120Y-65901205D01*
X94668973Y-65623966D01*
X94560800Y-65362813D01*
X94403757Y-65127781D01*
X94205159Y-64929183D01*
X94213602Y-64928352D01*
X94333300Y-64892042D01*
X94443614Y-64833077D01*
X94540305Y-64753725D01*
X94619657Y-64657034D01*
X94678622Y-64546720D01*
X94714932Y-64427022D01*
X94727192Y-64302540D01*
X94727192Y-63361205D01*
X107094120Y-63361205D01*
X107094120Y-63643875D01*
X107149267Y-63921114D01*
X107257440Y-64182267D01*
X107414483Y-64417299D01*
X107614361Y-64617177D01*
X107846879Y-64772540D01*
X107614361Y-64927903D01*
X107414483Y-65127781D01*
X107257440Y-65362813D01*
X107149267Y-65623966D01*
X107094120Y-65901205D01*
X107094120Y-66183875D01*
X107149267Y-66461114D01*
X107257440Y-66722267D01*
X107414483Y-66957299D01*
X107614361Y-67157177D01*
X107846879Y-67312540D01*
X107614361Y-67467903D01*
X107414483Y-67667781D01*
X107257440Y-67902813D01*
X107149267Y-68163966D01*
X107094120Y-68441205D01*
X107094120Y-68723875D01*
X107149267Y-69001114D01*
X107257440Y-69262267D01*
X107414483Y-69497299D01*
X107614361Y-69697177D01*
X107846879Y-69852540D01*
X107614361Y-70007903D01*
X107414483Y-70207781D01*
X107257440Y-70442813D01*
X107149267Y-70703966D01*
X107094120Y-70981205D01*
X107094120Y-71263875D01*
X107149267Y-71541114D01*
X107257440Y-71802267D01*
X107414483Y-72037299D01*
X107614361Y-72237177D01*
X107846879Y-72392540D01*
X107614361Y-72547903D01*
X107414483Y-72747781D01*
X107257440Y-72982813D01*
X107149267Y-73243966D01*
X107094120Y-73521205D01*
X107094120Y-73803875D01*
X107149267Y-74081114D01*
X107257440Y-74342267D01*
X107414483Y-74577299D01*
X107614361Y-74777177D01*
X107846879Y-74932540D01*
X107614361Y-75087903D01*
X107414483Y-75287781D01*
X107257440Y-75522813D01*
X107149267Y-75783966D01*
X107094120Y-76061205D01*
X107094120Y-76343875D01*
X107149267Y-76621114D01*
X107257440Y-76882267D01*
X107414483Y-77117299D01*
X107614361Y-77317177D01*
X107849393Y-77474220D01*
X107859985Y-77478607D01*
X107673989Y-77590155D01*
X107465601Y-77779126D01*
X107298083Y-78005120D01*
X107177874Y-78259453D01*
X107137216Y-78393501D01*
X107259205Y-78615540D01*
X108402120Y-78615540D01*
X108402120Y-78595540D01*
X108656120Y-78595540D01*
X108656120Y-78615540D01*
X109799035Y-78615540D01*
X109921024Y-78393501D01*
X109880366Y-78259453D01*
X109760157Y-78005120D01*
X109592639Y-77779126D01*
X109384251Y-77590155D01*
X109198255Y-77478607D01*
X109208847Y-77474220D01*
X109443879Y-77317177D01*
X109643757Y-77117299D01*
X109800800Y-76882267D01*
X109908973Y-76621114D01*
X109964120Y-76343875D01*
X109964120Y-76061205D01*
X109908973Y-75783966D01*
X109800800Y-75522813D01*
X109643757Y-75287781D01*
X109443879Y-75087903D01*
X109211361Y-74932540D01*
X109443879Y-74777177D01*
X109643757Y-74577299D01*
X109800800Y-74342267D01*
X109908973Y-74081114D01*
X109964120Y-73803875D01*
X109964120Y-73521205D01*
X109908973Y-73243966D01*
X109800800Y-72982813D01*
X109643757Y-72747781D01*
X109443879Y-72547903D01*
X109211361Y-72392540D01*
X109443879Y-72237177D01*
X109643757Y-72037299D01*
X109800800Y-71802267D01*
X109908973Y-71541114D01*
X109964120Y-71263875D01*
X109964120Y-70981205D01*
X109908973Y-70703966D01*
X109800800Y-70442813D01*
X109643757Y-70207781D01*
X109443879Y-70007903D01*
X109211361Y-69852540D01*
X109443879Y-69697177D01*
X109643757Y-69497299D01*
X109800800Y-69262267D01*
X109908973Y-69001114D01*
X109964120Y-68723875D01*
X109964120Y-68441205D01*
X109908973Y-68163966D01*
X109800800Y-67902813D01*
X109643757Y-67667781D01*
X109443879Y-67467903D01*
X109211361Y-67312540D01*
X109443879Y-67157177D01*
X109643757Y-66957299D01*
X109800800Y-66722267D01*
X109908973Y-66461114D01*
X109964120Y-66183875D01*
X109964120Y-65901205D01*
X109908973Y-65623966D01*
X109800800Y-65362813D01*
X109643757Y-65127781D01*
X109443879Y-64927903D01*
X109211361Y-64772540D01*
X109443879Y-64617177D01*
X109643757Y-64417299D01*
X109800800Y-64182267D01*
X109908973Y-63921114D01*
X109964120Y-63643875D01*
X109964120Y-63361205D01*
X109908973Y-63083966D01*
X109800800Y-62822813D01*
X109643757Y-62587781D01*
X109443879Y-62387903D01*
X109208847Y-62230860D01*
X108947694Y-62122687D01*
X108670455Y-62067540D01*
X108387785Y-62067540D01*
X108110546Y-62122687D01*
X107849393Y-62230860D01*
X107614361Y-62387903D01*
X107414483Y-62587781D01*
X107257440Y-62822813D01*
X107149267Y-63083966D01*
X107094120Y-63361205D01*
X94727192Y-63361205D01*
X94727192Y-62702540D01*
X94714932Y-62578058D01*
X94678622Y-62458360D01*
X94619657Y-62348046D01*
X94540305Y-62251355D01*
X94443614Y-62172003D01*
X94333300Y-62113038D01*
X94213602Y-62076728D01*
X94089120Y-62064468D01*
X92489120Y-62064468D01*
X92364638Y-62076728D01*
X92244940Y-62113038D01*
X92134626Y-62172003D01*
X92037935Y-62251355D01*
X91958583Y-62348046D01*
X91899618Y-62458360D01*
X91863308Y-62578058D01*
X91851048Y-62702540D01*
X91851048Y-64302540D01*
X91863308Y-64427022D01*
X91899618Y-64546720D01*
X91958583Y-64657034D01*
X92037935Y-64753725D01*
X92134626Y-64833077D01*
X92244940Y-64892042D01*
X92364638Y-64928352D01*
X92373081Y-64929183D01*
X92174483Y-65127781D01*
X92017440Y-65362813D01*
X91909267Y-65623966D01*
X91854120Y-65901205D01*
X91854120Y-66183875D01*
X91909267Y-66461114D01*
X92017440Y-66722267D01*
X92174483Y-66957299D01*
X92374361Y-67157177D01*
X92606879Y-67312540D01*
X92374361Y-67467903D01*
X92174483Y-67667781D01*
X92017440Y-67902813D01*
X91909267Y-68163966D01*
X91854120Y-68441205D01*
X91854120Y-68723875D01*
X91909267Y-69001114D01*
X92017440Y-69262267D01*
X92174483Y-69497299D01*
X92374361Y-69697177D01*
X92606879Y-69852540D01*
X92374361Y-70007903D01*
X92174483Y-70207781D01*
X92017440Y-70442813D01*
X91909267Y-70703966D01*
X91854120Y-70981205D01*
X91854120Y-71263875D01*
X91909267Y-71541114D01*
X92017440Y-71802267D01*
X92174483Y-72037299D01*
X92374361Y-72237177D01*
X92606879Y-72392540D01*
X92374361Y-72547903D01*
X92174483Y-72747781D01*
X92017440Y-72982813D01*
X91909267Y-73243966D01*
X91854120Y-73521205D01*
X91854120Y-73803875D01*
X91909267Y-74081114D01*
X92017440Y-74342267D01*
X92174483Y-74577299D01*
X92374361Y-74777177D01*
X92606879Y-74932540D01*
X92374361Y-75087903D01*
X92174483Y-75287781D01*
X92017440Y-75522813D01*
X91909267Y-75783966D01*
X91854120Y-76061205D01*
X91854120Y-76343875D01*
X91909267Y-76621114D01*
X92017440Y-76882267D01*
X92174483Y-77117299D01*
X92374361Y-77317177D01*
X92606879Y-77472540D01*
X92374361Y-77627903D01*
X92174483Y-77827781D01*
X92017440Y-78062813D01*
X91909267Y-78323966D01*
X91854120Y-78601205D01*
X91854120Y-78883875D01*
X91909267Y-79161114D01*
X92017440Y-79422267D01*
X92174483Y-79657299D01*
X92374361Y-79857177D01*
X92606879Y-80012540D01*
X92374361Y-80167903D01*
X92174483Y-80367781D01*
X92019120Y-80600299D01*
X91863757Y-80367781D01*
X91663879Y-80167903D01*
X91428847Y-80010860D01*
X91167694Y-79902687D01*
X90890455Y-79847540D01*
X90607785Y-79847540D01*
X90330546Y-79902687D01*
X90069393Y-80010860D01*
X89834361Y-80167903D01*
X89634483Y-80367781D01*
X89479120Y-80600299D01*
X89323757Y-80367781D01*
X89123879Y-80167903D01*
X88888847Y-80010860D01*
X88627694Y-79902687D01*
X88350455Y-79847540D01*
X88067785Y-79847540D01*
X87790546Y-79902687D01*
X87529393Y-80010860D01*
X87294361Y-80167903D01*
X87094483Y-80367781D01*
X86937440Y-80602813D01*
X86829267Y-80863966D01*
X86774120Y-81141205D01*
X83814120Y-81141205D01*
X83814120Y-65192540D01*
X86721048Y-65192540D01*
X86721048Y-66892540D01*
X86733308Y-67017022D01*
X86769618Y-67136720D01*
X86828583Y-67247034D01*
X86907935Y-67343725D01*
X87004626Y-67423077D01*
X87114940Y-67482042D01*
X87187500Y-67504053D01*
X87055645Y-67635908D01*
X86893130Y-67879129D01*
X86781188Y-68149382D01*
X86724120Y-68436280D01*
X86724120Y-68728800D01*
X86781188Y-69015698D01*
X86893130Y-69285951D01*
X87055645Y-69529172D01*
X87187500Y-69661027D01*
X87114940Y-69683038D01*
X87004626Y-69742003D01*
X86907935Y-69821355D01*
X86828583Y-69918046D01*
X86769618Y-70028360D01*
X86733308Y-70148058D01*
X86721048Y-70272540D01*
X86721048Y-71972540D01*
X86733308Y-72097022D01*
X86769618Y-72216720D01*
X86828583Y-72327034D01*
X86907935Y-72423725D01*
X87004626Y-72503077D01*
X87114940Y-72562042D01*
X87234638Y-72598352D01*
X87359120Y-72610612D01*
X89059120Y-72610612D01*
X89183602Y-72598352D01*
X89303300Y-72562042D01*
X89413614Y-72503077D01*
X89510305Y-72423725D01*
X89589657Y-72327034D01*
X89648622Y-72216720D01*
X89684932Y-72097022D01*
X89697192Y-71972540D01*
X89697192Y-70272540D01*
X89684932Y-70148058D01*
X89648622Y-70028360D01*
X89589657Y-69918046D01*
X89510305Y-69821355D01*
X89413614Y-69742003D01*
X89303300Y-69683038D01*
X89230740Y-69661027D01*
X89362595Y-69529172D01*
X89525110Y-69285951D01*
X89637052Y-69015698D01*
X89694120Y-68728800D01*
X89694120Y-68436280D01*
X89637052Y-68149382D01*
X89525110Y-67879129D01*
X89362595Y-67635908D01*
X89230740Y-67504053D01*
X89303300Y-67482042D01*
X89413614Y-67423077D01*
X89510305Y-67343725D01*
X89589657Y-67247034D01*
X89648622Y-67136720D01*
X89684932Y-67017022D01*
X89697192Y-66892540D01*
X89697192Y-65192540D01*
X89684932Y-65068058D01*
X89648622Y-64948360D01*
X89589657Y-64838046D01*
X89510305Y-64741355D01*
X89413614Y-64662003D01*
X89303300Y-64603038D01*
X89230740Y-64581027D01*
X89362595Y-64449172D01*
X89525110Y-64205951D01*
X89637052Y-63935698D01*
X89694120Y-63648800D01*
X89694120Y-63356280D01*
X89637052Y-63069382D01*
X89525110Y-62799129D01*
X89362595Y-62555908D01*
X89155752Y-62349065D01*
X88912531Y-62186550D01*
X88642278Y-62074608D01*
X88355380Y-62017540D01*
X88062860Y-62017540D01*
X87775962Y-62074608D01*
X87505709Y-62186550D01*
X87262488Y-62349065D01*
X87055645Y-62555908D01*
X86893130Y-62799129D01*
X86781188Y-63069382D01*
X86724120Y-63356280D01*
X86724120Y-63648800D01*
X86781188Y-63935698D01*
X86893130Y-64205951D01*
X87055645Y-64449172D01*
X87187500Y-64581027D01*
X87114940Y-64603038D01*
X87004626Y-64662003D01*
X86907935Y-64741355D01*
X86828583Y-64838046D01*
X86769618Y-64948360D01*
X86733308Y-65068058D01*
X86721048Y-65192540D01*
X83814120Y-65192540D01*
X83814120Y-61647540D01*
X140864120Y-61647540D01*
X140864121Y-98377540D01*
G37*
%TD.AperFunction*%
D18*
X122654483Y-77117299D02*
X122854361Y-77317177D01*
X123089393Y-77474220D01*
X123350546Y-77582393D01*
X123627785Y-77637540D01*
X123910455Y-77637540D01*
X124093006Y-77601228D01*
X124134122Y-77642344D01*
X124134121Y-84975478D01*
X124118159Y-84970636D01*
X123896120Y-85092625D01*
X123896120Y-86235540D01*
X123916120Y-86235540D01*
X123916120Y-86489540D01*
X123896120Y-86489540D01*
X123896120Y-87632455D01*
X124118159Y-87754444D01*
X124134121Y-87749603D01*
X124134121Y-90002737D01*
X121553007Y-92583852D01*
X121370455Y-92547540D01*
X121087785Y-92547540D01*
X120810546Y-92602687D01*
X120574121Y-92700617D01*
X120574121Y-87632533D01*
X120746033Y-87713786D01*
X120880081Y-87754444D01*
X121102120Y-87632455D01*
X121102120Y-86489540D01*
X121356120Y-86489540D01*
X121356120Y-87632455D01*
X121578159Y-87754444D01*
X121712207Y-87713786D01*
X121966540Y-87593577D01*
X122192534Y-87426059D01*
X122381505Y-87217671D01*
X122499120Y-87021558D01*
X122616735Y-87217671D01*
X122805706Y-87426059D01*
X123031700Y-87593577D01*
X123286033Y-87713786D01*
X123420081Y-87754444D01*
X123642120Y-87632455D01*
X123642120Y-86489540D01*
X121356120Y-86489540D01*
X121102120Y-86489540D01*
X121082120Y-86489540D01*
X121082120Y-86235540D01*
X121102120Y-86235540D01*
X121102120Y-86215540D01*
X121356120Y-86215540D01*
X121356120Y-86235540D01*
X123642120Y-86235540D01*
X123642120Y-85092625D01*
X123420081Y-84970636D01*
X123286033Y-85011294D01*
X123031700Y-85131503D01*
X122805706Y-85299021D01*
X122616735Y-85507409D01*
X122499120Y-85703522D01*
X122381505Y-85507409D01*
X122192534Y-85299021D01*
X121966540Y-85131503D01*
X121854477Y-85078537D01*
X121890634Y-85059211D01*
X121962217Y-84815242D01*
X121149120Y-84002145D01*
X121134978Y-84016288D01*
X120955373Y-83836683D01*
X120969515Y-83822540D01*
X121328725Y-83822540D01*
X122141822Y-84635637D01*
X122385791Y-84564054D01*
X122506691Y-84308544D01*
X122575420Y-84034356D01*
X122589337Y-83752028D01*
X122547907Y-83472410D01*
X122452723Y-83206248D01*
X122385791Y-83081026D01*
X122141822Y-83009443D01*
X121328725Y-83822540D01*
X120969515Y-83822540D01*
X120955373Y-83808398D01*
X121134978Y-83628793D01*
X121149120Y-83642935D01*
X121962217Y-82829838D01*
X121890634Y-82585869D01*
X121635124Y-82464969D01*
X121360936Y-82396240D01*
X121078608Y-82382323D01*
X120798990Y-82423753D01*
X120574121Y-82504170D01*
X120574121Y-77484463D01*
X120810546Y-77582393D01*
X121087785Y-77637540D01*
X121370455Y-77637540D01*
X121647694Y-77582393D01*
X121908847Y-77474220D01*
X122143879Y-77317177D01*
X122343757Y-77117299D01*
X122499120Y-76884781D01*
X122654483Y-77117299D01*
%TA.AperFunction,Conductor*%
D19*
G36*
X122654483Y-77117299D02*
G01*
X122854361Y-77317177D01*
X123089393Y-77474220D01*
X123350546Y-77582393D01*
X123627785Y-77637540D01*
X123910455Y-77637540D01*
X124093006Y-77601228D01*
X124134122Y-77642344D01*
X124134121Y-84975478D01*
X124118159Y-84970636D01*
X123896120Y-85092625D01*
X123896120Y-86235540D01*
X123916120Y-86235540D01*
X123916120Y-86489540D01*
X123896120Y-86489540D01*
X123896120Y-87632455D01*
X124118159Y-87754444D01*
X124134121Y-87749603D01*
X124134121Y-90002737D01*
X121553007Y-92583852D01*
X121370455Y-92547540D01*
X121087785Y-92547540D01*
X120810546Y-92602687D01*
X120574121Y-92700617D01*
X120574121Y-87632533D01*
X120746033Y-87713786D01*
X120880081Y-87754444D01*
X121102120Y-87632455D01*
X121102120Y-86489540D01*
X121356120Y-86489540D01*
X121356120Y-87632455D01*
X121578159Y-87754444D01*
X121712207Y-87713786D01*
X121966540Y-87593577D01*
X122192534Y-87426059D01*
X122381505Y-87217671D01*
X122499120Y-87021558D01*
X122616735Y-87217671D01*
X122805706Y-87426059D01*
X123031700Y-87593577D01*
X123286033Y-87713786D01*
X123420081Y-87754444D01*
X123642120Y-87632455D01*
X123642120Y-86489540D01*
X121356120Y-86489540D01*
X121102120Y-86489540D01*
X121082120Y-86489540D01*
X121082120Y-86235540D01*
X121102120Y-86235540D01*
X121102120Y-86215540D01*
X121356120Y-86215540D01*
X121356120Y-86235540D01*
X123642120Y-86235540D01*
X123642120Y-85092625D01*
X123420081Y-84970636D01*
X123286033Y-85011294D01*
X123031700Y-85131503D01*
X122805706Y-85299021D01*
X122616735Y-85507409D01*
X122499120Y-85703522D01*
X122381505Y-85507409D01*
X122192534Y-85299021D01*
X121966540Y-85131503D01*
X121854477Y-85078537D01*
X121890634Y-85059211D01*
X121962217Y-84815242D01*
X121149120Y-84002145D01*
X121134978Y-84016288D01*
X120955373Y-83836683D01*
X120969515Y-83822540D01*
X121328725Y-83822540D01*
X122141822Y-84635637D01*
X122385791Y-84564054D01*
X122506691Y-84308544D01*
X122575420Y-84034356D01*
X122589337Y-83752028D01*
X122547907Y-83472410D01*
X122452723Y-83206248D01*
X122385791Y-83081026D01*
X122141822Y-83009443D01*
X121328725Y-83822540D01*
X120969515Y-83822540D01*
X120955373Y-83808398D01*
X121134978Y-83628793D01*
X121149120Y-83642935D01*
X121962217Y-82829838D01*
X121890634Y-82585869D01*
X121635124Y-82464969D01*
X121360936Y-82396240D01*
X121078608Y-82382323D01*
X120798990Y-82423753D01*
X120574121Y-82504170D01*
X120574121Y-77484463D01*
X120810546Y-77582393D01*
X121087785Y-77637540D01*
X121370455Y-77637540D01*
X121647694Y-77582393D01*
X121908847Y-77474220D01*
X122143879Y-77317177D01*
X122343757Y-77117299D01*
X122499120Y-76884781D01*
X122654483Y-77117299D01*
G37*
%TD.AperFunction*%
%TD*%
M02*
