%TF.GenerationSoftware,KiCad,Pcbnew,(5.1.9)-1*%
%TF.CreationDate,2021-07-20T08:15:42+01:00*%
%TF.ProjectId,romboard,726f6d62-6f61-4726-942e-6b696361645f,rev?*%
%TF.SameCoordinates,Original*%
%TF.FileFunction,Legend,Bot*%
%TF.FilePolarity,Positive*%
%FSLAX46Y46*%
G04 Gerber Fmt 4.6, Leading zero omitted, Abs format (unit mm)*
G04 Created by KiCad (PCBNEW (5.1.9)-1) date 2021-07-20 08:15:42*
%MOMM*%
%LPD*%
G01*
G04 APERTURE LIST*
%ADD10C,0.120000*%
%ADD11C,0.150000*%
G04 APERTURE END LIST*
D10*
%TO.C,U4*%
X115139120Y-77962540D02*
X115139120Y-79512540D01*
X112239120Y-77962540D02*
X112239120Y-79512540D01*
X115139120Y-77962540D02*
X112239120Y-77962540D01*
X115139120Y-79512540D02*
X112239120Y-79512540D01*
X96939120Y-67512540D02*
X99639120Y-67512540D01*
X96889120Y-97662540D02*
X96939120Y-67512540D01*
X99639120Y-97662540D02*
X96889120Y-97662540D01*
X99639120Y-67512540D02*
X99639120Y-97662540D01*
%TO.C,U3*%
X135199120Y-67492540D02*
X137949120Y-67492540D01*
X135149120Y-97592540D02*
X135199120Y-67492540D01*
X137949120Y-97592540D02*
X135149120Y-97592540D01*
X137949120Y-67492540D02*
X137949120Y-97592540D01*
%TO.C,U4*%
D11*
X95341500Y-94850635D02*
X96151024Y-94850635D01*
X96246262Y-94898254D01*
X96293881Y-94945873D01*
X96341500Y-95041111D01*
X96341500Y-95231587D01*
X96293881Y-95326825D01*
X96246262Y-95374444D01*
X96151024Y-95422063D01*
X95341500Y-95422063D01*
X95674834Y-96326825D02*
X96341500Y-96326825D01*
X95293881Y-96088730D02*
X96008167Y-95850635D01*
X96008167Y-96469682D01*
%TO.C,U3*%
X138351500Y-94780635D02*
X139161024Y-94780635D01*
X139256262Y-94828254D01*
X139303881Y-94875873D01*
X139351500Y-94971111D01*
X139351500Y-95161587D01*
X139303881Y-95256825D01*
X139256262Y-95304444D01*
X139161024Y-95352063D01*
X138351500Y-95352063D01*
X138351500Y-95733016D02*
X138351500Y-96352063D01*
X138732453Y-96018730D01*
X138732453Y-96161587D01*
X138780072Y-96256825D01*
X138827691Y-96304444D01*
X138922929Y-96352063D01*
X139161024Y-96352063D01*
X139256262Y-96304444D01*
X139303881Y-96256825D01*
X139351500Y-96161587D01*
X139351500Y-95875873D01*
X139303881Y-95780635D01*
X139256262Y-95733016D01*
%TD*%
M02*
