%TF.GenerationSoftware,KiCad,Pcbnew,(5.1.9)-1*%
%TF.CreationDate,2021-07-20T08:15:42+01:00*%
%TF.ProjectId,romboard,726f6d62-6f61-4726-942e-6b696361645f,rev?*%
%TF.SameCoordinates,Original*%
%TF.FileFunction,Soldermask,Top*%
%TF.FilePolarity,Negative*%
%FSLAX46Y46*%
G04 Gerber Fmt 4.6, Leading zero omitted, Abs format (unit mm)*
G04 Created by KiCad (PCBNEW (5.1.9)-1) date 2021-07-20 08:15:42*
%MOMM*%
%LPD*%
G01*
G04 APERTURE LIST*
%ADD10C,1.600000*%
%ADD11O,1.600000X1.600000*%
%ADD12R,1.600000X1.600000*%
%ADD13O,2.000000X1.200000*%
%ADD14O,1.700000X1.700000*%
%ADD15R,1.700000X1.700000*%
G04 APERTURE END LIST*
D10*
%TO.C,C2*%
X121149120Y-83822540D03*
X116149120Y-83822540D03*
%TD*%
%TO.C,C1*%
X121149120Y-66042540D03*
X116149120Y-66042540D03*
%TD*%
D11*
%TO.C,U5*%
X108529120Y-63502540D03*
X93289120Y-96522540D03*
X108529120Y-66042540D03*
X93289120Y-93982540D03*
X108529120Y-68582540D03*
X93289120Y-91442540D03*
X108529120Y-71122540D03*
X93289120Y-88902540D03*
X108529120Y-73662540D03*
X93289120Y-86362540D03*
X108529120Y-76202540D03*
X93289120Y-83822540D03*
X108529120Y-78742540D03*
X93289120Y-81282540D03*
X108529120Y-81282540D03*
X93289120Y-78742540D03*
X108529120Y-83822540D03*
X93289120Y-76202540D03*
X108529120Y-86362540D03*
X93289120Y-73662540D03*
X108529120Y-88902540D03*
X93289120Y-71122540D03*
X108529120Y-91442540D03*
X93289120Y-68582540D03*
X108529120Y-93982540D03*
X93289120Y-66042540D03*
X108529120Y-96522540D03*
D12*
X93289120Y-63502540D03*
%TD*%
D13*
%TO.C,U4*%
X98369120Y-96532540D03*
X98369120Y-93992540D03*
X98369120Y-91452540D03*
X98369120Y-88912540D03*
X98369120Y-86372540D03*
X98369120Y-83832540D03*
X98369120Y-81292540D03*
X98369120Y-78752540D03*
X113609120Y-78752540D03*
X98369120Y-76212540D03*
X98369120Y-73672540D03*
X98369120Y-71132540D03*
X98369120Y-68592540D03*
%TD*%
%TO.C,U3*%
X136469120Y-96512540D03*
X136469120Y-93972540D03*
X136469120Y-91432540D03*
X136469120Y-88892540D03*
X136469120Y-86352540D03*
X136469120Y-83812540D03*
X136469120Y-81272540D03*
X136469120Y-78732540D03*
X136469120Y-76192540D03*
X136469120Y-73652540D03*
X136469120Y-71112540D03*
X136469120Y-68572540D03*
%TD*%
D11*
%TO.C,U2*%
X116149120Y-86362540D03*
X131389120Y-93982540D03*
X118689120Y-86362540D03*
X128849120Y-93982540D03*
X121229120Y-86362540D03*
X126309120Y-93982540D03*
X123769120Y-86362540D03*
X123769120Y-93982540D03*
X126309120Y-86362540D03*
X121229120Y-93982540D03*
X128849120Y-86362540D03*
X118689120Y-93982540D03*
X131389120Y-86362540D03*
D12*
X116149120Y-93982540D03*
%TD*%
D11*
%TO.C,U1*%
X116149120Y-68582540D03*
X131389120Y-76202540D03*
X118689120Y-68582540D03*
X128849120Y-76202540D03*
X121229120Y-68582540D03*
X126309120Y-76202540D03*
X123769120Y-68582540D03*
X123769120Y-76202540D03*
X126309120Y-68582540D03*
X121229120Y-76202540D03*
X128849120Y-68582540D03*
X118689120Y-76202540D03*
X131389120Y-68582540D03*
D12*
X116149120Y-76202540D03*
%TD*%
D11*
%TO.C,R2*%
X88209120Y-81282540D03*
D10*
X88209120Y-96522540D03*
%TD*%
D11*
%TO.C,R1*%
X90749120Y-81282540D03*
D10*
X90749120Y-96522540D03*
%TD*%
D14*
%TO.C,A15*%
X88209120Y-63502540D03*
D15*
X88209120Y-66042540D03*
%TD*%
D14*
%TO.C,A14*%
X88209120Y-68582540D03*
D15*
X88209120Y-71122540D03*
%TD*%
M02*
