%TF.GenerationSoftware,KiCad,Pcbnew,(5.1.9)-1*%
%TF.CreationDate,2021-07-20T08:15:42+01:00*%
%TF.ProjectId,romboard,726f6d62-6f61-4726-942e-6b696361645f,rev?*%
%TF.SameCoordinates,Original*%
%TF.FileFunction,Copper,L1,Top*%
%TF.FilePolarity,Positive*%
%FSLAX46Y46*%
G04 Gerber Fmt 4.6, Leading zero omitted, Abs format (unit mm)*
G04 Created by KiCad (PCBNEW (5.1.9)-1) date 2021-07-20 08:15:42*
%MOMM*%
%LPD*%
G01*
G04 APERTURE LIST*
%TA.AperFunction,ComponentPad*%
%ADD10C,1.600000*%
%TD*%
%TA.AperFunction,ComponentPad*%
%ADD11O,1.600000X1.600000*%
%TD*%
%TA.AperFunction,ComponentPad*%
%ADD12R,1.600000X1.600000*%
%TD*%
%TA.AperFunction,ComponentPad*%
%ADD13O,2.000000X1.200000*%
%TD*%
%TA.AperFunction,ComponentPad*%
%ADD14O,1.700000X1.700000*%
%TD*%
%TA.AperFunction,ComponentPad*%
%ADD15R,1.700000X1.700000*%
%TD*%
%TA.AperFunction,Conductor*%
%ADD16C,0.250000*%
%TD*%
%TA.AperFunction,Conductor*%
%ADD17C,0.500000*%
%TD*%
%TA.AperFunction,Conductor*%
%ADD18C,0.254000*%
%TD*%
%TA.AperFunction,Conductor*%
%ADD19C,0.100000*%
%TD*%
G04 APERTURE END LIST*
D10*
%TO.P,C2,2*%
%TO.N,GND*%
X121149120Y-83822540D03*
%TO.P,C2,1*%
%TO.N,VCC*%
X116149120Y-83822540D03*
%TD*%
%TO.P,C1,2*%
%TO.N,GND*%
X121149120Y-66042540D03*
%TO.P,C1,1*%
%TO.N,VCC*%
X116149120Y-66042540D03*
%TD*%
D11*
%TO.P,U5,28*%
%TO.N,VCC*%
X108529120Y-63502540D03*
%TO.P,U5,14*%
%TO.N,GND*%
X93289120Y-96522540D03*
%TO.P,U5,27*%
%TO.N,Net-(J1-Pad2)*%
X108529120Y-66042540D03*
%TO.P,U5,13*%
%TO.N,/D2*%
X93289120Y-93982540D03*
%TO.P,U5,26*%
%TO.N,Net-(U1-Pad4)*%
X108529120Y-68582540D03*
%TO.P,U5,12*%
%TO.N,/D1*%
X93289120Y-91442540D03*
%TO.P,U5,25*%
%TO.N,/A8*%
X108529120Y-71122540D03*
%TO.P,U5,11*%
%TO.N,/D0*%
X93289120Y-88902540D03*
%TO.P,U5,24*%
%TO.N,/A9*%
X108529120Y-73662540D03*
%TO.P,U5,10*%
%TO.N,/A0*%
X93289120Y-86362540D03*
%TO.P,U5,23*%
%TO.N,/A11*%
X108529120Y-76202540D03*
%TO.P,U5,9*%
%TO.N,/A1*%
X93289120Y-83822540D03*
%TO.P,U5,22*%
%TO.N,GND*%
X108529120Y-78742540D03*
%TO.P,U5,8*%
%TO.N,/A2*%
X93289120Y-81282540D03*
%TO.P,U5,21*%
%TO.N,/A10*%
X108529120Y-81282540D03*
%TO.P,U5,7*%
%TO.N,/A3*%
X93289120Y-78742540D03*
%TO.P,U5,20*%
%TO.N,Net-(U2-Pad1)*%
X108529120Y-83822540D03*
%TO.P,U5,6*%
%TO.N,/A4*%
X93289120Y-76202540D03*
%TO.P,U5,19*%
%TO.N,/D7*%
X108529120Y-86362540D03*
%TO.P,U5,5*%
%TO.N,/A5*%
X93289120Y-73662540D03*
%TO.P,U5,18*%
%TO.N,/D6*%
X108529120Y-88902540D03*
%TO.P,U5,4*%
%TO.N,/A6*%
X93289120Y-71122540D03*
%TO.P,U5,17*%
%TO.N,/D5*%
X108529120Y-91442540D03*
%TO.P,U5,3*%
%TO.N,/A7*%
X93289120Y-68582540D03*
%TO.P,U5,16*%
%TO.N,/D4*%
X108529120Y-93982540D03*
%TO.P,U5,2*%
%TO.N,/A12*%
X93289120Y-66042540D03*
%TO.P,U5,15*%
%TO.N,/D3*%
X108529120Y-96522540D03*
D12*
%TO.P,U5,1*%
%TO.N,Net-(J2-Pad2)*%
X93289120Y-63502540D03*
%TD*%
D13*
%TO.P,U4,12*%
%TO.N,GND*%
X98369120Y-96532540D03*
%TO.P,U4,11*%
%TO.N,/D2*%
X98369120Y-93992540D03*
%TO.P,U4,10*%
%TO.N,/D1*%
X98369120Y-91452540D03*
%TO.P,U4,9*%
%TO.N,/D0*%
X98369120Y-88912540D03*
%TO.P,U4,8*%
%TO.N,/A0*%
X98369120Y-86372540D03*
%TO.P,U4,7*%
%TO.N,/A1*%
X98369120Y-83832540D03*
%TO.P,U4,6*%
%TO.N,/A2*%
X98369120Y-81292540D03*
%TO.P,U4,5*%
%TO.N,/A3*%
X98369120Y-78752540D03*
%TO.P,U4,20*%
%TO.N,Net-(U1-Pad1)*%
X113609120Y-78752540D03*
%TO.P,U4,4*%
%TO.N,/A4*%
X98369120Y-76212540D03*
%TO.P,U4,3*%
%TO.N,/A5*%
X98369120Y-73672540D03*
%TO.P,U4,2*%
%TO.N,/A6*%
X98369120Y-71132540D03*
%TO.P,U4,1*%
%TO.N,/A7*%
X98369120Y-68592540D03*
%TD*%
%TO.P,U3,13*%
%TO.N,/D3*%
X136469120Y-96512540D03*
%TO.P,U3,14*%
%TO.N,/D4*%
X136469120Y-93972540D03*
%TO.P,U3,15*%
%TO.N,/D5*%
X136469120Y-91432540D03*
%TO.P,U3,16*%
%TO.N,/D6*%
X136469120Y-88892540D03*
%TO.P,U3,17*%
%TO.N,/D7*%
X136469120Y-86352540D03*
%TO.P,U3,18*%
%TO.N,/A11*%
X136469120Y-83812540D03*
%TO.P,U3,19*%
%TO.N,/A10*%
X136469120Y-81272540D03*
%TO.P,U3,20*%
%TO.N,Net-(U1-Pad3)*%
X136469120Y-78732540D03*
%TO.P,U3,21*%
%TO.N,/A12*%
X136469120Y-76192540D03*
%TO.P,U3,22*%
%TO.N,/A9*%
X136469120Y-73652540D03*
%TO.P,U3,23*%
%TO.N,/A8*%
X136469120Y-71112540D03*
%TO.P,U3,24*%
%TO.N,VCC*%
X136469120Y-68572540D03*
%TD*%
D11*
%TO.P,U2,14*%
%TO.N,VCC*%
X116149120Y-86362540D03*
%TO.P,U2,7*%
%TO.N,GND*%
X131389120Y-93982540D03*
%TO.P,U2,13*%
%TO.N,Net-(U2-Pad13)*%
X118689120Y-86362540D03*
%TO.P,U2,6*%
%TO.N,GND*%
X128849120Y-93982540D03*
%TO.P,U2,12*%
X121229120Y-86362540D03*
%TO.P,U2,5*%
X126309120Y-93982540D03*
%TO.P,U2,11*%
X123769120Y-86362540D03*
%TO.P,U2,4*%
%TO.N,Net-(U2-Pad4)*%
X123769120Y-93982540D03*
%TO.P,U2,10*%
%TO.N,Net-(U2-Pad10)*%
X126309120Y-86362540D03*
%TO.P,U2,3*%
%TO.N,Net-(U1-Pad4)*%
X121229120Y-93982540D03*
%TO.P,U2,9*%
%TO.N,GND*%
X128849120Y-86362540D03*
%TO.P,U2,2*%
%TO.N,Net-(U1-Pad2)*%
X118689120Y-93982540D03*
%TO.P,U2,8*%
%TO.N,GND*%
X131389120Y-86362540D03*
D12*
%TO.P,U2,1*%
%TO.N,Net-(U2-Pad1)*%
X116149120Y-93982540D03*
%TD*%
D11*
%TO.P,U1,14*%
%TO.N,VCC*%
X116149120Y-68582540D03*
%TO.P,U1,7*%
%TO.N,GND*%
X131389120Y-76202540D03*
%TO.P,U1,13*%
X118689120Y-68582540D03*
%TO.P,U1,6*%
%TO.N,Net-(U1-Pad6)*%
X128849120Y-76202540D03*
%TO.P,U1,12*%
%TO.N,Net-(U1-Pad12)*%
X121229120Y-68582540D03*
%TO.P,U1,5*%
%TO.N,GND*%
X126309120Y-76202540D03*
%TO.P,U1,11*%
X123769120Y-68582540D03*
%TO.P,U1,4*%
%TO.N,Net-(U1-Pad4)*%
X123769120Y-76202540D03*
%TO.P,U1,10*%
%TO.N,Net-(U1-Pad10)*%
X126309120Y-68582540D03*
%TO.P,U1,3*%
%TO.N,Net-(U1-Pad3)*%
X121229120Y-76202540D03*
%TO.P,U1,9*%
%TO.N,GND*%
X128849120Y-68582540D03*
%TO.P,U1,2*%
%TO.N,Net-(U1-Pad2)*%
X118689120Y-76202540D03*
%TO.P,U1,8*%
%TO.N,Net-(U1-Pad8)*%
X131389120Y-68582540D03*
D12*
%TO.P,U1,1*%
%TO.N,Net-(U1-Pad1)*%
X116149120Y-76202540D03*
%TD*%
D11*
%TO.P,R2,2*%
%TO.N,Net-(J2-Pad2)*%
X88209120Y-81282540D03*
D10*
%TO.P,R2,1*%
%TO.N,GND*%
X88209120Y-96522540D03*
%TD*%
D11*
%TO.P,R1,2*%
%TO.N,Net-(J1-Pad2)*%
X90749120Y-81282540D03*
D10*
%TO.P,R1,1*%
%TO.N,GND*%
X90749120Y-96522540D03*
%TD*%
D14*
%TO.P,A15,2*%
%TO.N,Net-(J2-Pad2)*%
X88209120Y-63502540D03*
D15*
%TO.P,A15,1*%
%TO.N,VCC*%
X88209120Y-66042540D03*
%TD*%
D14*
%TO.P,A14,2*%
%TO.N,Net-(J1-Pad2)*%
X88209120Y-68582540D03*
D15*
%TO.P,A14,1*%
%TO.N,VCC*%
X88209120Y-71122540D03*
%TD*%
D16*
%TO.N,GND*%
X98359120Y-96522540D02*
X98369120Y-96532540D01*
X93289120Y-96522540D02*
X98359120Y-96522540D01*
%TO.N,VCC*%
X107114121Y-64917539D02*
X108529120Y-63502540D01*
X89334121Y-64917539D02*
X107114121Y-64917539D01*
X88209120Y-66042540D02*
X89334121Y-64917539D01*
X88209120Y-71122540D02*
X87447120Y-71122540D01*
X87034119Y-67217541D02*
X88209120Y-66042540D01*
X87034119Y-70709539D02*
X87034119Y-67217541D01*
X87447120Y-71122540D02*
X87034119Y-70709539D01*
D17*
X136469120Y-68572540D02*
X136469120Y-65788540D01*
X136469120Y-65788540D02*
X133675120Y-62994540D01*
X119197120Y-62994540D02*
X116149120Y-66042540D01*
X133675120Y-62994540D02*
X119197120Y-62994540D01*
X113609120Y-63502540D02*
X116149120Y-66042540D01*
X108529120Y-63502540D02*
X113609120Y-63502540D01*
X116149120Y-66042540D02*
X116149120Y-68582540D01*
X116149120Y-83822540D02*
X116149120Y-86362540D01*
D16*
%TO.N,Net-(J1-Pad2)*%
X107114121Y-67457539D02*
X108529120Y-66042540D01*
X89334121Y-67457539D02*
X107114121Y-67457539D01*
X88209120Y-68582540D02*
X89334121Y-67457539D01*
X88209120Y-68837538D02*
X88209120Y-68582540D01*
X90749120Y-71377538D02*
X88209120Y-68837538D01*
X90749120Y-81282540D02*
X90749120Y-71377538D01*
%TO.N,Net-(J2-Pad2)*%
X88209120Y-63502540D02*
X93289120Y-63502540D01*
X88209120Y-81282540D02*
X88209120Y-74424540D01*
X88209120Y-74424540D02*
X86431120Y-72646540D01*
X86431120Y-65280540D02*
X88209120Y-63502540D01*
X86431120Y-72646540D02*
X86431120Y-65280540D01*
%TO.N,Net-(U1-Pad4)*%
X107404119Y-69707541D02*
X108529120Y-68582540D01*
X107404119Y-74202541D02*
X107404119Y-69707541D01*
X122354121Y-74787541D02*
X107989119Y-74787541D01*
X107989119Y-74787541D02*
X107404119Y-74202541D01*
X123769120Y-76202540D02*
X122354121Y-74787541D01*
%TO.N,Net-(U1-Pad3)*%
X123759120Y-78732540D02*
X121229120Y-76202540D01*
X136469120Y-78732540D02*
X123759120Y-78732540D01*
%TO.N,Net-(U1-Pad1)*%
X113609120Y-78742540D02*
X116149120Y-76202540D01*
X113609120Y-78752540D02*
X113609120Y-78742540D01*
%TO.N,/A8*%
X136459120Y-71122540D02*
X136469120Y-71112540D01*
X108529120Y-71122540D02*
X136459120Y-71122540D01*
%TO.N,/A9*%
X136459120Y-73662540D02*
X136469120Y-73652540D01*
X108529120Y-73662540D02*
X136459120Y-73662540D01*
%TO.N,/A12*%
X137794130Y-74867530D02*
X136469120Y-76192540D01*
X137794130Y-70729389D02*
X137794130Y-74867530D01*
X137252271Y-70187530D02*
X137794130Y-70729389D01*
X116089108Y-70187530D02*
X137252271Y-70187530D01*
X110819117Y-64917539D02*
X116089108Y-70187530D01*
X107989119Y-64917539D02*
X110819117Y-64917539D01*
X106864118Y-66042540D02*
X107989119Y-64917539D01*
X93289120Y-66042540D02*
X106864118Y-66042540D01*
%TO.N,/A10*%
X136459120Y-81282540D02*
X136469120Y-81272540D01*
X108529120Y-81282540D02*
X136459120Y-81282540D01*
%TO.N,/A11*%
X108529120Y-76202540D02*
X110307120Y-76202540D01*
X110307120Y-76202540D02*
X111323120Y-77218540D01*
X137794130Y-82487530D02*
X136469120Y-83812540D01*
X137794130Y-80889389D02*
X137794130Y-82487530D01*
X137252271Y-80347530D02*
X137794130Y-80889389D01*
X113495949Y-80347530D02*
X137252271Y-80347530D01*
X111323120Y-78174701D02*
X113495949Y-80347530D01*
X111323120Y-77218540D02*
X111323120Y-78174701D01*
%TO.N,/D7*%
X108529120Y-86362540D02*
X109799120Y-86362540D01*
X109799120Y-86362540D02*
X111323120Y-87886540D01*
X134935120Y-87886540D02*
X136469120Y-86352540D01*
X111323120Y-87886540D02*
X134935120Y-87886540D01*
%TO.N,/D6*%
X136459120Y-88902540D02*
X136469120Y-88892540D01*
X108529120Y-88902540D02*
X136459120Y-88902540D01*
%TO.N,/D5*%
X136459120Y-91442540D02*
X136469120Y-91432540D01*
X108529120Y-91442540D02*
X136459120Y-91442540D01*
%TO.N,/D4*%
X108529120Y-93982540D02*
X111323120Y-93982540D01*
X111323120Y-93982540D02*
X113101120Y-95760540D01*
X134681120Y-95760540D02*
X136469120Y-93972540D01*
X113101120Y-95760540D02*
X134681120Y-95760540D01*
%TO.N,/D3*%
X136459120Y-96522540D02*
X136469120Y-96512540D01*
X108529120Y-96522540D02*
X136459120Y-96522540D01*
%TO.N,/D2*%
X98359120Y-93982540D02*
X98369120Y-93992540D01*
X93289120Y-93982540D02*
X98359120Y-93982540D01*
%TO.N,/D0*%
X93289120Y-88902540D02*
X98369120Y-88902540D01*
X98369120Y-88902540D02*
X98369120Y-88912540D01*
%TO.N,/A0*%
X98359120Y-86362540D02*
X98369120Y-86372540D01*
X93289120Y-86362540D02*
X98359120Y-86362540D01*
%TO.N,/A1*%
X98359120Y-83822540D02*
X98369120Y-83832540D01*
X93289120Y-83822540D02*
X98359120Y-83822540D01*
%TO.N,/A2*%
X98359120Y-81282540D02*
X98369120Y-81292540D01*
X93289120Y-81282540D02*
X98359120Y-81282540D01*
%TO.N,/A3*%
X98359120Y-78742540D02*
X98369120Y-78752540D01*
X93289120Y-78742540D02*
X98359120Y-78742540D01*
%TO.N,/A4*%
X93289120Y-76202540D02*
X98369120Y-76202540D01*
%TO.N,/A5*%
X93289120Y-73662540D02*
X98369120Y-73662540D01*
%TO.N,/A6*%
X98359120Y-71122540D02*
X98369120Y-71132540D01*
X93289120Y-71122540D02*
X98359120Y-71122540D01*
%TO.N,/A7*%
X98359120Y-68582540D02*
X98369120Y-68592540D01*
X93289120Y-68582540D02*
X98359120Y-68582540D01*
%TO.N,/D1*%
X98359120Y-91442540D02*
X98369120Y-91452540D01*
X93289120Y-91442540D02*
X98359120Y-91442540D01*
%TD*%
D18*
%TO.N,GND*%
X140864121Y-98377540D02*
X83814120Y-98377540D01*
X83814120Y-97515242D01*
X87396023Y-97515242D01*
X87467606Y-97759211D01*
X87723116Y-97880111D01*
X87997304Y-97948840D01*
X88279632Y-97962757D01*
X88559250Y-97921327D01*
X88825412Y-97826143D01*
X88950634Y-97759211D01*
X89022217Y-97515242D01*
X89936023Y-97515242D01*
X90007606Y-97759211D01*
X90263116Y-97880111D01*
X90537304Y-97948840D01*
X90819632Y-97962757D01*
X91099250Y-97921327D01*
X91365412Y-97826143D01*
X91490634Y-97759211D01*
X91562217Y-97515242D01*
X90749120Y-96702145D01*
X89936023Y-97515242D01*
X89022217Y-97515242D01*
X88209120Y-96702145D01*
X87396023Y-97515242D01*
X83814120Y-97515242D01*
X83814120Y-96593052D01*
X86768903Y-96593052D01*
X86810333Y-96872670D01*
X86905517Y-97138832D01*
X86972449Y-97264054D01*
X87216418Y-97335637D01*
X88029515Y-96522540D01*
X88388725Y-96522540D01*
X89201822Y-97335637D01*
X89445791Y-97264054D01*
X89477091Y-97197904D01*
X89512449Y-97264054D01*
X89756418Y-97335637D01*
X90569515Y-96522540D01*
X89756418Y-95709443D01*
X89512449Y-95781026D01*
X89481149Y-95847176D01*
X89445791Y-95781026D01*
X89201822Y-95709443D01*
X88388725Y-96522540D01*
X88029515Y-96522540D01*
X87216418Y-95709443D01*
X86972449Y-95781026D01*
X86851549Y-96036536D01*
X86782820Y-96310724D01*
X86768903Y-96593052D01*
X83814120Y-96593052D01*
X83814120Y-95529838D01*
X87396023Y-95529838D01*
X88209120Y-96342935D01*
X89022217Y-95529838D01*
X89936023Y-95529838D01*
X90749120Y-96342935D01*
X91562217Y-95529838D01*
X91490634Y-95285869D01*
X91235124Y-95164969D01*
X90960936Y-95096240D01*
X90678608Y-95082323D01*
X90398990Y-95123753D01*
X90132828Y-95218937D01*
X90007606Y-95285869D01*
X89936023Y-95529838D01*
X89022217Y-95529838D01*
X88950634Y-95285869D01*
X88695124Y-95164969D01*
X88420936Y-95096240D01*
X88138608Y-95082323D01*
X87858990Y-95123753D01*
X87592828Y-95218937D01*
X87467606Y-95285869D01*
X87396023Y-95529838D01*
X83814120Y-95529838D01*
X83814120Y-65280540D01*
X85667444Y-65280540D01*
X85671121Y-65317872D01*
X85671120Y-72609218D01*
X85667444Y-72646540D01*
X85671120Y-72683862D01*
X85671120Y-72683872D01*
X85682117Y-72795525D01*
X85710431Y-72888864D01*
X85725574Y-72938786D01*
X85796146Y-73070816D01*
X85810857Y-73088741D01*
X85891119Y-73186541D01*
X85920123Y-73210344D01*
X87449121Y-74739343D01*
X87449120Y-80064496D01*
X87294361Y-80167903D01*
X87094483Y-80367781D01*
X86937440Y-80602813D01*
X86829267Y-80863966D01*
X86774120Y-81141205D01*
X86774120Y-81423875D01*
X86829267Y-81701114D01*
X86937440Y-81962267D01*
X87094483Y-82197299D01*
X87294361Y-82397177D01*
X87529393Y-82554220D01*
X87790546Y-82662393D01*
X88067785Y-82717540D01*
X88350455Y-82717540D01*
X88627694Y-82662393D01*
X88888847Y-82554220D01*
X89123879Y-82397177D01*
X89323757Y-82197299D01*
X89479120Y-81964781D01*
X89634483Y-82197299D01*
X89834361Y-82397177D01*
X90069393Y-82554220D01*
X90330546Y-82662393D01*
X90607785Y-82717540D01*
X90890455Y-82717540D01*
X91167694Y-82662393D01*
X91428847Y-82554220D01*
X91663879Y-82397177D01*
X91863757Y-82197299D01*
X92019120Y-81964781D01*
X92174483Y-82197299D01*
X92374361Y-82397177D01*
X92606879Y-82552540D01*
X92374361Y-82707903D01*
X92174483Y-82907781D01*
X92017440Y-83142813D01*
X91909267Y-83403966D01*
X91854120Y-83681205D01*
X91854120Y-83963875D01*
X91909267Y-84241114D01*
X92017440Y-84502267D01*
X92174483Y-84737299D01*
X92374361Y-84937177D01*
X92606879Y-85092540D01*
X92374361Y-85247903D01*
X92174483Y-85447781D01*
X92017440Y-85682813D01*
X91909267Y-85943966D01*
X91854120Y-86221205D01*
X91854120Y-86503875D01*
X91909267Y-86781114D01*
X92017440Y-87042267D01*
X92174483Y-87277299D01*
X92374361Y-87477177D01*
X92606879Y-87632540D01*
X92374361Y-87787903D01*
X92174483Y-87987781D01*
X92017440Y-88222813D01*
X91909267Y-88483966D01*
X91854120Y-88761205D01*
X91854120Y-89043875D01*
X91909267Y-89321114D01*
X92017440Y-89582267D01*
X92174483Y-89817299D01*
X92374361Y-90017177D01*
X92606879Y-90172540D01*
X92374361Y-90327903D01*
X92174483Y-90527781D01*
X92017440Y-90762813D01*
X91909267Y-91023966D01*
X91854120Y-91301205D01*
X91854120Y-91583875D01*
X91909267Y-91861114D01*
X92017440Y-92122267D01*
X92174483Y-92357299D01*
X92374361Y-92557177D01*
X92606879Y-92712540D01*
X92374361Y-92867903D01*
X92174483Y-93067781D01*
X92017440Y-93302813D01*
X91909267Y-93563966D01*
X91854120Y-93841205D01*
X91854120Y-94123875D01*
X91909267Y-94401114D01*
X92017440Y-94662267D01*
X92174483Y-94897299D01*
X92374361Y-95097177D01*
X92609393Y-95254220D01*
X92619985Y-95258607D01*
X92433989Y-95370155D01*
X92225601Y-95559126D01*
X92058083Y-95785120D01*
X92025184Y-95854726D01*
X91985791Y-95781026D01*
X91741822Y-95709443D01*
X90928725Y-96522540D01*
X91741822Y-97335637D01*
X91985791Y-97264054D01*
X92022925Y-97185575D01*
X92058083Y-97259960D01*
X92225601Y-97485954D01*
X92433989Y-97674925D01*
X92675239Y-97819610D01*
X92940080Y-97914449D01*
X93162120Y-97793164D01*
X93162120Y-96649540D01*
X93416120Y-96649540D01*
X93416120Y-97793164D01*
X93638160Y-97914449D01*
X93903001Y-97819610D01*
X94144251Y-97674925D01*
X94352639Y-97485954D01*
X94520157Y-97259960D01*
X94640366Y-97005627D01*
X94681024Y-96871579D01*
X94669251Y-96850149D01*
X96775658Y-96850149D01*
X96779529Y-96887822D01*
X96871699Y-97113073D01*
X97006042Y-97316014D01*
X97177395Y-97488847D01*
X97379174Y-97624930D01*
X97603624Y-97719033D01*
X97842120Y-97767540D01*
X98242120Y-97767540D01*
X98242120Y-96659540D01*
X98496120Y-96659540D01*
X98496120Y-97767540D01*
X98896120Y-97767540D01*
X99134616Y-97719033D01*
X99359066Y-97624930D01*
X99560845Y-97488847D01*
X99732198Y-97316014D01*
X99866541Y-97113073D01*
X99958711Y-96887822D01*
X99962582Y-96850149D01*
X99837851Y-96659540D01*
X98496120Y-96659540D01*
X98242120Y-96659540D01*
X96900389Y-96659540D01*
X96775658Y-96850149D01*
X94669251Y-96850149D01*
X94559035Y-96649540D01*
X93416120Y-96649540D01*
X93162120Y-96649540D01*
X93142120Y-96649540D01*
X93142120Y-96395540D01*
X93162120Y-96395540D01*
X93162120Y-96375540D01*
X93416120Y-96375540D01*
X93416120Y-96395540D01*
X94559035Y-96395540D01*
X94658262Y-96214931D01*
X96775658Y-96214931D01*
X96900389Y-96405540D01*
X98242120Y-96405540D01*
X98242120Y-95297540D01*
X98496120Y-95297540D01*
X98496120Y-96405540D01*
X99837851Y-96405540D01*
X99962582Y-96214931D01*
X99958711Y-96177258D01*
X99866541Y-95952007D01*
X99732198Y-95749066D01*
X99560845Y-95576233D01*
X99359066Y-95440150D01*
X99134616Y-95346047D01*
X98896120Y-95297540D01*
X98496120Y-95297540D01*
X98242120Y-95297540D01*
X97842120Y-95297540D01*
X97603624Y-95346047D01*
X97379174Y-95440150D01*
X97177395Y-95576233D01*
X97006042Y-95749066D01*
X96871699Y-95952007D01*
X96779529Y-96177258D01*
X96775658Y-96214931D01*
X94658262Y-96214931D01*
X94681024Y-96173501D01*
X94640366Y-96039453D01*
X94520157Y-95785120D01*
X94352639Y-95559126D01*
X94144251Y-95370155D01*
X93958255Y-95258607D01*
X93968847Y-95254220D01*
X94203879Y-95097177D01*
X94403757Y-94897299D01*
X94507163Y-94742540D01*
X96986980Y-94742540D01*
X97091618Y-94870042D01*
X97279671Y-95024373D01*
X97494219Y-95139051D01*
X97727018Y-95209670D01*
X97908455Y-95227540D01*
X98829785Y-95227540D01*
X99011222Y-95209670D01*
X99244021Y-95139051D01*
X99458569Y-95024373D01*
X99646622Y-94870042D01*
X99800953Y-94681989D01*
X99915631Y-94467441D01*
X99986250Y-94234642D01*
X100010095Y-93992540D01*
X99986250Y-93750438D01*
X99915631Y-93517639D01*
X99800953Y-93303091D01*
X99646622Y-93115038D01*
X99458569Y-92960707D01*
X99244021Y-92846029D01*
X99011222Y-92775410D01*
X98829785Y-92757540D01*
X97908455Y-92757540D01*
X97727018Y-92775410D01*
X97494219Y-92846029D01*
X97279671Y-92960707D01*
X97091618Y-93115038D01*
X97003393Y-93222540D01*
X94507163Y-93222540D01*
X94403757Y-93067781D01*
X94203879Y-92867903D01*
X93971361Y-92712540D01*
X94203879Y-92557177D01*
X94403757Y-92357299D01*
X94507163Y-92202540D01*
X96986980Y-92202540D01*
X97091618Y-92330042D01*
X97279671Y-92484373D01*
X97494219Y-92599051D01*
X97727018Y-92669670D01*
X97908455Y-92687540D01*
X98829785Y-92687540D01*
X99011222Y-92669670D01*
X99244021Y-92599051D01*
X99458569Y-92484373D01*
X99646622Y-92330042D01*
X99800953Y-92141989D01*
X99915631Y-91927441D01*
X99986250Y-91694642D01*
X100010095Y-91452540D01*
X99986250Y-91210438D01*
X99915631Y-90977639D01*
X99800953Y-90763091D01*
X99646622Y-90575038D01*
X99458569Y-90420707D01*
X99244021Y-90306029D01*
X99011222Y-90235410D01*
X98829785Y-90217540D01*
X97908455Y-90217540D01*
X97727018Y-90235410D01*
X97494219Y-90306029D01*
X97279671Y-90420707D01*
X97091618Y-90575038D01*
X97003393Y-90682540D01*
X94507163Y-90682540D01*
X94403757Y-90527781D01*
X94203879Y-90327903D01*
X93971361Y-90172540D01*
X94203879Y-90017177D01*
X94403757Y-89817299D01*
X94507163Y-89662540D01*
X96986980Y-89662540D01*
X97091618Y-89790042D01*
X97279671Y-89944373D01*
X97494219Y-90059051D01*
X97727018Y-90129670D01*
X97908455Y-90147540D01*
X98829785Y-90147540D01*
X99011222Y-90129670D01*
X99244021Y-90059051D01*
X99458569Y-89944373D01*
X99646622Y-89790042D01*
X99800953Y-89601989D01*
X99915631Y-89387441D01*
X99986250Y-89154642D01*
X100010095Y-88912540D01*
X99986250Y-88670438D01*
X99915631Y-88437639D01*
X99800953Y-88223091D01*
X99646622Y-88035038D01*
X99458569Y-87880707D01*
X99244021Y-87766029D01*
X99011222Y-87695410D01*
X98829785Y-87677540D01*
X97908455Y-87677540D01*
X97727018Y-87695410D01*
X97494219Y-87766029D01*
X97279671Y-87880707D01*
X97091618Y-88035038D01*
X97003393Y-88142540D01*
X94507163Y-88142540D01*
X94403757Y-87987781D01*
X94203879Y-87787903D01*
X93971361Y-87632540D01*
X94203879Y-87477177D01*
X94403757Y-87277299D01*
X94507163Y-87122540D01*
X96986980Y-87122540D01*
X97091618Y-87250042D01*
X97279671Y-87404373D01*
X97494219Y-87519051D01*
X97727018Y-87589670D01*
X97908455Y-87607540D01*
X98829785Y-87607540D01*
X99011222Y-87589670D01*
X99244021Y-87519051D01*
X99458569Y-87404373D01*
X99646622Y-87250042D01*
X99800953Y-87061989D01*
X99915631Y-86847441D01*
X99986250Y-86614642D01*
X100010095Y-86372540D01*
X99986250Y-86130438D01*
X99915631Y-85897639D01*
X99800953Y-85683091D01*
X99646622Y-85495038D01*
X99458569Y-85340707D01*
X99244021Y-85226029D01*
X99011222Y-85155410D01*
X98829785Y-85137540D01*
X97908455Y-85137540D01*
X97727018Y-85155410D01*
X97494219Y-85226029D01*
X97279671Y-85340707D01*
X97091618Y-85495038D01*
X97003393Y-85602540D01*
X94507163Y-85602540D01*
X94403757Y-85447781D01*
X94203879Y-85247903D01*
X93971361Y-85092540D01*
X94203879Y-84937177D01*
X94403757Y-84737299D01*
X94507163Y-84582540D01*
X96986980Y-84582540D01*
X97091618Y-84710042D01*
X97279671Y-84864373D01*
X97494219Y-84979051D01*
X97727018Y-85049670D01*
X97908455Y-85067540D01*
X98829785Y-85067540D01*
X99011222Y-85049670D01*
X99244021Y-84979051D01*
X99458569Y-84864373D01*
X99646622Y-84710042D01*
X99800953Y-84521989D01*
X99915631Y-84307441D01*
X99986250Y-84074642D01*
X100010095Y-83832540D01*
X99986250Y-83590438D01*
X99915631Y-83357639D01*
X99800953Y-83143091D01*
X99646622Y-82955038D01*
X99458569Y-82800707D01*
X99244021Y-82686029D01*
X99011222Y-82615410D01*
X98829785Y-82597540D01*
X97908455Y-82597540D01*
X97727018Y-82615410D01*
X97494219Y-82686029D01*
X97279671Y-82800707D01*
X97091618Y-82955038D01*
X97003393Y-83062540D01*
X94507163Y-83062540D01*
X94403757Y-82907781D01*
X94203879Y-82707903D01*
X93971361Y-82552540D01*
X94203879Y-82397177D01*
X94403757Y-82197299D01*
X94507163Y-82042540D01*
X96986980Y-82042540D01*
X97091618Y-82170042D01*
X97279671Y-82324373D01*
X97494219Y-82439051D01*
X97727018Y-82509670D01*
X97908455Y-82527540D01*
X98829785Y-82527540D01*
X99011222Y-82509670D01*
X99244021Y-82439051D01*
X99458569Y-82324373D01*
X99646622Y-82170042D01*
X99800953Y-81981989D01*
X99915631Y-81767441D01*
X99986250Y-81534642D01*
X100010095Y-81292540D01*
X99986250Y-81050438D01*
X99915631Y-80817639D01*
X99800953Y-80603091D01*
X99646622Y-80415038D01*
X99458569Y-80260707D01*
X99244021Y-80146029D01*
X99011222Y-80075410D01*
X98829785Y-80057540D01*
X97908455Y-80057540D01*
X97727018Y-80075410D01*
X97494219Y-80146029D01*
X97279671Y-80260707D01*
X97091618Y-80415038D01*
X97003393Y-80522540D01*
X94507163Y-80522540D01*
X94403757Y-80367781D01*
X94203879Y-80167903D01*
X93971361Y-80012540D01*
X94203879Y-79857177D01*
X94403757Y-79657299D01*
X94507163Y-79502540D01*
X96986980Y-79502540D01*
X97091618Y-79630042D01*
X97279671Y-79784373D01*
X97494219Y-79899051D01*
X97727018Y-79969670D01*
X97908455Y-79987540D01*
X98829785Y-79987540D01*
X99011222Y-79969670D01*
X99244021Y-79899051D01*
X99458569Y-79784373D01*
X99646622Y-79630042D01*
X99800953Y-79441989D01*
X99915631Y-79227441D01*
X99986250Y-78994642D01*
X100010095Y-78752540D01*
X99986250Y-78510438D01*
X99915631Y-78277639D01*
X99800953Y-78063091D01*
X99646622Y-77875038D01*
X99458569Y-77720707D01*
X99244021Y-77606029D01*
X99011222Y-77535410D01*
X98829785Y-77517540D01*
X97908455Y-77517540D01*
X97727018Y-77535410D01*
X97494219Y-77606029D01*
X97279671Y-77720707D01*
X97091618Y-77875038D01*
X97003393Y-77982540D01*
X94507163Y-77982540D01*
X94403757Y-77827781D01*
X94203879Y-77627903D01*
X93971361Y-77472540D01*
X94203879Y-77317177D01*
X94403757Y-77117299D01*
X94507163Y-76962540D01*
X96986980Y-76962540D01*
X97091618Y-77090042D01*
X97279671Y-77244373D01*
X97494219Y-77359051D01*
X97727018Y-77429670D01*
X97908455Y-77447540D01*
X98829785Y-77447540D01*
X99011222Y-77429670D01*
X99244021Y-77359051D01*
X99458569Y-77244373D01*
X99646622Y-77090042D01*
X99800953Y-76901989D01*
X99915631Y-76687441D01*
X99986250Y-76454642D01*
X100010095Y-76212540D01*
X99986250Y-75970438D01*
X99915631Y-75737639D01*
X99800953Y-75523091D01*
X99646622Y-75335038D01*
X99458569Y-75180707D01*
X99244021Y-75066029D01*
X99011222Y-74995410D01*
X98829785Y-74977540D01*
X97908455Y-74977540D01*
X97727018Y-74995410D01*
X97494219Y-75066029D01*
X97279671Y-75180707D01*
X97091618Y-75335038D01*
X97003393Y-75442540D01*
X94507163Y-75442540D01*
X94403757Y-75287781D01*
X94203879Y-75087903D01*
X93971361Y-74932540D01*
X94203879Y-74777177D01*
X94403757Y-74577299D01*
X94507163Y-74422540D01*
X96986980Y-74422540D01*
X97091618Y-74550042D01*
X97279671Y-74704373D01*
X97494219Y-74819051D01*
X97727018Y-74889670D01*
X97908455Y-74907540D01*
X98829785Y-74907540D01*
X99011222Y-74889670D01*
X99244021Y-74819051D01*
X99458569Y-74704373D01*
X99646622Y-74550042D01*
X99800953Y-74361989D01*
X99915631Y-74147441D01*
X99986250Y-73914642D01*
X100010095Y-73672540D01*
X99986250Y-73430438D01*
X99915631Y-73197639D01*
X99800953Y-72983091D01*
X99646622Y-72795038D01*
X99458569Y-72640707D01*
X99244021Y-72526029D01*
X99011222Y-72455410D01*
X98829785Y-72437540D01*
X97908455Y-72437540D01*
X97727018Y-72455410D01*
X97494219Y-72526029D01*
X97279671Y-72640707D01*
X97091618Y-72795038D01*
X97003393Y-72902540D01*
X94507163Y-72902540D01*
X94403757Y-72747781D01*
X94203879Y-72547903D01*
X93971361Y-72392540D01*
X94203879Y-72237177D01*
X94403757Y-72037299D01*
X94507163Y-71882540D01*
X96986980Y-71882540D01*
X97091618Y-72010042D01*
X97279671Y-72164373D01*
X97494219Y-72279051D01*
X97727018Y-72349670D01*
X97908455Y-72367540D01*
X98829785Y-72367540D01*
X99011222Y-72349670D01*
X99244021Y-72279051D01*
X99458569Y-72164373D01*
X99646622Y-72010042D01*
X99800953Y-71821989D01*
X99915631Y-71607441D01*
X99986250Y-71374642D01*
X100010095Y-71132540D01*
X99986250Y-70890438D01*
X99915631Y-70657639D01*
X99800953Y-70443091D01*
X99646622Y-70255038D01*
X99458569Y-70100707D01*
X99244021Y-69986029D01*
X99011222Y-69915410D01*
X98829785Y-69897540D01*
X97908455Y-69897540D01*
X97727018Y-69915410D01*
X97494219Y-69986029D01*
X97279671Y-70100707D01*
X97091618Y-70255038D01*
X97003393Y-70362540D01*
X94507163Y-70362540D01*
X94403757Y-70207781D01*
X94203879Y-70007903D01*
X93971361Y-69852540D01*
X94203879Y-69697177D01*
X94403757Y-69497299D01*
X94507163Y-69342540D01*
X96986980Y-69342540D01*
X97091618Y-69470042D01*
X97279671Y-69624373D01*
X97494219Y-69739051D01*
X97727018Y-69809670D01*
X97908455Y-69827540D01*
X98829785Y-69827540D01*
X99011222Y-69809670D01*
X99244021Y-69739051D01*
X99458569Y-69624373D01*
X99646622Y-69470042D01*
X99800953Y-69281989D01*
X99915631Y-69067441D01*
X99986250Y-68834642D01*
X100010095Y-68592540D01*
X99986250Y-68350438D01*
X99945935Y-68217539D01*
X107076799Y-68217539D01*
X107114121Y-68221215D01*
X107138354Y-68218828D01*
X107094120Y-68441205D01*
X107094120Y-68723875D01*
X107130432Y-68906427D01*
X106893117Y-69143742D01*
X106864119Y-69167540D01*
X106840321Y-69196538D01*
X106840320Y-69196539D01*
X106769145Y-69283265D01*
X106698573Y-69415295D01*
X106681217Y-69472512D01*
X106655117Y-69558555D01*
X106646433Y-69646728D01*
X106640443Y-69707541D01*
X106644120Y-69744873D01*
X106644119Y-74165218D01*
X106640443Y-74202541D01*
X106644119Y-74239863D01*
X106644119Y-74239873D01*
X106655116Y-74351526D01*
X106677773Y-74426216D01*
X106698573Y-74494787D01*
X106769145Y-74626817D01*
X106808990Y-74675367D01*
X106864118Y-74742542D01*
X106893121Y-74766344D01*
X107414520Y-75287744D01*
X107414483Y-75287781D01*
X107257440Y-75522813D01*
X107149267Y-75783966D01*
X107094120Y-76061205D01*
X107094120Y-76343875D01*
X107149267Y-76621114D01*
X107257440Y-76882267D01*
X107414483Y-77117299D01*
X107614361Y-77317177D01*
X107849393Y-77474220D01*
X107859985Y-77478607D01*
X107673989Y-77590155D01*
X107465601Y-77779126D01*
X107298083Y-78005120D01*
X107177874Y-78259453D01*
X107137216Y-78393501D01*
X107259205Y-78615540D01*
X108402120Y-78615540D01*
X108402120Y-78595540D01*
X108656120Y-78595540D01*
X108656120Y-78615540D01*
X109799035Y-78615540D01*
X109921024Y-78393501D01*
X109880366Y-78259453D01*
X109760157Y-78005120D01*
X109592639Y-77779126D01*
X109384251Y-77590155D01*
X109198255Y-77478607D01*
X109208847Y-77474220D01*
X109443879Y-77317177D01*
X109643757Y-77117299D01*
X109747163Y-76962540D01*
X109992319Y-76962540D01*
X110563120Y-77533342D01*
X110563121Y-78137369D01*
X110559444Y-78174701D01*
X110563121Y-78212034D01*
X110574118Y-78323687D01*
X110587300Y-78367143D01*
X110617574Y-78466947D01*
X110688146Y-78598977D01*
X110759321Y-78685703D01*
X110783120Y-78714702D01*
X110812118Y-78738500D01*
X112596157Y-80522540D01*
X109747163Y-80522540D01*
X109643757Y-80367781D01*
X109443879Y-80167903D01*
X109208847Y-80010860D01*
X109198255Y-80006473D01*
X109384251Y-79894925D01*
X109592639Y-79705954D01*
X109760157Y-79479960D01*
X109880366Y-79225627D01*
X109921024Y-79091579D01*
X109799035Y-78869540D01*
X108656120Y-78869540D01*
X108656120Y-78889540D01*
X108402120Y-78889540D01*
X108402120Y-78869540D01*
X107259205Y-78869540D01*
X107137216Y-79091579D01*
X107177874Y-79225627D01*
X107298083Y-79479960D01*
X107465601Y-79705954D01*
X107673989Y-79894925D01*
X107859985Y-80006473D01*
X107849393Y-80010860D01*
X107614361Y-80167903D01*
X107414483Y-80367781D01*
X107257440Y-80602813D01*
X107149267Y-80863966D01*
X107094120Y-81141205D01*
X107094120Y-81423875D01*
X107149267Y-81701114D01*
X107257440Y-81962267D01*
X107414483Y-82197299D01*
X107614361Y-82397177D01*
X107846879Y-82552540D01*
X107614361Y-82707903D01*
X107414483Y-82907781D01*
X107257440Y-83142813D01*
X107149267Y-83403966D01*
X107094120Y-83681205D01*
X107094120Y-83963875D01*
X107149267Y-84241114D01*
X107257440Y-84502267D01*
X107414483Y-84737299D01*
X107614361Y-84937177D01*
X107846879Y-85092540D01*
X107614361Y-85247903D01*
X107414483Y-85447781D01*
X107257440Y-85682813D01*
X107149267Y-85943966D01*
X107094120Y-86221205D01*
X107094120Y-86503875D01*
X107149267Y-86781114D01*
X107257440Y-87042267D01*
X107414483Y-87277299D01*
X107614361Y-87477177D01*
X107846879Y-87632540D01*
X107614361Y-87787903D01*
X107414483Y-87987781D01*
X107257440Y-88222813D01*
X107149267Y-88483966D01*
X107094120Y-88761205D01*
X107094120Y-89043875D01*
X107149267Y-89321114D01*
X107257440Y-89582267D01*
X107414483Y-89817299D01*
X107614361Y-90017177D01*
X107846879Y-90172540D01*
X107614361Y-90327903D01*
X107414483Y-90527781D01*
X107257440Y-90762813D01*
X107149267Y-91023966D01*
X107094120Y-91301205D01*
X107094120Y-91583875D01*
X107149267Y-91861114D01*
X107257440Y-92122267D01*
X107414483Y-92357299D01*
X107614361Y-92557177D01*
X107846879Y-92712540D01*
X107614361Y-92867903D01*
X107414483Y-93067781D01*
X107257440Y-93302813D01*
X107149267Y-93563966D01*
X107094120Y-93841205D01*
X107094120Y-94123875D01*
X107149267Y-94401114D01*
X107257440Y-94662267D01*
X107414483Y-94897299D01*
X107614361Y-95097177D01*
X107846879Y-95252540D01*
X107614361Y-95407903D01*
X107414483Y-95607781D01*
X107257440Y-95842813D01*
X107149267Y-96103966D01*
X107094120Y-96381205D01*
X107094120Y-96663875D01*
X107149267Y-96941114D01*
X107257440Y-97202267D01*
X107414483Y-97437299D01*
X107614361Y-97637177D01*
X107849393Y-97794220D01*
X108110546Y-97902393D01*
X108387785Y-97957540D01*
X108670455Y-97957540D01*
X108947694Y-97902393D01*
X109208847Y-97794220D01*
X109443879Y-97637177D01*
X109643757Y-97437299D01*
X109747163Y-97282540D01*
X135103393Y-97282540D01*
X135191618Y-97390042D01*
X135379671Y-97544373D01*
X135594219Y-97659051D01*
X135827018Y-97729670D01*
X136008455Y-97747540D01*
X136929785Y-97747540D01*
X137111222Y-97729670D01*
X137344021Y-97659051D01*
X137558569Y-97544373D01*
X137746622Y-97390042D01*
X137900953Y-97201989D01*
X138015631Y-96987441D01*
X138086250Y-96754642D01*
X138110095Y-96512540D01*
X138086250Y-96270438D01*
X138015631Y-96037639D01*
X137900953Y-95823091D01*
X137746622Y-95635038D01*
X137558569Y-95480707D01*
X137344021Y-95366029D01*
X137111222Y-95295410D01*
X136929785Y-95277540D01*
X136238922Y-95277540D01*
X136308922Y-95207540D01*
X136929785Y-95207540D01*
X137111222Y-95189670D01*
X137344021Y-95119051D01*
X137558569Y-95004373D01*
X137746622Y-94850042D01*
X137900953Y-94661989D01*
X138015631Y-94447441D01*
X138086250Y-94214642D01*
X138110095Y-93972540D01*
X138086250Y-93730438D01*
X138015631Y-93497639D01*
X137900953Y-93283091D01*
X137746622Y-93095038D01*
X137558569Y-92940707D01*
X137344021Y-92826029D01*
X137111222Y-92755410D01*
X136929785Y-92737540D01*
X136008455Y-92737540D01*
X135827018Y-92755410D01*
X135594219Y-92826029D01*
X135379671Y-92940707D01*
X135191618Y-93095038D01*
X135037287Y-93283091D01*
X134922609Y-93497639D01*
X134851990Y-93730438D01*
X134828145Y-93972540D01*
X134851990Y-94214642D01*
X134921866Y-94444992D01*
X134366319Y-95000540D01*
X132393812Y-95000540D01*
X132541505Y-94837671D01*
X132686190Y-94596421D01*
X132781029Y-94331580D01*
X132659744Y-94109540D01*
X131516120Y-94109540D01*
X131516120Y-94129540D01*
X131262120Y-94129540D01*
X131262120Y-94109540D01*
X128976120Y-94109540D01*
X128976120Y-94129540D01*
X128722120Y-94129540D01*
X128722120Y-94109540D01*
X126436120Y-94109540D01*
X126436120Y-94129540D01*
X126182120Y-94129540D01*
X126182120Y-94109540D01*
X126162120Y-94109540D01*
X126162120Y-93855540D01*
X126182120Y-93855540D01*
X126182120Y-92712625D01*
X126436120Y-92712625D01*
X126436120Y-93855540D01*
X128722120Y-93855540D01*
X128722120Y-92712625D01*
X128976120Y-92712625D01*
X128976120Y-93855540D01*
X131262120Y-93855540D01*
X131262120Y-92712625D01*
X131516120Y-92712625D01*
X131516120Y-93855540D01*
X132659744Y-93855540D01*
X132781029Y-93633500D01*
X132686190Y-93368659D01*
X132541505Y-93127409D01*
X132352534Y-92919021D01*
X132126540Y-92751503D01*
X131872207Y-92631294D01*
X131738159Y-92590636D01*
X131516120Y-92712625D01*
X131262120Y-92712625D01*
X131040081Y-92590636D01*
X130906033Y-92631294D01*
X130651700Y-92751503D01*
X130425706Y-92919021D01*
X130236735Y-93127409D01*
X130119120Y-93323522D01*
X130001505Y-93127409D01*
X129812534Y-92919021D01*
X129586540Y-92751503D01*
X129332207Y-92631294D01*
X129198159Y-92590636D01*
X128976120Y-92712625D01*
X128722120Y-92712625D01*
X128500081Y-92590636D01*
X128366033Y-92631294D01*
X128111700Y-92751503D01*
X127885706Y-92919021D01*
X127696735Y-93127409D01*
X127579120Y-93323522D01*
X127461505Y-93127409D01*
X127272534Y-92919021D01*
X127046540Y-92751503D01*
X126792207Y-92631294D01*
X126658159Y-92590636D01*
X126436120Y-92712625D01*
X126182120Y-92712625D01*
X125960081Y-92590636D01*
X125826033Y-92631294D01*
X125571700Y-92751503D01*
X125345706Y-92919021D01*
X125156735Y-93127409D01*
X125045187Y-93313405D01*
X125040800Y-93302813D01*
X124883757Y-93067781D01*
X124683879Y-92867903D01*
X124448847Y-92710860D01*
X124187694Y-92602687D01*
X123910455Y-92547540D01*
X123627785Y-92547540D01*
X123350546Y-92602687D01*
X123089393Y-92710860D01*
X122854361Y-92867903D01*
X122654483Y-93067781D01*
X122499120Y-93300299D01*
X122343757Y-93067781D01*
X122143879Y-92867903D01*
X121908847Y-92710860D01*
X121647694Y-92602687D01*
X121370455Y-92547540D01*
X121087785Y-92547540D01*
X120810546Y-92602687D01*
X120549393Y-92710860D01*
X120314361Y-92867903D01*
X120114483Y-93067781D01*
X119959120Y-93300299D01*
X119803757Y-93067781D01*
X119603879Y-92867903D01*
X119368847Y-92710860D01*
X119107694Y-92602687D01*
X118830455Y-92547540D01*
X118547785Y-92547540D01*
X118270546Y-92602687D01*
X118009393Y-92710860D01*
X117774361Y-92867903D01*
X117575763Y-93066501D01*
X117574932Y-93058058D01*
X117538622Y-92938360D01*
X117479657Y-92828046D01*
X117400305Y-92731355D01*
X117303614Y-92652003D01*
X117193300Y-92593038D01*
X117073602Y-92556728D01*
X116949120Y-92544468D01*
X115349120Y-92544468D01*
X115224638Y-92556728D01*
X115104940Y-92593038D01*
X114994626Y-92652003D01*
X114897935Y-92731355D01*
X114818583Y-92828046D01*
X114759618Y-92938360D01*
X114723308Y-93058058D01*
X114711048Y-93182540D01*
X114711048Y-94782540D01*
X114723308Y-94907022D01*
X114751676Y-95000540D01*
X113415922Y-95000540D01*
X111886924Y-93471543D01*
X111863121Y-93442539D01*
X111747396Y-93347566D01*
X111615367Y-93276994D01*
X111472106Y-93233537D01*
X111360453Y-93222540D01*
X111360442Y-93222540D01*
X111323120Y-93218864D01*
X111285798Y-93222540D01*
X109747163Y-93222540D01*
X109643757Y-93067781D01*
X109443879Y-92867903D01*
X109211361Y-92712540D01*
X109443879Y-92557177D01*
X109643757Y-92357299D01*
X109747163Y-92202540D01*
X135103393Y-92202540D01*
X135191618Y-92310042D01*
X135379671Y-92464373D01*
X135594219Y-92579051D01*
X135827018Y-92649670D01*
X136008455Y-92667540D01*
X136929785Y-92667540D01*
X137111222Y-92649670D01*
X137344021Y-92579051D01*
X137558569Y-92464373D01*
X137746622Y-92310042D01*
X137900953Y-92121989D01*
X138015631Y-91907441D01*
X138086250Y-91674642D01*
X138110095Y-91432540D01*
X138086250Y-91190438D01*
X138015631Y-90957639D01*
X137900953Y-90743091D01*
X137746622Y-90555038D01*
X137558569Y-90400707D01*
X137344021Y-90286029D01*
X137111222Y-90215410D01*
X136929785Y-90197540D01*
X136008455Y-90197540D01*
X135827018Y-90215410D01*
X135594219Y-90286029D01*
X135379671Y-90400707D01*
X135191618Y-90555038D01*
X135086980Y-90682540D01*
X109747163Y-90682540D01*
X109643757Y-90527781D01*
X109443879Y-90327903D01*
X109211361Y-90172540D01*
X109443879Y-90017177D01*
X109643757Y-89817299D01*
X109747163Y-89662540D01*
X135103393Y-89662540D01*
X135191618Y-89770042D01*
X135379671Y-89924373D01*
X135594219Y-90039051D01*
X135827018Y-90109670D01*
X136008455Y-90127540D01*
X136929785Y-90127540D01*
X137111222Y-90109670D01*
X137344021Y-90039051D01*
X137558569Y-89924373D01*
X137746622Y-89770042D01*
X137900953Y-89581989D01*
X138015631Y-89367441D01*
X138086250Y-89134642D01*
X138110095Y-88892540D01*
X138086250Y-88650438D01*
X138015631Y-88417639D01*
X137900953Y-88203091D01*
X137746622Y-88015038D01*
X137558569Y-87860707D01*
X137344021Y-87746029D01*
X137111222Y-87675410D01*
X136929785Y-87657540D01*
X136238921Y-87657540D01*
X136308922Y-87587540D01*
X136929785Y-87587540D01*
X137111222Y-87569670D01*
X137344021Y-87499051D01*
X137558569Y-87384373D01*
X137746622Y-87230042D01*
X137900953Y-87041989D01*
X138015631Y-86827441D01*
X138086250Y-86594642D01*
X138110095Y-86352540D01*
X138086250Y-86110438D01*
X138015631Y-85877639D01*
X137900953Y-85663091D01*
X137746622Y-85475038D01*
X137558569Y-85320707D01*
X137344021Y-85206029D01*
X137111222Y-85135410D01*
X136929785Y-85117540D01*
X136008455Y-85117540D01*
X135827018Y-85135410D01*
X135594219Y-85206029D01*
X135379671Y-85320707D01*
X135191618Y-85475038D01*
X135037287Y-85663091D01*
X134922609Y-85877639D01*
X134851990Y-86110438D01*
X134828145Y-86352540D01*
X134851990Y-86594642D01*
X134921866Y-86824992D01*
X134620319Y-87126540D01*
X132596159Y-87126540D01*
X132686190Y-86976421D01*
X132781029Y-86711580D01*
X132659744Y-86489540D01*
X131516120Y-86489540D01*
X131516120Y-86509540D01*
X131262120Y-86509540D01*
X131262120Y-86489540D01*
X128976120Y-86489540D01*
X128976120Y-86509540D01*
X128722120Y-86509540D01*
X128722120Y-86489540D01*
X128702120Y-86489540D01*
X128702120Y-86235540D01*
X128722120Y-86235540D01*
X128722120Y-85092625D01*
X128976120Y-85092625D01*
X128976120Y-86235540D01*
X131262120Y-86235540D01*
X131262120Y-85092625D01*
X131516120Y-85092625D01*
X131516120Y-86235540D01*
X132659744Y-86235540D01*
X132781029Y-86013500D01*
X132686190Y-85748659D01*
X132541505Y-85507409D01*
X132352534Y-85299021D01*
X132126540Y-85131503D01*
X131872207Y-85011294D01*
X131738159Y-84970636D01*
X131516120Y-85092625D01*
X131262120Y-85092625D01*
X131040081Y-84970636D01*
X130906033Y-85011294D01*
X130651700Y-85131503D01*
X130425706Y-85299021D01*
X130236735Y-85507409D01*
X130119120Y-85703522D01*
X130001505Y-85507409D01*
X129812534Y-85299021D01*
X129586540Y-85131503D01*
X129332207Y-85011294D01*
X129198159Y-84970636D01*
X128976120Y-85092625D01*
X128722120Y-85092625D01*
X128500081Y-84970636D01*
X128366033Y-85011294D01*
X128111700Y-85131503D01*
X127885706Y-85299021D01*
X127696735Y-85507409D01*
X127585187Y-85693405D01*
X127580800Y-85682813D01*
X127423757Y-85447781D01*
X127223879Y-85247903D01*
X126988847Y-85090860D01*
X126727694Y-84982687D01*
X126450455Y-84927540D01*
X126167785Y-84927540D01*
X125890546Y-84982687D01*
X125629393Y-85090860D01*
X125394361Y-85247903D01*
X125194483Y-85447781D01*
X125037440Y-85682813D01*
X125033053Y-85693405D01*
X124921505Y-85507409D01*
X124732534Y-85299021D01*
X124506540Y-85131503D01*
X124252207Y-85011294D01*
X124118159Y-84970636D01*
X123896120Y-85092625D01*
X123896120Y-86235540D01*
X123916120Y-86235540D01*
X123916120Y-86489540D01*
X123896120Y-86489540D01*
X123896120Y-86509540D01*
X123642120Y-86509540D01*
X123642120Y-86489540D01*
X121356120Y-86489540D01*
X121356120Y-86509540D01*
X121102120Y-86509540D01*
X121102120Y-86489540D01*
X121082120Y-86489540D01*
X121082120Y-86235540D01*
X121102120Y-86235540D01*
X121102120Y-86215540D01*
X121356120Y-86215540D01*
X121356120Y-86235540D01*
X123642120Y-86235540D01*
X123642120Y-85092625D01*
X123420081Y-84970636D01*
X123286033Y-85011294D01*
X123031700Y-85131503D01*
X122805706Y-85299021D01*
X122616735Y-85507409D01*
X122499120Y-85703522D01*
X122381505Y-85507409D01*
X122192534Y-85299021D01*
X121966540Y-85131503D01*
X121854477Y-85078537D01*
X121890634Y-85059211D01*
X121962217Y-84815242D01*
X121149120Y-84002145D01*
X120336023Y-84815242D01*
X120407606Y-85059211D01*
X120526063Y-85115261D01*
X120491700Y-85131503D01*
X120265706Y-85299021D01*
X120076735Y-85507409D01*
X119965187Y-85693405D01*
X119960800Y-85682813D01*
X119803757Y-85447781D01*
X119603879Y-85247903D01*
X119368847Y-85090860D01*
X119107694Y-84982687D01*
X118830455Y-84927540D01*
X118547785Y-84927540D01*
X118270546Y-84982687D01*
X118009393Y-85090860D01*
X117774361Y-85247903D01*
X117574483Y-85447781D01*
X117419120Y-85680299D01*
X117263757Y-85447781D01*
X117063879Y-85247903D01*
X117034120Y-85228019D01*
X117034120Y-84957061D01*
X117063879Y-84937177D01*
X117263757Y-84737299D01*
X117420800Y-84502267D01*
X117528973Y-84241114D01*
X117584120Y-83963875D01*
X117584120Y-83893052D01*
X119708903Y-83893052D01*
X119750333Y-84172670D01*
X119845517Y-84438832D01*
X119912449Y-84564054D01*
X120156418Y-84635637D01*
X120969515Y-83822540D01*
X121328725Y-83822540D01*
X122141822Y-84635637D01*
X122385791Y-84564054D01*
X122506691Y-84308544D01*
X122575420Y-84034356D01*
X122589337Y-83752028D01*
X122547907Y-83472410D01*
X122452723Y-83206248D01*
X122385791Y-83081026D01*
X122141822Y-83009443D01*
X121328725Y-83822540D01*
X120969515Y-83822540D01*
X120156418Y-83009443D01*
X119912449Y-83081026D01*
X119791549Y-83336536D01*
X119722820Y-83610724D01*
X119708903Y-83893052D01*
X117584120Y-83893052D01*
X117584120Y-83681205D01*
X117528973Y-83403966D01*
X117420800Y-83142813D01*
X117263757Y-82907781D01*
X117185814Y-82829838D01*
X120336023Y-82829838D01*
X121149120Y-83642935D01*
X121962217Y-82829838D01*
X121890634Y-82585869D01*
X121635124Y-82464969D01*
X121360936Y-82396240D01*
X121078608Y-82382323D01*
X120798990Y-82423753D01*
X120532828Y-82518937D01*
X120407606Y-82585869D01*
X120336023Y-82829838D01*
X117185814Y-82829838D01*
X117063879Y-82707903D01*
X116828847Y-82550860D01*
X116567694Y-82442687D01*
X116290455Y-82387540D01*
X116007785Y-82387540D01*
X115730546Y-82442687D01*
X115469393Y-82550860D01*
X115234361Y-82707903D01*
X115034483Y-82907781D01*
X114877440Y-83142813D01*
X114769267Y-83403966D01*
X114714120Y-83681205D01*
X114714120Y-83963875D01*
X114769267Y-84241114D01*
X114877440Y-84502267D01*
X115034483Y-84737299D01*
X115234361Y-84937177D01*
X115264120Y-84957062D01*
X115264121Y-85228018D01*
X115234361Y-85247903D01*
X115034483Y-85447781D01*
X114877440Y-85682813D01*
X114769267Y-85943966D01*
X114714120Y-86221205D01*
X114714120Y-86503875D01*
X114769267Y-86781114D01*
X114877440Y-87042267D01*
X114933749Y-87126540D01*
X111637923Y-87126540D01*
X110362923Y-85851542D01*
X110339121Y-85822539D01*
X110223396Y-85727566D01*
X110091367Y-85656994D01*
X109948106Y-85613537D01*
X109836453Y-85602540D01*
X109836442Y-85602540D01*
X109799120Y-85598864D01*
X109761798Y-85602540D01*
X109747163Y-85602540D01*
X109643757Y-85447781D01*
X109443879Y-85247903D01*
X109211361Y-85092540D01*
X109443879Y-84937177D01*
X109643757Y-84737299D01*
X109800800Y-84502267D01*
X109908973Y-84241114D01*
X109964120Y-83963875D01*
X109964120Y-83681205D01*
X109908973Y-83403966D01*
X109800800Y-83142813D01*
X109643757Y-82907781D01*
X109443879Y-82707903D01*
X109211361Y-82552540D01*
X109443879Y-82397177D01*
X109643757Y-82197299D01*
X109747163Y-82042540D01*
X135103393Y-82042540D01*
X135191618Y-82150042D01*
X135379671Y-82304373D01*
X135594219Y-82419051D01*
X135827018Y-82489670D01*
X136008455Y-82507540D01*
X136699318Y-82507540D01*
X136629318Y-82577540D01*
X136008455Y-82577540D01*
X135827018Y-82595410D01*
X135594219Y-82666029D01*
X135379671Y-82780707D01*
X135191618Y-82935038D01*
X135037287Y-83123091D01*
X134922609Y-83337639D01*
X134851990Y-83570438D01*
X134828145Y-83812540D01*
X134851990Y-84054642D01*
X134922609Y-84287441D01*
X135037287Y-84501989D01*
X135191618Y-84690042D01*
X135379671Y-84844373D01*
X135594219Y-84959051D01*
X135827018Y-85029670D01*
X136008455Y-85047540D01*
X136929785Y-85047540D01*
X137111222Y-85029670D01*
X137344021Y-84959051D01*
X137558569Y-84844373D01*
X137746622Y-84690042D01*
X137900953Y-84501989D01*
X138015631Y-84287441D01*
X138086250Y-84054642D01*
X138110095Y-83812540D01*
X138086250Y-83570438D01*
X138016374Y-83340088D01*
X138305133Y-83051329D01*
X138334131Y-83027531D01*
X138360462Y-82995447D01*
X138429104Y-82911807D01*
X138499676Y-82779777D01*
X138521478Y-82707903D01*
X138543133Y-82636516D01*
X138554130Y-82524863D01*
X138554130Y-82524854D01*
X138557806Y-82487531D01*
X138554130Y-82450208D01*
X138554130Y-80926711D01*
X138557806Y-80889388D01*
X138554130Y-80852065D01*
X138554130Y-80852056D01*
X138543133Y-80740403D01*
X138499676Y-80597142D01*
X138429104Y-80465113D01*
X138334131Y-80349388D01*
X138305133Y-80325591D01*
X137816074Y-79836532D01*
X137792272Y-79807529D01*
X137676547Y-79712556D01*
X137643338Y-79694805D01*
X137746622Y-79610042D01*
X137900953Y-79421989D01*
X138015631Y-79207441D01*
X138086250Y-78974642D01*
X138110095Y-78732540D01*
X138086250Y-78490438D01*
X138015631Y-78257639D01*
X137900953Y-78043091D01*
X137746622Y-77855038D01*
X137558569Y-77700707D01*
X137344021Y-77586029D01*
X137111222Y-77515410D01*
X136929785Y-77497540D01*
X136008455Y-77497540D01*
X135827018Y-77515410D01*
X135594219Y-77586029D01*
X135379671Y-77700707D01*
X135191618Y-77855038D01*
X135095187Y-77972540D01*
X124073922Y-77972540D01*
X123738922Y-77637540D01*
X123910455Y-77637540D01*
X124187694Y-77582393D01*
X124448847Y-77474220D01*
X124683879Y-77317177D01*
X124883757Y-77117299D01*
X125040800Y-76882267D01*
X125045187Y-76871675D01*
X125156735Y-77057671D01*
X125345706Y-77266059D01*
X125571700Y-77433577D01*
X125826033Y-77553786D01*
X125960081Y-77594444D01*
X126182120Y-77472455D01*
X126182120Y-76329540D01*
X126162120Y-76329540D01*
X126162120Y-76075540D01*
X126182120Y-76075540D01*
X126182120Y-74932625D01*
X126436120Y-74932625D01*
X126436120Y-76075540D01*
X126456120Y-76075540D01*
X126456120Y-76329540D01*
X126436120Y-76329540D01*
X126436120Y-77472455D01*
X126658159Y-77594444D01*
X126792207Y-77553786D01*
X127046540Y-77433577D01*
X127272534Y-77266059D01*
X127461505Y-77057671D01*
X127573053Y-76871675D01*
X127577440Y-76882267D01*
X127734483Y-77117299D01*
X127934361Y-77317177D01*
X128169393Y-77474220D01*
X128430546Y-77582393D01*
X128707785Y-77637540D01*
X128990455Y-77637540D01*
X129267694Y-77582393D01*
X129528847Y-77474220D01*
X129763879Y-77317177D01*
X129963757Y-77117299D01*
X130120800Y-76882267D01*
X130125187Y-76871675D01*
X130236735Y-77057671D01*
X130425706Y-77266059D01*
X130651700Y-77433577D01*
X130906033Y-77553786D01*
X131040081Y-77594444D01*
X131262120Y-77472455D01*
X131262120Y-76329540D01*
X131516120Y-76329540D01*
X131516120Y-77472455D01*
X131738159Y-77594444D01*
X131872207Y-77553786D01*
X132126540Y-77433577D01*
X132352534Y-77266059D01*
X132541505Y-77057671D01*
X132686190Y-76816421D01*
X132781029Y-76551580D01*
X132659744Y-76329540D01*
X131516120Y-76329540D01*
X131262120Y-76329540D01*
X131242120Y-76329540D01*
X131242120Y-76075540D01*
X131262120Y-76075540D01*
X131262120Y-74932625D01*
X131516120Y-74932625D01*
X131516120Y-76075540D01*
X132659744Y-76075540D01*
X132781029Y-75853500D01*
X132686190Y-75588659D01*
X132541505Y-75347409D01*
X132352534Y-75139021D01*
X132126540Y-74971503D01*
X131872207Y-74851294D01*
X131738159Y-74810636D01*
X131516120Y-74932625D01*
X131262120Y-74932625D01*
X131040081Y-74810636D01*
X130906033Y-74851294D01*
X130651700Y-74971503D01*
X130425706Y-75139021D01*
X130236735Y-75347409D01*
X130125187Y-75533405D01*
X130120800Y-75522813D01*
X129963757Y-75287781D01*
X129763879Y-75087903D01*
X129528847Y-74930860D01*
X129267694Y-74822687D01*
X128990455Y-74767540D01*
X128707785Y-74767540D01*
X128430546Y-74822687D01*
X128169393Y-74930860D01*
X127934361Y-75087903D01*
X127734483Y-75287781D01*
X127577440Y-75522813D01*
X127573053Y-75533405D01*
X127461505Y-75347409D01*
X127272534Y-75139021D01*
X127046540Y-74971503D01*
X126792207Y-74851294D01*
X126658159Y-74810636D01*
X126436120Y-74932625D01*
X126182120Y-74932625D01*
X125960081Y-74810636D01*
X125826033Y-74851294D01*
X125571700Y-74971503D01*
X125345706Y-75139021D01*
X125156735Y-75347409D01*
X125045187Y-75533405D01*
X125040800Y-75522813D01*
X124883757Y-75287781D01*
X124683879Y-75087903D01*
X124448847Y-74930860D01*
X124187694Y-74822687D01*
X123910455Y-74767540D01*
X123627785Y-74767540D01*
X123445234Y-74803852D01*
X123063921Y-74422540D01*
X135103393Y-74422540D01*
X135191618Y-74530042D01*
X135379671Y-74684373D01*
X135594219Y-74799051D01*
X135827018Y-74869670D01*
X136008455Y-74887540D01*
X136699318Y-74887540D01*
X136629318Y-74957540D01*
X136008455Y-74957540D01*
X135827018Y-74975410D01*
X135594219Y-75046029D01*
X135379671Y-75160707D01*
X135191618Y-75315038D01*
X135037287Y-75503091D01*
X134922609Y-75717639D01*
X134851990Y-75950438D01*
X134828145Y-76192540D01*
X134851990Y-76434642D01*
X134922609Y-76667441D01*
X135037287Y-76881989D01*
X135191618Y-77070042D01*
X135379671Y-77224373D01*
X135594219Y-77339051D01*
X135827018Y-77409670D01*
X136008455Y-77427540D01*
X136929785Y-77427540D01*
X137111222Y-77409670D01*
X137344021Y-77339051D01*
X137558569Y-77224373D01*
X137746622Y-77070042D01*
X137900953Y-76881989D01*
X138015631Y-76667441D01*
X138086250Y-76434642D01*
X138110095Y-76192540D01*
X138086250Y-75950438D01*
X138016374Y-75720088D01*
X138305133Y-75431329D01*
X138334131Y-75407531D01*
X138383472Y-75347409D01*
X138429104Y-75291807D01*
X138499676Y-75159777D01*
X138505972Y-75139021D01*
X138543133Y-75016516D01*
X138554130Y-74904863D01*
X138554130Y-74904854D01*
X138557806Y-74867531D01*
X138554130Y-74830208D01*
X138554130Y-70766711D01*
X138557806Y-70729388D01*
X138554130Y-70692065D01*
X138554130Y-70692056D01*
X138543133Y-70580403D01*
X138499676Y-70437142D01*
X138429104Y-70305113D01*
X138334131Y-70189388D01*
X138305133Y-70165591D01*
X137816074Y-69676532D01*
X137792272Y-69647529D01*
X137676547Y-69552556D01*
X137643338Y-69534805D01*
X137746622Y-69450042D01*
X137900953Y-69261989D01*
X138015631Y-69047441D01*
X138086250Y-68814642D01*
X138110095Y-68572540D01*
X138086250Y-68330438D01*
X138015631Y-68097639D01*
X137900953Y-67883091D01*
X137746622Y-67695038D01*
X137558569Y-67540707D01*
X137354120Y-67431427D01*
X137354120Y-65832009D01*
X137358401Y-65788540D01*
X137354120Y-65745071D01*
X137354120Y-65745063D01*
X137341315Y-65615050D01*
X137307185Y-65502539D01*
X137290709Y-65448226D01*
X137208531Y-65294481D01*
X137125652Y-65193493D01*
X137125650Y-65193491D01*
X137097937Y-65159723D01*
X137064169Y-65132010D01*
X134331654Y-62399496D01*
X134303937Y-62365723D01*
X134169179Y-62255129D01*
X134015433Y-62172951D01*
X133848610Y-62122345D01*
X133718597Y-62109540D01*
X133718589Y-62109540D01*
X133675120Y-62105259D01*
X133631651Y-62109540D01*
X119240589Y-62109540D01*
X119197120Y-62105259D01*
X119153651Y-62109540D01*
X119153643Y-62109540D01*
X119038426Y-62120888D01*
X119023629Y-62122345D01*
X118973023Y-62137697D01*
X118856807Y-62172951D01*
X118703061Y-62255129D01*
X118632675Y-62312894D01*
X118602073Y-62338008D01*
X118602071Y-62338010D01*
X118568303Y-62365723D01*
X118540590Y-62399491D01*
X116325559Y-64614523D01*
X116290455Y-64607540D01*
X116007785Y-64607540D01*
X115972681Y-64614523D01*
X114265654Y-62907496D01*
X114237937Y-62873723D01*
X114103179Y-62763129D01*
X113949433Y-62680951D01*
X113782610Y-62630345D01*
X113652597Y-62617540D01*
X113652589Y-62617540D01*
X113609120Y-62613259D01*
X113565651Y-62617540D01*
X109663641Y-62617540D01*
X109643757Y-62587781D01*
X109443879Y-62387903D01*
X109208847Y-62230860D01*
X108947694Y-62122687D01*
X108670455Y-62067540D01*
X108387785Y-62067540D01*
X108110546Y-62122687D01*
X107849393Y-62230860D01*
X107614361Y-62387903D01*
X107414483Y-62587781D01*
X107257440Y-62822813D01*
X107149267Y-63083966D01*
X107094120Y-63361205D01*
X107094120Y-63643875D01*
X107130432Y-63826426D01*
X106799320Y-64157539D01*
X94727192Y-64157539D01*
X94727192Y-62702540D01*
X94714932Y-62578058D01*
X94678622Y-62458360D01*
X94619657Y-62348046D01*
X94540305Y-62251355D01*
X94443614Y-62172003D01*
X94333300Y-62113038D01*
X94213602Y-62076728D01*
X94089120Y-62064468D01*
X92489120Y-62064468D01*
X92364638Y-62076728D01*
X92244940Y-62113038D01*
X92134626Y-62172003D01*
X92037935Y-62251355D01*
X91958583Y-62348046D01*
X91899618Y-62458360D01*
X91863308Y-62578058D01*
X91851048Y-62702540D01*
X91851048Y-62742540D01*
X89487298Y-62742540D01*
X89362595Y-62555908D01*
X89155752Y-62349065D01*
X88912531Y-62186550D01*
X88642278Y-62074608D01*
X88355380Y-62017540D01*
X88062860Y-62017540D01*
X87775962Y-62074608D01*
X87505709Y-62186550D01*
X87262488Y-62349065D01*
X87055645Y-62555908D01*
X86893130Y-62799129D01*
X86781188Y-63069382D01*
X86724120Y-63356280D01*
X86724120Y-63648800D01*
X86767910Y-63868948D01*
X85920118Y-64716741D01*
X85891120Y-64740539D01*
X85867322Y-64769537D01*
X85867321Y-64769538D01*
X85796146Y-64856264D01*
X85725574Y-64988294D01*
X85707121Y-65049129D01*
X85682118Y-65131554D01*
X85674413Y-65209785D01*
X85667444Y-65280540D01*
X83814120Y-65280540D01*
X83814120Y-61647540D01*
X140864120Y-61647540D01*
X140864121Y-98377540D01*
%TA.AperFunction,Conductor*%
D19*
G36*
X140864121Y-98377540D02*
G01*
X83814120Y-98377540D01*
X83814120Y-97515242D01*
X87396023Y-97515242D01*
X87467606Y-97759211D01*
X87723116Y-97880111D01*
X87997304Y-97948840D01*
X88279632Y-97962757D01*
X88559250Y-97921327D01*
X88825412Y-97826143D01*
X88950634Y-97759211D01*
X89022217Y-97515242D01*
X89936023Y-97515242D01*
X90007606Y-97759211D01*
X90263116Y-97880111D01*
X90537304Y-97948840D01*
X90819632Y-97962757D01*
X91099250Y-97921327D01*
X91365412Y-97826143D01*
X91490634Y-97759211D01*
X91562217Y-97515242D01*
X90749120Y-96702145D01*
X89936023Y-97515242D01*
X89022217Y-97515242D01*
X88209120Y-96702145D01*
X87396023Y-97515242D01*
X83814120Y-97515242D01*
X83814120Y-96593052D01*
X86768903Y-96593052D01*
X86810333Y-96872670D01*
X86905517Y-97138832D01*
X86972449Y-97264054D01*
X87216418Y-97335637D01*
X88029515Y-96522540D01*
X88388725Y-96522540D01*
X89201822Y-97335637D01*
X89445791Y-97264054D01*
X89477091Y-97197904D01*
X89512449Y-97264054D01*
X89756418Y-97335637D01*
X90569515Y-96522540D01*
X89756418Y-95709443D01*
X89512449Y-95781026D01*
X89481149Y-95847176D01*
X89445791Y-95781026D01*
X89201822Y-95709443D01*
X88388725Y-96522540D01*
X88029515Y-96522540D01*
X87216418Y-95709443D01*
X86972449Y-95781026D01*
X86851549Y-96036536D01*
X86782820Y-96310724D01*
X86768903Y-96593052D01*
X83814120Y-96593052D01*
X83814120Y-95529838D01*
X87396023Y-95529838D01*
X88209120Y-96342935D01*
X89022217Y-95529838D01*
X89936023Y-95529838D01*
X90749120Y-96342935D01*
X91562217Y-95529838D01*
X91490634Y-95285869D01*
X91235124Y-95164969D01*
X90960936Y-95096240D01*
X90678608Y-95082323D01*
X90398990Y-95123753D01*
X90132828Y-95218937D01*
X90007606Y-95285869D01*
X89936023Y-95529838D01*
X89022217Y-95529838D01*
X88950634Y-95285869D01*
X88695124Y-95164969D01*
X88420936Y-95096240D01*
X88138608Y-95082323D01*
X87858990Y-95123753D01*
X87592828Y-95218937D01*
X87467606Y-95285869D01*
X87396023Y-95529838D01*
X83814120Y-95529838D01*
X83814120Y-65280540D01*
X85667444Y-65280540D01*
X85671121Y-65317872D01*
X85671120Y-72609218D01*
X85667444Y-72646540D01*
X85671120Y-72683862D01*
X85671120Y-72683872D01*
X85682117Y-72795525D01*
X85710431Y-72888864D01*
X85725574Y-72938786D01*
X85796146Y-73070816D01*
X85810857Y-73088741D01*
X85891119Y-73186541D01*
X85920123Y-73210344D01*
X87449121Y-74739343D01*
X87449120Y-80064496D01*
X87294361Y-80167903D01*
X87094483Y-80367781D01*
X86937440Y-80602813D01*
X86829267Y-80863966D01*
X86774120Y-81141205D01*
X86774120Y-81423875D01*
X86829267Y-81701114D01*
X86937440Y-81962267D01*
X87094483Y-82197299D01*
X87294361Y-82397177D01*
X87529393Y-82554220D01*
X87790546Y-82662393D01*
X88067785Y-82717540D01*
X88350455Y-82717540D01*
X88627694Y-82662393D01*
X88888847Y-82554220D01*
X89123879Y-82397177D01*
X89323757Y-82197299D01*
X89479120Y-81964781D01*
X89634483Y-82197299D01*
X89834361Y-82397177D01*
X90069393Y-82554220D01*
X90330546Y-82662393D01*
X90607785Y-82717540D01*
X90890455Y-82717540D01*
X91167694Y-82662393D01*
X91428847Y-82554220D01*
X91663879Y-82397177D01*
X91863757Y-82197299D01*
X92019120Y-81964781D01*
X92174483Y-82197299D01*
X92374361Y-82397177D01*
X92606879Y-82552540D01*
X92374361Y-82707903D01*
X92174483Y-82907781D01*
X92017440Y-83142813D01*
X91909267Y-83403966D01*
X91854120Y-83681205D01*
X91854120Y-83963875D01*
X91909267Y-84241114D01*
X92017440Y-84502267D01*
X92174483Y-84737299D01*
X92374361Y-84937177D01*
X92606879Y-85092540D01*
X92374361Y-85247903D01*
X92174483Y-85447781D01*
X92017440Y-85682813D01*
X91909267Y-85943966D01*
X91854120Y-86221205D01*
X91854120Y-86503875D01*
X91909267Y-86781114D01*
X92017440Y-87042267D01*
X92174483Y-87277299D01*
X92374361Y-87477177D01*
X92606879Y-87632540D01*
X92374361Y-87787903D01*
X92174483Y-87987781D01*
X92017440Y-88222813D01*
X91909267Y-88483966D01*
X91854120Y-88761205D01*
X91854120Y-89043875D01*
X91909267Y-89321114D01*
X92017440Y-89582267D01*
X92174483Y-89817299D01*
X92374361Y-90017177D01*
X92606879Y-90172540D01*
X92374361Y-90327903D01*
X92174483Y-90527781D01*
X92017440Y-90762813D01*
X91909267Y-91023966D01*
X91854120Y-91301205D01*
X91854120Y-91583875D01*
X91909267Y-91861114D01*
X92017440Y-92122267D01*
X92174483Y-92357299D01*
X92374361Y-92557177D01*
X92606879Y-92712540D01*
X92374361Y-92867903D01*
X92174483Y-93067781D01*
X92017440Y-93302813D01*
X91909267Y-93563966D01*
X91854120Y-93841205D01*
X91854120Y-94123875D01*
X91909267Y-94401114D01*
X92017440Y-94662267D01*
X92174483Y-94897299D01*
X92374361Y-95097177D01*
X92609393Y-95254220D01*
X92619985Y-95258607D01*
X92433989Y-95370155D01*
X92225601Y-95559126D01*
X92058083Y-95785120D01*
X92025184Y-95854726D01*
X91985791Y-95781026D01*
X91741822Y-95709443D01*
X90928725Y-96522540D01*
X91741822Y-97335637D01*
X91985791Y-97264054D01*
X92022925Y-97185575D01*
X92058083Y-97259960D01*
X92225601Y-97485954D01*
X92433989Y-97674925D01*
X92675239Y-97819610D01*
X92940080Y-97914449D01*
X93162120Y-97793164D01*
X93162120Y-96649540D01*
X93416120Y-96649540D01*
X93416120Y-97793164D01*
X93638160Y-97914449D01*
X93903001Y-97819610D01*
X94144251Y-97674925D01*
X94352639Y-97485954D01*
X94520157Y-97259960D01*
X94640366Y-97005627D01*
X94681024Y-96871579D01*
X94669251Y-96850149D01*
X96775658Y-96850149D01*
X96779529Y-96887822D01*
X96871699Y-97113073D01*
X97006042Y-97316014D01*
X97177395Y-97488847D01*
X97379174Y-97624930D01*
X97603624Y-97719033D01*
X97842120Y-97767540D01*
X98242120Y-97767540D01*
X98242120Y-96659540D01*
X98496120Y-96659540D01*
X98496120Y-97767540D01*
X98896120Y-97767540D01*
X99134616Y-97719033D01*
X99359066Y-97624930D01*
X99560845Y-97488847D01*
X99732198Y-97316014D01*
X99866541Y-97113073D01*
X99958711Y-96887822D01*
X99962582Y-96850149D01*
X99837851Y-96659540D01*
X98496120Y-96659540D01*
X98242120Y-96659540D01*
X96900389Y-96659540D01*
X96775658Y-96850149D01*
X94669251Y-96850149D01*
X94559035Y-96649540D01*
X93416120Y-96649540D01*
X93162120Y-96649540D01*
X93142120Y-96649540D01*
X93142120Y-96395540D01*
X93162120Y-96395540D01*
X93162120Y-96375540D01*
X93416120Y-96375540D01*
X93416120Y-96395540D01*
X94559035Y-96395540D01*
X94658262Y-96214931D01*
X96775658Y-96214931D01*
X96900389Y-96405540D01*
X98242120Y-96405540D01*
X98242120Y-95297540D01*
X98496120Y-95297540D01*
X98496120Y-96405540D01*
X99837851Y-96405540D01*
X99962582Y-96214931D01*
X99958711Y-96177258D01*
X99866541Y-95952007D01*
X99732198Y-95749066D01*
X99560845Y-95576233D01*
X99359066Y-95440150D01*
X99134616Y-95346047D01*
X98896120Y-95297540D01*
X98496120Y-95297540D01*
X98242120Y-95297540D01*
X97842120Y-95297540D01*
X97603624Y-95346047D01*
X97379174Y-95440150D01*
X97177395Y-95576233D01*
X97006042Y-95749066D01*
X96871699Y-95952007D01*
X96779529Y-96177258D01*
X96775658Y-96214931D01*
X94658262Y-96214931D01*
X94681024Y-96173501D01*
X94640366Y-96039453D01*
X94520157Y-95785120D01*
X94352639Y-95559126D01*
X94144251Y-95370155D01*
X93958255Y-95258607D01*
X93968847Y-95254220D01*
X94203879Y-95097177D01*
X94403757Y-94897299D01*
X94507163Y-94742540D01*
X96986980Y-94742540D01*
X97091618Y-94870042D01*
X97279671Y-95024373D01*
X97494219Y-95139051D01*
X97727018Y-95209670D01*
X97908455Y-95227540D01*
X98829785Y-95227540D01*
X99011222Y-95209670D01*
X99244021Y-95139051D01*
X99458569Y-95024373D01*
X99646622Y-94870042D01*
X99800953Y-94681989D01*
X99915631Y-94467441D01*
X99986250Y-94234642D01*
X100010095Y-93992540D01*
X99986250Y-93750438D01*
X99915631Y-93517639D01*
X99800953Y-93303091D01*
X99646622Y-93115038D01*
X99458569Y-92960707D01*
X99244021Y-92846029D01*
X99011222Y-92775410D01*
X98829785Y-92757540D01*
X97908455Y-92757540D01*
X97727018Y-92775410D01*
X97494219Y-92846029D01*
X97279671Y-92960707D01*
X97091618Y-93115038D01*
X97003393Y-93222540D01*
X94507163Y-93222540D01*
X94403757Y-93067781D01*
X94203879Y-92867903D01*
X93971361Y-92712540D01*
X94203879Y-92557177D01*
X94403757Y-92357299D01*
X94507163Y-92202540D01*
X96986980Y-92202540D01*
X97091618Y-92330042D01*
X97279671Y-92484373D01*
X97494219Y-92599051D01*
X97727018Y-92669670D01*
X97908455Y-92687540D01*
X98829785Y-92687540D01*
X99011222Y-92669670D01*
X99244021Y-92599051D01*
X99458569Y-92484373D01*
X99646622Y-92330042D01*
X99800953Y-92141989D01*
X99915631Y-91927441D01*
X99986250Y-91694642D01*
X100010095Y-91452540D01*
X99986250Y-91210438D01*
X99915631Y-90977639D01*
X99800953Y-90763091D01*
X99646622Y-90575038D01*
X99458569Y-90420707D01*
X99244021Y-90306029D01*
X99011222Y-90235410D01*
X98829785Y-90217540D01*
X97908455Y-90217540D01*
X97727018Y-90235410D01*
X97494219Y-90306029D01*
X97279671Y-90420707D01*
X97091618Y-90575038D01*
X97003393Y-90682540D01*
X94507163Y-90682540D01*
X94403757Y-90527781D01*
X94203879Y-90327903D01*
X93971361Y-90172540D01*
X94203879Y-90017177D01*
X94403757Y-89817299D01*
X94507163Y-89662540D01*
X96986980Y-89662540D01*
X97091618Y-89790042D01*
X97279671Y-89944373D01*
X97494219Y-90059051D01*
X97727018Y-90129670D01*
X97908455Y-90147540D01*
X98829785Y-90147540D01*
X99011222Y-90129670D01*
X99244021Y-90059051D01*
X99458569Y-89944373D01*
X99646622Y-89790042D01*
X99800953Y-89601989D01*
X99915631Y-89387441D01*
X99986250Y-89154642D01*
X100010095Y-88912540D01*
X99986250Y-88670438D01*
X99915631Y-88437639D01*
X99800953Y-88223091D01*
X99646622Y-88035038D01*
X99458569Y-87880707D01*
X99244021Y-87766029D01*
X99011222Y-87695410D01*
X98829785Y-87677540D01*
X97908455Y-87677540D01*
X97727018Y-87695410D01*
X97494219Y-87766029D01*
X97279671Y-87880707D01*
X97091618Y-88035038D01*
X97003393Y-88142540D01*
X94507163Y-88142540D01*
X94403757Y-87987781D01*
X94203879Y-87787903D01*
X93971361Y-87632540D01*
X94203879Y-87477177D01*
X94403757Y-87277299D01*
X94507163Y-87122540D01*
X96986980Y-87122540D01*
X97091618Y-87250042D01*
X97279671Y-87404373D01*
X97494219Y-87519051D01*
X97727018Y-87589670D01*
X97908455Y-87607540D01*
X98829785Y-87607540D01*
X99011222Y-87589670D01*
X99244021Y-87519051D01*
X99458569Y-87404373D01*
X99646622Y-87250042D01*
X99800953Y-87061989D01*
X99915631Y-86847441D01*
X99986250Y-86614642D01*
X100010095Y-86372540D01*
X99986250Y-86130438D01*
X99915631Y-85897639D01*
X99800953Y-85683091D01*
X99646622Y-85495038D01*
X99458569Y-85340707D01*
X99244021Y-85226029D01*
X99011222Y-85155410D01*
X98829785Y-85137540D01*
X97908455Y-85137540D01*
X97727018Y-85155410D01*
X97494219Y-85226029D01*
X97279671Y-85340707D01*
X97091618Y-85495038D01*
X97003393Y-85602540D01*
X94507163Y-85602540D01*
X94403757Y-85447781D01*
X94203879Y-85247903D01*
X93971361Y-85092540D01*
X94203879Y-84937177D01*
X94403757Y-84737299D01*
X94507163Y-84582540D01*
X96986980Y-84582540D01*
X97091618Y-84710042D01*
X97279671Y-84864373D01*
X97494219Y-84979051D01*
X97727018Y-85049670D01*
X97908455Y-85067540D01*
X98829785Y-85067540D01*
X99011222Y-85049670D01*
X99244021Y-84979051D01*
X99458569Y-84864373D01*
X99646622Y-84710042D01*
X99800953Y-84521989D01*
X99915631Y-84307441D01*
X99986250Y-84074642D01*
X100010095Y-83832540D01*
X99986250Y-83590438D01*
X99915631Y-83357639D01*
X99800953Y-83143091D01*
X99646622Y-82955038D01*
X99458569Y-82800707D01*
X99244021Y-82686029D01*
X99011222Y-82615410D01*
X98829785Y-82597540D01*
X97908455Y-82597540D01*
X97727018Y-82615410D01*
X97494219Y-82686029D01*
X97279671Y-82800707D01*
X97091618Y-82955038D01*
X97003393Y-83062540D01*
X94507163Y-83062540D01*
X94403757Y-82907781D01*
X94203879Y-82707903D01*
X93971361Y-82552540D01*
X94203879Y-82397177D01*
X94403757Y-82197299D01*
X94507163Y-82042540D01*
X96986980Y-82042540D01*
X97091618Y-82170042D01*
X97279671Y-82324373D01*
X97494219Y-82439051D01*
X97727018Y-82509670D01*
X97908455Y-82527540D01*
X98829785Y-82527540D01*
X99011222Y-82509670D01*
X99244021Y-82439051D01*
X99458569Y-82324373D01*
X99646622Y-82170042D01*
X99800953Y-81981989D01*
X99915631Y-81767441D01*
X99986250Y-81534642D01*
X100010095Y-81292540D01*
X99986250Y-81050438D01*
X99915631Y-80817639D01*
X99800953Y-80603091D01*
X99646622Y-80415038D01*
X99458569Y-80260707D01*
X99244021Y-80146029D01*
X99011222Y-80075410D01*
X98829785Y-80057540D01*
X97908455Y-80057540D01*
X97727018Y-80075410D01*
X97494219Y-80146029D01*
X97279671Y-80260707D01*
X97091618Y-80415038D01*
X97003393Y-80522540D01*
X94507163Y-80522540D01*
X94403757Y-80367781D01*
X94203879Y-80167903D01*
X93971361Y-80012540D01*
X94203879Y-79857177D01*
X94403757Y-79657299D01*
X94507163Y-79502540D01*
X96986980Y-79502540D01*
X97091618Y-79630042D01*
X97279671Y-79784373D01*
X97494219Y-79899051D01*
X97727018Y-79969670D01*
X97908455Y-79987540D01*
X98829785Y-79987540D01*
X99011222Y-79969670D01*
X99244021Y-79899051D01*
X99458569Y-79784373D01*
X99646622Y-79630042D01*
X99800953Y-79441989D01*
X99915631Y-79227441D01*
X99986250Y-78994642D01*
X100010095Y-78752540D01*
X99986250Y-78510438D01*
X99915631Y-78277639D01*
X99800953Y-78063091D01*
X99646622Y-77875038D01*
X99458569Y-77720707D01*
X99244021Y-77606029D01*
X99011222Y-77535410D01*
X98829785Y-77517540D01*
X97908455Y-77517540D01*
X97727018Y-77535410D01*
X97494219Y-77606029D01*
X97279671Y-77720707D01*
X97091618Y-77875038D01*
X97003393Y-77982540D01*
X94507163Y-77982540D01*
X94403757Y-77827781D01*
X94203879Y-77627903D01*
X93971361Y-77472540D01*
X94203879Y-77317177D01*
X94403757Y-77117299D01*
X94507163Y-76962540D01*
X96986980Y-76962540D01*
X97091618Y-77090042D01*
X97279671Y-77244373D01*
X97494219Y-77359051D01*
X97727018Y-77429670D01*
X97908455Y-77447540D01*
X98829785Y-77447540D01*
X99011222Y-77429670D01*
X99244021Y-77359051D01*
X99458569Y-77244373D01*
X99646622Y-77090042D01*
X99800953Y-76901989D01*
X99915631Y-76687441D01*
X99986250Y-76454642D01*
X100010095Y-76212540D01*
X99986250Y-75970438D01*
X99915631Y-75737639D01*
X99800953Y-75523091D01*
X99646622Y-75335038D01*
X99458569Y-75180707D01*
X99244021Y-75066029D01*
X99011222Y-74995410D01*
X98829785Y-74977540D01*
X97908455Y-74977540D01*
X97727018Y-74995410D01*
X97494219Y-75066029D01*
X97279671Y-75180707D01*
X97091618Y-75335038D01*
X97003393Y-75442540D01*
X94507163Y-75442540D01*
X94403757Y-75287781D01*
X94203879Y-75087903D01*
X93971361Y-74932540D01*
X94203879Y-74777177D01*
X94403757Y-74577299D01*
X94507163Y-74422540D01*
X96986980Y-74422540D01*
X97091618Y-74550042D01*
X97279671Y-74704373D01*
X97494219Y-74819051D01*
X97727018Y-74889670D01*
X97908455Y-74907540D01*
X98829785Y-74907540D01*
X99011222Y-74889670D01*
X99244021Y-74819051D01*
X99458569Y-74704373D01*
X99646622Y-74550042D01*
X99800953Y-74361989D01*
X99915631Y-74147441D01*
X99986250Y-73914642D01*
X100010095Y-73672540D01*
X99986250Y-73430438D01*
X99915631Y-73197639D01*
X99800953Y-72983091D01*
X99646622Y-72795038D01*
X99458569Y-72640707D01*
X99244021Y-72526029D01*
X99011222Y-72455410D01*
X98829785Y-72437540D01*
X97908455Y-72437540D01*
X97727018Y-72455410D01*
X97494219Y-72526029D01*
X97279671Y-72640707D01*
X97091618Y-72795038D01*
X97003393Y-72902540D01*
X94507163Y-72902540D01*
X94403757Y-72747781D01*
X94203879Y-72547903D01*
X93971361Y-72392540D01*
X94203879Y-72237177D01*
X94403757Y-72037299D01*
X94507163Y-71882540D01*
X96986980Y-71882540D01*
X97091618Y-72010042D01*
X97279671Y-72164373D01*
X97494219Y-72279051D01*
X97727018Y-72349670D01*
X97908455Y-72367540D01*
X98829785Y-72367540D01*
X99011222Y-72349670D01*
X99244021Y-72279051D01*
X99458569Y-72164373D01*
X99646622Y-72010042D01*
X99800953Y-71821989D01*
X99915631Y-71607441D01*
X99986250Y-71374642D01*
X100010095Y-71132540D01*
X99986250Y-70890438D01*
X99915631Y-70657639D01*
X99800953Y-70443091D01*
X99646622Y-70255038D01*
X99458569Y-70100707D01*
X99244021Y-69986029D01*
X99011222Y-69915410D01*
X98829785Y-69897540D01*
X97908455Y-69897540D01*
X97727018Y-69915410D01*
X97494219Y-69986029D01*
X97279671Y-70100707D01*
X97091618Y-70255038D01*
X97003393Y-70362540D01*
X94507163Y-70362540D01*
X94403757Y-70207781D01*
X94203879Y-70007903D01*
X93971361Y-69852540D01*
X94203879Y-69697177D01*
X94403757Y-69497299D01*
X94507163Y-69342540D01*
X96986980Y-69342540D01*
X97091618Y-69470042D01*
X97279671Y-69624373D01*
X97494219Y-69739051D01*
X97727018Y-69809670D01*
X97908455Y-69827540D01*
X98829785Y-69827540D01*
X99011222Y-69809670D01*
X99244021Y-69739051D01*
X99458569Y-69624373D01*
X99646622Y-69470042D01*
X99800953Y-69281989D01*
X99915631Y-69067441D01*
X99986250Y-68834642D01*
X100010095Y-68592540D01*
X99986250Y-68350438D01*
X99945935Y-68217539D01*
X107076799Y-68217539D01*
X107114121Y-68221215D01*
X107138354Y-68218828D01*
X107094120Y-68441205D01*
X107094120Y-68723875D01*
X107130432Y-68906427D01*
X106893117Y-69143742D01*
X106864119Y-69167540D01*
X106840321Y-69196538D01*
X106840320Y-69196539D01*
X106769145Y-69283265D01*
X106698573Y-69415295D01*
X106681217Y-69472512D01*
X106655117Y-69558555D01*
X106646433Y-69646728D01*
X106640443Y-69707541D01*
X106644120Y-69744873D01*
X106644119Y-74165218D01*
X106640443Y-74202541D01*
X106644119Y-74239863D01*
X106644119Y-74239873D01*
X106655116Y-74351526D01*
X106677773Y-74426216D01*
X106698573Y-74494787D01*
X106769145Y-74626817D01*
X106808990Y-74675367D01*
X106864118Y-74742542D01*
X106893121Y-74766344D01*
X107414520Y-75287744D01*
X107414483Y-75287781D01*
X107257440Y-75522813D01*
X107149267Y-75783966D01*
X107094120Y-76061205D01*
X107094120Y-76343875D01*
X107149267Y-76621114D01*
X107257440Y-76882267D01*
X107414483Y-77117299D01*
X107614361Y-77317177D01*
X107849393Y-77474220D01*
X107859985Y-77478607D01*
X107673989Y-77590155D01*
X107465601Y-77779126D01*
X107298083Y-78005120D01*
X107177874Y-78259453D01*
X107137216Y-78393501D01*
X107259205Y-78615540D01*
X108402120Y-78615540D01*
X108402120Y-78595540D01*
X108656120Y-78595540D01*
X108656120Y-78615540D01*
X109799035Y-78615540D01*
X109921024Y-78393501D01*
X109880366Y-78259453D01*
X109760157Y-78005120D01*
X109592639Y-77779126D01*
X109384251Y-77590155D01*
X109198255Y-77478607D01*
X109208847Y-77474220D01*
X109443879Y-77317177D01*
X109643757Y-77117299D01*
X109747163Y-76962540D01*
X109992319Y-76962540D01*
X110563120Y-77533342D01*
X110563121Y-78137369D01*
X110559444Y-78174701D01*
X110563121Y-78212034D01*
X110574118Y-78323687D01*
X110587300Y-78367143D01*
X110617574Y-78466947D01*
X110688146Y-78598977D01*
X110759321Y-78685703D01*
X110783120Y-78714702D01*
X110812118Y-78738500D01*
X112596157Y-80522540D01*
X109747163Y-80522540D01*
X109643757Y-80367781D01*
X109443879Y-80167903D01*
X109208847Y-80010860D01*
X109198255Y-80006473D01*
X109384251Y-79894925D01*
X109592639Y-79705954D01*
X109760157Y-79479960D01*
X109880366Y-79225627D01*
X109921024Y-79091579D01*
X109799035Y-78869540D01*
X108656120Y-78869540D01*
X108656120Y-78889540D01*
X108402120Y-78889540D01*
X108402120Y-78869540D01*
X107259205Y-78869540D01*
X107137216Y-79091579D01*
X107177874Y-79225627D01*
X107298083Y-79479960D01*
X107465601Y-79705954D01*
X107673989Y-79894925D01*
X107859985Y-80006473D01*
X107849393Y-80010860D01*
X107614361Y-80167903D01*
X107414483Y-80367781D01*
X107257440Y-80602813D01*
X107149267Y-80863966D01*
X107094120Y-81141205D01*
X107094120Y-81423875D01*
X107149267Y-81701114D01*
X107257440Y-81962267D01*
X107414483Y-82197299D01*
X107614361Y-82397177D01*
X107846879Y-82552540D01*
X107614361Y-82707903D01*
X107414483Y-82907781D01*
X107257440Y-83142813D01*
X107149267Y-83403966D01*
X107094120Y-83681205D01*
X107094120Y-83963875D01*
X107149267Y-84241114D01*
X107257440Y-84502267D01*
X107414483Y-84737299D01*
X107614361Y-84937177D01*
X107846879Y-85092540D01*
X107614361Y-85247903D01*
X107414483Y-85447781D01*
X107257440Y-85682813D01*
X107149267Y-85943966D01*
X107094120Y-86221205D01*
X107094120Y-86503875D01*
X107149267Y-86781114D01*
X107257440Y-87042267D01*
X107414483Y-87277299D01*
X107614361Y-87477177D01*
X107846879Y-87632540D01*
X107614361Y-87787903D01*
X107414483Y-87987781D01*
X107257440Y-88222813D01*
X107149267Y-88483966D01*
X107094120Y-88761205D01*
X107094120Y-89043875D01*
X107149267Y-89321114D01*
X107257440Y-89582267D01*
X107414483Y-89817299D01*
X107614361Y-90017177D01*
X107846879Y-90172540D01*
X107614361Y-90327903D01*
X107414483Y-90527781D01*
X107257440Y-90762813D01*
X107149267Y-91023966D01*
X107094120Y-91301205D01*
X107094120Y-91583875D01*
X107149267Y-91861114D01*
X107257440Y-92122267D01*
X107414483Y-92357299D01*
X107614361Y-92557177D01*
X107846879Y-92712540D01*
X107614361Y-92867903D01*
X107414483Y-93067781D01*
X107257440Y-93302813D01*
X107149267Y-93563966D01*
X107094120Y-93841205D01*
X107094120Y-94123875D01*
X107149267Y-94401114D01*
X107257440Y-94662267D01*
X107414483Y-94897299D01*
X107614361Y-95097177D01*
X107846879Y-95252540D01*
X107614361Y-95407903D01*
X107414483Y-95607781D01*
X107257440Y-95842813D01*
X107149267Y-96103966D01*
X107094120Y-96381205D01*
X107094120Y-96663875D01*
X107149267Y-96941114D01*
X107257440Y-97202267D01*
X107414483Y-97437299D01*
X107614361Y-97637177D01*
X107849393Y-97794220D01*
X108110546Y-97902393D01*
X108387785Y-97957540D01*
X108670455Y-97957540D01*
X108947694Y-97902393D01*
X109208847Y-97794220D01*
X109443879Y-97637177D01*
X109643757Y-97437299D01*
X109747163Y-97282540D01*
X135103393Y-97282540D01*
X135191618Y-97390042D01*
X135379671Y-97544373D01*
X135594219Y-97659051D01*
X135827018Y-97729670D01*
X136008455Y-97747540D01*
X136929785Y-97747540D01*
X137111222Y-97729670D01*
X137344021Y-97659051D01*
X137558569Y-97544373D01*
X137746622Y-97390042D01*
X137900953Y-97201989D01*
X138015631Y-96987441D01*
X138086250Y-96754642D01*
X138110095Y-96512540D01*
X138086250Y-96270438D01*
X138015631Y-96037639D01*
X137900953Y-95823091D01*
X137746622Y-95635038D01*
X137558569Y-95480707D01*
X137344021Y-95366029D01*
X137111222Y-95295410D01*
X136929785Y-95277540D01*
X136238922Y-95277540D01*
X136308922Y-95207540D01*
X136929785Y-95207540D01*
X137111222Y-95189670D01*
X137344021Y-95119051D01*
X137558569Y-95004373D01*
X137746622Y-94850042D01*
X137900953Y-94661989D01*
X138015631Y-94447441D01*
X138086250Y-94214642D01*
X138110095Y-93972540D01*
X138086250Y-93730438D01*
X138015631Y-93497639D01*
X137900953Y-93283091D01*
X137746622Y-93095038D01*
X137558569Y-92940707D01*
X137344021Y-92826029D01*
X137111222Y-92755410D01*
X136929785Y-92737540D01*
X136008455Y-92737540D01*
X135827018Y-92755410D01*
X135594219Y-92826029D01*
X135379671Y-92940707D01*
X135191618Y-93095038D01*
X135037287Y-93283091D01*
X134922609Y-93497639D01*
X134851990Y-93730438D01*
X134828145Y-93972540D01*
X134851990Y-94214642D01*
X134921866Y-94444992D01*
X134366319Y-95000540D01*
X132393812Y-95000540D01*
X132541505Y-94837671D01*
X132686190Y-94596421D01*
X132781029Y-94331580D01*
X132659744Y-94109540D01*
X131516120Y-94109540D01*
X131516120Y-94129540D01*
X131262120Y-94129540D01*
X131262120Y-94109540D01*
X128976120Y-94109540D01*
X128976120Y-94129540D01*
X128722120Y-94129540D01*
X128722120Y-94109540D01*
X126436120Y-94109540D01*
X126436120Y-94129540D01*
X126182120Y-94129540D01*
X126182120Y-94109540D01*
X126162120Y-94109540D01*
X126162120Y-93855540D01*
X126182120Y-93855540D01*
X126182120Y-92712625D01*
X126436120Y-92712625D01*
X126436120Y-93855540D01*
X128722120Y-93855540D01*
X128722120Y-92712625D01*
X128976120Y-92712625D01*
X128976120Y-93855540D01*
X131262120Y-93855540D01*
X131262120Y-92712625D01*
X131516120Y-92712625D01*
X131516120Y-93855540D01*
X132659744Y-93855540D01*
X132781029Y-93633500D01*
X132686190Y-93368659D01*
X132541505Y-93127409D01*
X132352534Y-92919021D01*
X132126540Y-92751503D01*
X131872207Y-92631294D01*
X131738159Y-92590636D01*
X131516120Y-92712625D01*
X131262120Y-92712625D01*
X131040081Y-92590636D01*
X130906033Y-92631294D01*
X130651700Y-92751503D01*
X130425706Y-92919021D01*
X130236735Y-93127409D01*
X130119120Y-93323522D01*
X130001505Y-93127409D01*
X129812534Y-92919021D01*
X129586540Y-92751503D01*
X129332207Y-92631294D01*
X129198159Y-92590636D01*
X128976120Y-92712625D01*
X128722120Y-92712625D01*
X128500081Y-92590636D01*
X128366033Y-92631294D01*
X128111700Y-92751503D01*
X127885706Y-92919021D01*
X127696735Y-93127409D01*
X127579120Y-93323522D01*
X127461505Y-93127409D01*
X127272534Y-92919021D01*
X127046540Y-92751503D01*
X126792207Y-92631294D01*
X126658159Y-92590636D01*
X126436120Y-92712625D01*
X126182120Y-92712625D01*
X125960081Y-92590636D01*
X125826033Y-92631294D01*
X125571700Y-92751503D01*
X125345706Y-92919021D01*
X125156735Y-93127409D01*
X125045187Y-93313405D01*
X125040800Y-93302813D01*
X124883757Y-93067781D01*
X124683879Y-92867903D01*
X124448847Y-92710860D01*
X124187694Y-92602687D01*
X123910455Y-92547540D01*
X123627785Y-92547540D01*
X123350546Y-92602687D01*
X123089393Y-92710860D01*
X122854361Y-92867903D01*
X122654483Y-93067781D01*
X122499120Y-93300299D01*
X122343757Y-93067781D01*
X122143879Y-92867903D01*
X121908847Y-92710860D01*
X121647694Y-92602687D01*
X121370455Y-92547540D01*
X121087785Y-92547540D01*
X120810546Y-92602687D01*
X120549393Y-92710860D01*
X120314361Y-92867903D01*
X120114483Y-93067781D01*
X119959120Y-93300299D01*
X119803757Y-93067781D01*
X119603879Y-92867903D01*
X119368847Y-92710860D01*
X119107694Y-92602687D01*
X118830455Y-92547540D01*
X118547785Y-92547540D01*
X118270546Y-92602687D01*
X118009393Y-92710860D01*
X117774361Y-92867903D01*
X117575763Y-93066501D01*
X117574932Y-93058058D01*
X117538622Y-92938360D01*
X117479657Y-92828046D01*
X117400305Y-92731355D01*
X117303614Y-92652003D01*
X117193300Y-92593038D01*
X117073602Y-92556728D01*
X116949120Y-92544468D01*
X115349120Y-92544468D01*
X115224638Y-92556728D01*
X115104940Y-92593038D01*
X114994626Y-92652003D01*
X114897935Y-92731355D01*
X114818583Y-92828046D01*
X114759618Y-92938360D01*
X114723308Y-93058058D01*
X114711048Y-93182540D01*
X114711048Y-94782540D01*
X114723308Y-94907022D01*
X114751676Y-95000540D01*
X113415922Y-95000540D01*
X111886924Y-93471543D01*
X111863121Y-93442539D01*
X111747396Y-93347566D01*
X111615367Y-93276994D01*
X111472106Y-93233537D01*
X111360453Y-93222540D01*
X111360442Y-93222540D01*
X111323120Y-93218864D01*
X111285798Y-93222540D01*
X109747163Y-93222540D01*
X109643757Y-93067781D01*
X109443879Y-92867903D01*
X109211361Y-92712540D01*
X109443879Y-92557177D01*
X109643757Y-92357299D01*
X109747163Y-92202540D01*
X135103393Y-92202540D01*
X135191618Y-92310042D01*
X135379671Y-92464373D01*
X135594219Y-92579051D01*
X135827018Y-92649670D01*
X136008455Y-92667540D01*
X136929785Y-92667540D01*
X137111222Y-92649670D01*
X137344021Y-92579051D01*
X137558569Y-92464373D01*
X137746622Y-92310042D01*
X137900953Y-92121989D01*
X138015631Y-91907441D01*
X138086250Y-91674642D01*
X138110095Y-91432540D01*
X138086250Y-91190438D01*
X138015631Y-90957639D01*
X137900953Y-90743091D01*
X137746622Y-90555038D01*
X137558569Y-90400707D01*
X137344021Y-90286029D01*
X137111222Y-90215410D01*
X136929785Y-90197540D01*
X136008455Y-90197540D01*
X135827018Y-90215410D01*
X135594219Y-90286029D01*
X135379671Y-90400707D01*
X135191618Y-90555038D01*
X135086980Y-90682540D01*
X109747163Y-90682540D01*
X109643757Y-90527781D01*
X109443879Y-90327903D01*
X109211361Y-90172540D01*
X109443879Y-90017177D01*
X109643757Y-89817299D01*
X109747163Y-89662540D01*
X135103393Y-89662540D01*
X135191618Y-89770042D01*
X135379671Y-89924373D01*
X135594219Y-90039051D01*
X135827018Y-90109670D01*
X136008455Y-90127540D01*
X136929785Y-90127540D01*
X137111222Y-90109670D01*
X137344021Y-90039051D01*
X137558569Y-89924373D01*
X137746622Y-89770042D01*
X137900953Y-89581989D01*
X138015631Y-89367441D01*
X138086250Y-89134642D01*
X138110095Y-88892540D01*
X138086250Y-88650438D01*
X138015631Y-88417639D01*
X137900953Y-88203091D01*
X137746622Y-88015038D01*
X137558569Y-87860707D01*
X137344021Y-87746029D01*
X137111222Y-87675410D01*
X136929785Y-87657540D01*
X136238921Y-87657540D01*
X136308922Y-87587540D01*
X136929785Y-87587540D01*
X137111222Y-87569670D01*
X137344021Y-87499051D01*
X137558569Y-87384373D01*
X137746622Y-87230042D01*
X137900953Y-87041989D01*
X138015631Y-86827441D01*
X138086250Y-86594642D01*
X138110095Y-86352540D01*
X138086250Y-86110438D01*
X138015631Y-85877639D01*
X137900953Y-85663091D01*
X137746622Y-85475038D01*
X137558569Y-85320707D01*
X137344021Y-85206029D01*
X137111222Y-85135410D01*
X136929785Y-85117540D01*
X136008455Y-85117540D01*
X135827018Y-85135410D01*
X135594219Y-85206029D01*
X135379671Y-85320707D01*
X135191618Y-85475038D01*
X135037287Y-85663091D01*
X134922609Y-85877639D01*
X134851990Y-86110438D01*
X134828145Y-86352540D01*
X134851990Y-86594642D01*
X134921866Y-86824992D01*
X134620319Y-87126540D01*
X132596159Y-87126540D01*
X132686190Y-86976421D01*
X132781029Y-86711580D01*
X132659744Y-86489540D01*
X131516120Y-86489540D01*
X131516120Y-86509540D01*
X131262120Y-86509540D01*
X131262120Y-86489540D01*
X128976120Y-86489540D01*
X128976120Y-86509540D01*
X128722120Y-86509540D01*
X128722120Y-86489540D01*
X128702120Y-86489540D01*
X128702120Y-86235540D01*
X128722120Y-86235540D01*
X128722120Y-85092625D01*
X128976120Y-85092625D01*
X128976120Y-86235540D01*
X131262120Y-86235540D01*
X131262120Y-85092625D01*
X131516120Y-85092625D01*
X131516120Y-86235540D01*
X132659744Y-86235540D01*
X132781029Y-86013500D01*
X132686190Y-85748659D01*
X132541505Y-85507409D01*
X132352534Y-85299021D01*
X132126540Y-85131503D01*
X131872207Y-85011294D01*
X131738159Y-84970636D01*
X131516120Y-85092625D01*
X131262120Y-85092625D01*
X131040081Y-84970636D01*
X130906033Y-85011294D01*
X130651700Y-85131503D01*
X130425706Y-85299021D01*
X130236735Y-85507409D01*
X130119120Y-85703522D01*
X130001505Y-85507409D01*
X129812534Y-85299021D01*
X129586540Y-85131503D01*
X129332207Y-85011294D01*
X129198159Y-84970636D01*
X128976120Y-85092625D01*
X128722120Y-85092625D01*
X128500081Y-84970636D01*
X128366033Y-85011294D01*
X128111700Y-85131503D01*
X127885706Y-85299021D01*
X127696735Y-85507409D01*
X127585187Y-85693405D01*
X127580800Y-85682813D01*
X127423757Y-85447781D01*
X127223879Y-85247903D01*
X126988847Y-85090860D01*
X126727694Y-84982687D01*
X126450455Y-84927540D01*
X126167785Y-84927540D01*
X125890546Y-84982687D01*
X125629393Y-85090860D01*
X125394361Y-85247903D01*
X125194483Y-85447781D01*
X125037440Y-85682813D01*
X125033053Y-85693405D01*
X124921505Y-85507409D01*
X124732534Y-85299021D01*
X124506540Y-85131503D01*
X124252207Y-85011294D01*
X124118159Y-84970636D01*
X123896120Y-85092625D01*
X123896120Y-86235540D01*
X123916120Y-86235540D01*
X123916120Y-86489540D01*
X123896120Y-86489540D01*
X123896120Y-86509540D01*
X123642120Y-86509540D01*
X123642120Y-86489540D01*
X121356120Y-86489540D01*
X121356120Y-86509540D01*
X121102120Y-86509540D01*
X121102120Y-86489540D01*
X121082120Y-86489540D01*
X121082120Y-86235540D01*
X121102120Y-86235540D01*
X121102120Y-86215540D01*
X121356120Y-86215540D01*
X121356120Y-86235540D01*
X123642120Y-86235540D01*
X123642120Y-85092625D01*
X123420081Y-84970636D01*
X123286033Y-85011294D01*
X123031700Y-85131503D01*
X122805706Y-85299021D01*
X122616735Y-85507409D01*
X122499120Y-85703522D01*
X122381505Y-85507409D01*
X122192534Y-85299021D01*
X121966540Y-85131503D01*
X121854477Y-85078537D01*
X121890634Y-85059211D01*
X121962217Y-84815242D01*
X121149120Y-84002145D01*
X120336023Y-84815242D01*
X120407606Y-85059211D01*
X120526063Y-85115261D01*
X120491700Y-85131503D01*
X120265706Y-85299021D01*
X120076735Y-85507409D01*
X119965187Y-85693405D01*
X119960800Y-85682813D01*
X119803757Y-85447781D01*
X119603879Y-85247903D01*
X119368847Y-85090860D01*
X119107694Y-84982687D01*
X118830455Y-84927540D01*
X118547785Y-84927540D01*
X118270546Y-84982687D01*
X118009393Y-85090860D01*
X117774361Y-85247903D01*
X117574483Y-85447781D01*
X117419120Y-85680299D01*
X117263757Y-85447781D01*
X117063879Y-85247903D01*
X117034120Y-85228019D01*
X117034120Y-84957061D01*
X117063879Y-84937177D01*
X117263757Y-84737299D01*
X117420800Y-84502267D01*
X117528973Y-84241114D01*
X117584120Y-83963875D01*
X117584120Y-83893052D01*
X119708903Y-83893052D01*
X119750333Y-84172670D01*
X119845517Y-84438832D01*
X119912449Y-84564054D01*
X120156418Y-84635637D01*
X120969515Y-83822540D01*
X121328725Y-83822540D01*
X122141822Y-84635637D01*
X122385791Y-84564054D01*
X122506691Y-84308544D01*
X122575420Y-84034356D01*
X122589337Y-83752028D01*
X122547907Y-83472410D01*
X122452723Y-83206248D01*
X122385791Y-83081026D01*
X122141822Y-83009443D01*
X121328725Y-83822540D01*
X120969515Y-83822540D01*
X120156418Y-83009443D01*
X119912449Y-83081026D01*
X119791549Y-83336536D01*
X119722820Y-83610724D01*
X119708903Y-83893052D01*
X117584120Y-83893052D01*
X117584120Y-83681205D01*
X117528973Y-83403966D01*
X117420800Y-83142813D01*
X117263757Y-82907781D01*
X117185814Y-82829838D01*
X120336023Y-82829838D01*
X121149120Y-83642935D01*
X121962217Y-82829838D01*
X121890634Y-82585869D01*
X121635124Y-82464969D01*
X121360936Y-82396240D01*
X121078608Y-82382323D01*
X120798990Y-82423753D01*
X120532828Y-82518937D01*
X120407606Y-82585869D01*
X120336023Y-82829838D01*
X117185814Y-82829838D01*
X117063879Y-82707903D01*
X116828847Y-82550860D01*
X116567694Y-82442687D01*
X116290455Y-82387540D01*
X116007785Y-82387540D01*
X115730546Y-82442687D01*
X115469393Y-82550860D01*
X115234361Y-82707903D01*
X115034483Y-82907781D01*
X114877440Y-83142813D01*
X114769267Y-83403966D01*
X114714120Y-83681205D01*
X114714120Y-83963875D01*
X114769267Y-84241114D01*
X114877440Y-84502267D01*
X115034483Y-84737299D01*
X115234361Y-84937177D01*
X115264120Y-84957062D01*
X115264121Y-85228018D01*
X115234361Y-85247903D01*
X115034483Y-85447781D01*
X114877440Y-85682813D01*
X114769267Y-85943966D01*
X114714120Y-86221205D01*
X114714120Y-86503875D01*
X114769267Y-86781114D01*
X114877440Y-87042267D01*
X114933749Y-87126540D01*
X111637923Y-87126540D01*
X110362923Y-85851542D01*
X110339121Y-85822539D01*
X110223396Y-85727566D01*
X110091367Y-85656994D01*
X109948106Y-85613537D01*
X109836453Y-85602540D01*
X109836442Y-85602540D01*
X109799120Y-85598864D01*
X109761798Y-85602540D01*
X109747163Y-85602540D01*
X109643757Y-85447781D01*
X109443879Y-85247903D01*
X109211361Y-85092540D01*
X109443879Y-84937177D01*
X109643757Y-84737299D01*
X109800800Y-84502267D01*
X109908973Y-84241114D01*
X109964120Y-83963875D01*
X109964120Y-83681205D01*
X109908973Y-83403966D01*
X109800800Y-83142813D01*
X109643757Y-82907781D01*
X109443879Y-82707903D01*
X109211361Y-82552540D01*
X109443879Y-82397177D01*
X109643757Y-82197299D01*
X109747163Y-82042540D01*
X135103393Y-82042540D01*
X135191618Y-82150042D01*
X135379671Y-82304373D01*
X135594219Y-82419051D01*
X135827018Y-82489670D01*
X136008455Y-82507540D01*
X136699318Y-82507540D01*
X136629318Y-82577540D01*
X136008455Y-82577540D01*
X135827018Y-82595410D01*
X135594219Y-82666029D01*
X135379671Y-82780707D01*
X135191618Y-82935038D01*
X135037287Y-83123091D01*
X134922609Y-83337639D01*
X134851990Y-83570438D01*
X134828145Y-83812540D01*
X134851990Y-84054642D01*
X134922609Y-84287441D01*
X135037287Y-84501989D01*
X135191618Y-84690042D01*
X135379671Y-84844373D01*
X135594219Y-84959051D01*
X135827018Y-85029670D01*
X136008455Y-85047540D01*
X136929785Y-85047540D01*
X137111222Y-85029670D01*
X137344021Y-84959051D01*
X137558569Y-84844373D01*
X137746622Y-84690042D01*
X137900953Y-84501989D01*
X138015631Y-84287441D01*
X138086250Y-84054642D01*
X138110095Y-83812540D01*
X138086250Y-83570438D01*
X138016374Y-83340088D01*
X138305133Y-83051329D01*
X138334131Y-83027531D01*
X138360462Y-82995447D01*
X138429104Y-82911807D01*
X138499676Y-82779777D01*
X138521478Y-82707903D01*
X138543133Y-82636516D01*
X138554130Y-82524863D01*
X138554130Y-82524854D01*
X138557806Y-82487531D01*
X138554130Y-82450208D01*
X138554130Y-80926711D01*
X138557806Y-80889388D01*
X138554130Y-80852065D01*
X138554130Y-80852056D01*
X138543133Y-80740403D01*
X138499676Y-80597142D01*
X138429104Y-80465113D01*
X138334131Y-80349388D01*
X138305133Y-80325591D01*
X137816074Y-79836532D01*
X137792272Y-79807529D01*
X137676547Y-79712556D01*
X137643338Y-79694805D01*
X137746622Y-79610042D01*
X137900953Y-79421989D01*
X138015631Y-79207441D01*
X138086250Y-78974642D01*
X138110095Y-78732540D01*
X138086250Y-78490438D01*
X138015631Y-78257639D01*
X137900953Y-78043091D01*
X137746622Y-77855038D01*
X137558569Y-77700707D01*
X137344021Y-77586029D01*
X137111222Y-77515410D01*
X136929785Y-77497540D01*
X136008455Y-77497540D01*
X135827018Y-77515410D01*
X135594219Y-77586029D01*
X135379671Y-77700707D01*
X135191618Y-77855038D01*
X135095187Y-77972540D01*
X124073922Y-77972540D01*
X123738922Y-77637540D01*
X123910455Y-77637540D01*
X124187694Y-77582393D01*
X124448847Y-77474220D01*
X124683879Y-77317177D01*
X124883757Y-77117299D01*
X125040800Y-76882267D01*
X125045187Y-76871675D01*
X125156735Y-77057671D01*
X125345706Y-77266059D01*
X125571700Y-77433577D01*
X125826033Y-77553786D01*
X125960081Y-77594444D01*
X126182120Y-77472455D01*
X126182120Y-76329540D01*
X126162120Y-76329540D01*
X126162120Y-76075540D01*
X126182120Y-76075540D01*
X126182120Y-74932625D01*
X126436120Y-74932625D01*
X126436120Y-76075540D01*
X126456120Y-76075540D01*
X126456120Y-76329540D01*
X126436120Y-76329540D01*
X126436120Y-77472455D01*
X126658159Y-77594444D01*
X126792207Y-77553786D01*
X127046540Y-77433577D01*
X127272534Y-77266059D01*
X127461505Y-77057671D01*
X127573053Y-76871675D01*
X127577440Y-76882267D01*
X127734483Y-77117299D01*
X127934361Y-77317177D01*
X128169393Y-77474220D01*
X128430546Y-77582393D01*
X128707785Y-77637540D01*
X128990455Y-77637540D01*
X129267694Y-77582393D01*
X129528847Y-77474220D01*
X129763879Y-77317177D01*
X129963757Y-77117299D01*
X130120800Y-76882267D01*
X130125187Y-76871675D01*
X130236735Y-77057671D01*
X130425706Y-77266059D01*
X130651700Y-77433577D01*
X130906033Y-77553786D01*
X131040081Y-77594444D01*
X131262120Y-77472455D01*
X131262120Y-76329540D01*
X131516120Y-76329540D01*
X131516120Y-77472455D01*
X131738159Y-77594444D01*
X131872207Y-77553786D01*
X132126540Y-77433577D01*
X132352534Y-77266059D01*
X132541505Y-77057671D01*
X132686190Y-76816421D01*
X132781029Y-76551580D01*
X132659744Y-76329540D01*
X131516120Y-76329540D01*
X131262120Y-76329540D01*
X131242120Y-76329540D01*
X131242120Y-76075540D01*
X131262120Y-76075540D01*
X131262120Y-74932625D01*
X131516120Y-74932625D01*
X131516120Y-76075540D01*
X132659744Y-76075540D01*
X132781029Y-75853500D01*
X132686190Y-75588659D01*
X132541505Y-75347409D01*
X132352534Y-75139021D01*
X132126540Y-74971503D01*
X131872207Y-74851294D01*
X131738159Y-74810636D01*
X131516120Y-74932625D01*
X131262120Y-74932625D01*
X131040081Y-74810636D01*
X130906033Y-74851294D01*
X130651700Y-74971503D01*
X130425706Y-75139021D01*
X130236735Y-75347409D01*
X130125187Y-75533405D01*
X130120800Y-75522813D01*
X129963757Y-75287781D01*
X129763879Y-75087903D01*
X129528847Y-74930860D01*
X129267694Y-74822687D01*
X128990455Y-74767540D01*
X128707785Y-74767540D01*
X128430546Y-74822687D01*
X128169393Y-74930860D01*
X127934361Y-75087903D01*
X127734483Y-75287781D01*
X127577440Y-75522813D01*
X127573053Y-75533405D01*
X127461505Y-75347409D01*
X127272534Y-75139021D01*
X127046540Y-74971503D01*
X126792207Y-74851294D01*
X126658159Y-74810636D01*
X126436120Y-74932625D01*
X126182120Y-74932625D01*
X125960081Y-74810636D01*
X125826033Y-74851294D01*
X125571700Y-74971503D01*
X125345706Y-75139021D01*
X125156735Y-75347409D01*
X125045187Y-75533405D01*
X125040800Y-75522813D01*
X124883757Y-75287781D01*
X124683879Y-75087903D01*
X124448847Y-74930860D01*
X124187694Y-74822687D01*
X123910455Y-74767540D01*
X123627785Y-74767540D01*
X123445234Y-74803852D01*
X123063921Y-74422540D01*
X135103393Y-74422540D01*
X135191618Y-74530042D01*
X135379671Y-74684373D01*
X135594219Y-74799051D01*
X135827018Y-74869670D01*
X136008455Y-74887540D01*
X136699318Y-74887540D01*
X136629318Y-74957540D01*
X136008455Y-74957540D01*
X135827018Y-74975410D01*
X135594219Y-75046029D01*
X135379671Y-75160707D01*
X135191618Y-75315038D01*
X135037287Y-75503091D01*
X134922609Y-75717639D01*
X134851990Y-75950438D01*
X134828145Y-76192540D01*
X134851990Y-76434642D01*
X134922609Y-76667441D01*
X135037287Y-76881989D01*
X135191618Y-77070042D01*
X135379671Y-77224373D01*
X135594219Y-77339051D01*
X135827018Y-77409670D01*
X136008455Y-77427540D01*
X136929785Y-77427540D01*
X137111222Y-77409670D01*
X137344021Y-77339051D01*
X137558569Y-77224373D01*
X137746622Y-77070042D01*
X137900953Y-76881989D01*
X138015631Y-76667441D01*
X138086250Y-76434642D01*
X138110095Y-76192540D01*
X138086250Y-75950438D01*
X138016374Y-75720088D01*
X138305133Y-75431329D01*
X138334131Y-75407531D01*
X138383472Y-75347409D01*
X138429104Y-75291807D01*
X138499676Y-75159777D01*
X138505972Y-75139021D01*
X138543133Y-75016516D01*
X138554130Y-74904863D01*
X138554130Y-74904854D01*
X138557806Y-74867531D01*
X138554130Y-74830208D01*
X138554130Y-70766711D01*
X138557806Y-70729388D01*
X138554130Y-70692065D01*
X138554130Y-70692056D01*
X138543133Y-70580403D01*
X138499676Y-70437142D01*
X138429104Y-70305113D01*
X138334131Y-70189388D01*
X138305133Y-70165591D01*
X137816074Y-69676532D01*
X137792272Y-69647529D01*
X137676547Y-69552556D01*
X137643338Y-69534805D01*
X137746622Y-69450042D01*
X137900953Y-69261989D01*
X138015631Y-69047441D01*
X138086250Y-68814642D01*
X138110095Y-68572540D01*
X138086250Y-68330438D01*
X138015631Y-68097639D01*
X137900953Y-67883091D01*
X137746622Y-67695038D01*
X137558569Y-67540707D01*
X137354120Y-67431427D01*
X137354120Y-65832009D01*
X137358401Y-65788540D01*
X137354120Y-65745071D01*
X137354120Y-65745063D01*
X137341315Y-65615050D01*
X137307185Y-65502539D01*
X137290709Y-65448226D01*
X137208531Y-65294481D01*
X137125652Y-65193493D01*
X137125650Y-65193491D01*
X137097937Y-65159723D01*
X137064169Y-65132010D01*
X134331654Y-62399496D01*
X134303937Y-62365723D01*
X134169179Y-62255129D01*
X134015433Y-62172951D01*
X133848610Y-62122345D01*
X133718597Y-62109540D01*
X133718589Y-62109540D01*
X133675120Y-62105259D01*
X133631651Y-62109540D01*
X119240589Y-62109540D01*
X119197120Y-62105259D01*
X119153651Y-62109540D01*
X119153643Y-62109540D01*
X119038426Y-62120888D01*
X119023629Y-62122345D01*
X118973023Y-62137697D01*
X118856807Y-62172951D01*
X118703061Y-62255129D01*
X118632675Y-62312894D01*
X118602073Y-62338008D01*
X118602071Y-62338010D01*
X118568303Y-62365723D01*
X118540590Y-62399491D01*
X116325559Y-64614523D01*
X116290455Y-64607540D01*
X116007785Y-64607540D01*
X115972681Y-64614523D01*
X114265654Y-62907496D01*
X114237937Y-62873723D01*
X114103179Y-62763129D01*
X113949433Y-62680951D01*
X113782610Y-62630345D01*
X113652597Y-62617540D01*
X113652589Y-62617540D01*
X113609120Y-62613259D01*
X113565651Y-62617540D01*
X109663641Y-62617540D01*
X109643757Y-62587781D01*
X109443879Y-62387903D01*
X109208847Y-62230860D01*
X108947694Y-62122687D01*
X108670455Y-62067540D01*
X108387785Y-62067540D01*
X108110546Y-62122687D01*
X107849393Y-62230860D01*
X107614361Y-62387903D01*
X107414483Y-62587781D01*
X107257440Y-62822813D01*
X107149267Y-63083966D01*
X107094120Y-63361205D01*
X107094120Y-63643875D01*
X107130432Y-63826426D01*
X106799320Y-64157539D01*
X94727192Y-64157539D01*
X94727192Y-62702540D01*
X94714932Y-62578058D01*
X94678622Y-62458360D01*
X94619657Y-62348046D01*
X94540305Y-62251355D01*
X94443614Y-62172003D01*
X94333300Y-62113038D01*
X94213602Y-62076728D01*
X94089120Y-62064468D01*
X92489120Y-62064468D01*
X92364638Y-62076728D01*
X92244940Y-62113038D01*
X92134626Y-62172003D01*
X92037935Y-62251355D01*
X91958583Y-62348046D01*
X91899618Y-62458360D01*
X91863308Y-62578058D01*
X91851048Y-62702540D01*
X91851048Y-62742540D01*
X89487298Y-62742540D01*
X89362595Y-62555908D01*
X89155752Y-62349065D01*
X88912531Y-62186550D01*
X88642278Y-62074608D01*
X88355380Y-62017540D01*
X88062860Y-62017540D01*
X87775962Y-62074608D01*
X87505709Y-62186550D01*
X87262488Y-62349065D01*
X87055645Y-62555908D01*
X86893130Y-62799129D01*
X86781188Y-63069382D01*
X86724120Y-63356280D01*
X86724120Y-63648800D01*
X86767910Y-63868948D01*
X85920118Y-64716741D01*
X85891120Y-64740539D01*
X85867322Y-64769537D01*
X85867321Y-64769538D01*
X85796146Y-64856264D01*
X85725574Y-64988294D01*
X85707121Y-65049129D01*
X85682118Y-65131554D01*
X85674413Y-65209785D01*
X85667444Y-65280540D01*
X83814120Y-65280540D01*
X83814120Y-61647540D01*
X140864120Y-61647540D01*
X140864121Y-98377540D01*
G37*
%TD.AperFunction*%
D18*
X135584121Y-66155120D02*
X135584120Y-67431427D01*
X135379671Y-67540707D01*
X135191618Y-67695038D01*
X135037287Y-67883091D01*
X134922609Y-68097639D01*
X134851990Y-68330438D01*
X134828145Y-68572540D01*
X134851990Y-68814642D01*
X134922609Y-69047441D01*
X135037287Y-69261989D01*
X135173143Y-69427530D01*
X132550375Y-69427530D01*
X132660800Y-69262267D01*
X132768973Y-69001114D01*
X132824120Y-68723875D01*
X132824120Y-68441205D01*
X132768973Y-68163966D01*
X132660800Y-67902813D01*
X132503757Y-67667781D01*
X132303879Y-67467903D01*
X132068847Y-67310860D01*
X131807694Y-67202687D01*
X131530455Y-67147540D01*
X131247785Y-67147540D01*
X130970546Y-67202687D01*
X130709393Y-67310860D01*
X130474361Y-67467903D01*
X130274483Y-67667781D01*
X130117440Y-67902813D01*
X130113053Y-67913405D01*
X130001505Y-67727409D01*
X129812534Y-67519021D01*
X129586540Y-67351503D01*
X129332207Y-67231294D01*
X129198159Y-67190636D01*
X128976120Y-67312625D01*
X128976120Y-68455540D01*
X128996120Y-68455540D01*
X128996120Y-68709540D01*
X128976120Y-68709540D01*
X128976120Y-68729540D01*
X128722120Y-68729540D01*
X128722120Y-68709540D01*
X128702120Y-68709540D01*
X128702120Y-68455540D01*
X128722120Y-68455540D01*
X128722120Y-67312625D01*
X128500081Y-67190636D01*
X128366033Y-67231294D01*
X128111700Y-67351503D01*
X127885706Y-67519021D01*
X127696735Y-67727409D01*
X127585187Y-67913405D01*
X127580800Y-67902813D01*
X127423757Y-67667781D01*
X127223879Y-67467903D01*
X126988847Y-67310860D01*
X126727694Y-67202687D01*
X126450455Y-67147540D01*
X126167785Y-67147540D01*
X125890546Y-67202687D01*
X125629393Y-67310860D01*
X125394361Y-67467903D01*
X125194483Y-67667781D01*
X125037440Y-67902813D01*
X125033053Y-67913405D01*
X124921505Y-67727409D01*
X124732534Y-67519021D01*
X124506540Y-67351503D01*
X124252207Y-67231294D01*
X124118159Y-67190636D01*
X123896120Y-67312625D01*
X123896120Y-68455540D01*
X123916120Y-68455540D01*
X123916120Y-68709540D01*
X123896120Y-68709540D01*
X123896120Y-68729540D01*
X123642120Y-68729540D01*
X123642120Y-68709540D01*
X123622120Y-68709540D01*
X123622120Y-68455540D01*
X123642120Y-68455540D01*
X123642120Y-67312625D01*
X123420081Y-67190636D01*
X123286033Y-67231294D01*
X123031700Y-67351503D01*
X122805706Y-67519021D01*
X122616735Y-67727409D01*
X122505187Y-67913405D01*
X122500800Y-67902813D01*
X122343757Y-67667781D01*
X122143879Y-67467903D01*
X121908847Y-67310860D01*
X121865226Y-67292792D01*
X121890634Y-67279211D01*
X121962217Y-67035242D01*
X121149120Y-66222145D01*
X120336023Y-67035242D01*
X120407606Y-67279211D01*
X120518342Y-67331608D01*
X120314361Y-67467903D01*
X120114483Y-67667781D01*
X119957440Y-67902813D01*
X119953053Y-67913405D01*
X119841505Y-67727409D01*
X119652534Y-67519021D01*
X119426540Y-67351503D01*
X119172207Y-67231294D01*
X119038159Y-67190636D01*
X118816120Y-67312625D01*
X118816120Y-68455540D01*
X118836120Y-68455540D01*
X118836120Y-68709540D01*
X118816120Y-68709540D01*
X118816120Y-68729540D01*
X118562120Y-68729540D01*
X118562120Y-68709540D01*
X118542120Y-68709540D01*
X118542120Y-68455540D01*
X118562120Y-68455540D01*
X118562120Y-67312625D01*
X118340081Y-67190636D01*
X118206033Y-67231294D01*
X117951700Y-67351503D01*
X117725706Y-67519021D01*
X117536735Y-67727409D01*
X117425187Y-67913405D01*
X117420800Y-67902813D01*
X117263757Y-67667781D01*
X117063879Y-67467903D01*
X117034120Y-67448019D01*
X117034120Y-67177061D01*
X117063879Y-67157177D01*
X117263757Y-66957299D01*
X117420800Y-66722267D01*
X117528973Y-66461114D01*
X117584120Y-66183875D01*
X117584120Y-66113052D01*
X119708903Y-66113052D01*
X119750333Y-66392670D01*
X119845517Y-66658832D01*
X119912449Y-66784054D01*
X120156418Y-66855637D01*
X120969515Y-66042540D01*
X121328725Y-66042540D01*
X122141822Y-66855637D01*
X122385791Y-66784054D01*
X122506691Y-66528544D01*
X122575420Y-66254356D01*
X122589337Y-65972028D01*
X122547907Y-65692410D01*
X122452723Y-65426248D01*
X122385791Y-65301026D01*
X122141822Y-65229443D01*
X121328725Y-66042540D01*
X120969515Y-66042540D01*
X120156418Y-65229443D01*
X119912449Y-65301026D01*
X119791549Y-65556536D01*
X119722820Y-65830724D01*
X119708903Y-66113052D01*
X117584120Y-66113052D01*
X117584120Y-65901205D01*
X117577137Y-65866101D01*
X118393400Y-65049838D01*
X120336023Y-65049838D01*
X121149120Y-65862935D01*
X121962217Y-65049838D01*
X121890634Y-64805869D01*
X121635124Y-64684969D01*
X121360936Y-64616240D01*
X121078608Y-64602323D01*
X120798990Y-64643753D01*
X120532828Y-64738937D01*
X120407606Y-64805869D01*
X120336023Y-65049838D01*
X118393400Y-65049838D01*
X119563699Y-63879540D01*
X133308542Y-63879540D01*
X135584121Y-66155120D01*
%TA.AperFunction,Conductor*%
D19*
G36*
X135584121Y-66155120D02*
G01*
X135584120Y-67431427D01*
X135379671Y-67540707D01*
X135191618Y-67695038D01*
X135037287Y-67883091D01*
X134922609Y-68097639D01*
X134851990Y-68330438D01*
X134828145Y-68572540D01*
X134851990Y-68814642D01*
X134922609Y-69047441D01*
X135037287Y-69261989D01*
X135173143Y-69427530D01*
X132550375Y-69427530D01*
X132660800Y-69262267D01*
X132768973Y-69001114D01*
X132824120Y-68723875D01*
X132824120Y-68441205D01*
X132768973Y-68163966D01*
X132660800Y-67902813D01*
X132503757Y-67667781D01*
X132303879Y-67467903D01*
X132068847Y-67310860D01*
X131807694Y-67202687D01*
X131530455Y-67147540D01*
X131247785Y-67147540D01*
X130970546Y-67202687D01*
X130709393Y-67310860D01*
X130474361Y-67467903D01*
X130274483Y-67667781D01*
X130117440Y-67902813D01*
X130113053Y-67913405D01*
X130001505Y-67727409D01*
X129812534Y-67519021D01*
X129586540Y-67351503D01*
X129332207Y-67231294D01*
X129198159Y-67190636D01*
X128976120Y-67312625D01*
X128976120Y-68455540D01*
X128996120Y-68455540D01*
X128996120Y-68709540D01*
X128976120Y-68709540D01*
X128976120Y-68729540D01*
X128722120Y-68729540D01*
X128722120Y-68709540D01*
X128702120Y-68709540D01*
X128702120Y-68455540D01*
X128722120Y-68455540D01*
X128722120Y-67312625D01*
X128500081Y-67190636D01*
X128366033Y-67231294D01*
X128111700Y-67351503D01*
X127885706Y-67519021D01*
X127696735Y-67727409D01*
X127585187Y-67913405D01*
X127580800Y-67902813D01*
X127423757Y-67667781D01*
X127223879Y-67467903D01*
X126988847Y-67310860D01*
X126727694Y-67202687D01*
X126450455Y-67147540D01*
X126167785Y-67147540D01*
X125890546Y-67202687D01*
X125629393Y-67310860D01*
X125394361Y-67467903D01*
X125194483Y-67667781D01*
X125037440Y-67902813D01*
X125033053Y-67913405D01*
X124921505Y-67727409D01*
X124732534Y-67519021D01*
X124506540Y-67351503D01*
X124252207Y-67231294D01*
X124118159Y-67190636D01*
X123896120Y-67312625D01*
X123896120Y-68455540D01*
X123916120Y-68455540D01*
X123916120Y-68709540D01*
X123896120Y-68709540D01*
X123896120Y-68729540D01*
X123642120Y-68729540D01*
X123642120Y-68709540D01*
X123622120Y-68709540D01*
X123622120Y-68455540D01*
X123642120Y-68455540D01*
X123642120Y-67312625D01*
X123420081Y-67190636D01*
X123286033Y-67231294D01*
X123031700Y-67351503D01*
X122805706Y-67519021D01*
X122616735Y-67727409D01*
X122505187Y-67913405D01*
X122500800Y-67902813D01*
X122343757Y-67667781D01*
X122143879Y-67467903D01*
X121908847Y-67310860D01*
X121865226Y-67292792D01*
X121890634Y-67279211D01*
X121962217Y-67035242D01*
X121149120Y-66222145D01*
X120336023Y-67035242D01*
X120407606Y-67279211D01*
X120518342Y-67331608D01*
X120314361Y-67467903D01*
X120114483Y-67667781D01*
X119957440Y-67902813D01*
X119953053Y-67913405D01*
X119841505Y-67727409D01*
X119652534Y-67519021D01*
X119426540Y-67351503D01*
X119172207Y-67231294D01*
X119038159Y-67190636D01*
X118816120Y-67312625D01*
X118816120Y-68455540D01*
X118836120Y-68455540D01*
X118836120Y-68709540D01*
X118816120Y-68709540D01*
X118816120Y-68729540D01*
X118562120Y-68729540D01*
X118562120Y-68709540D01*
X118542120Y-68709540D01*
X118542120Y-68455540D01*
X118562120Y-68455540D01*
X118562120Y-67312625D01*
X118340081Y-67190636D01*
X118206033Y-67231294D01*
X117951700Y-67351503D01*
X117725706Y-67519021D01*
X117536735Y-67727409D01*
X117425187Y-67913405D01*
X117420800Y-67902813D01*
X117263757Y-67667781D01*
X117063879Y-67467903D01*
X117034120Y-67448019D01*
X117034120Y-67177061D01*
X117063879Y-67157177D01*
X117263757Y-66957299D01*
X117420800Y-66722267D01*
X117528973Y-66461114D01*
X117584120Y-66183875D01*
X117584120Y-66113052D01*
X119708903Y-66113052D01*
X119750333Y-66392670D01*
X119845517Y-66658832D01*
X119912449Y-66784054D01*
X120156418Y-66855637D01*
X120969515Y-66042540D01*
X121328725Y-66042540D01*
X122141822Y-66855637D01*
X122385791Y-66784054D01*
X122506691Y-66528544D01*
X122575420Y-66254356D01*
X122589337Y-65972028D01*
X122547907Y-65692410D01*
X122452723Y-65426248D01*
X122385791Y-65301026D01*
X122141822Y-65229443D01*
X121328725Y-66042540D01*
X120969515Y-66042540D01*
X120156418Y-65229443D01*
X119912449Y-65301026D01*
X119791549Y-65556536D01*
X119722820Y-65830724D01*
X119708903Y-66113052D01*
X117584120Y-66113052D01*
X117584120Y-65901205D01*
X117577137Y-65866101D01*
X118393400Y-65049838D01*
X120336023Y-65049838D01*
X121149120Y-65862935D01*
X121962217Y-65049838D01*
X121890634Y-64805869D01*
X121635124Y-64684969D01*
X121360936Y-64616240D01*
X121078608Y-64602323D01*
X120798990Y-64643753D01*
X120532828Y-64738937D01*
X120407606Y-64805869D01*
X120336023Y-65049838D01*
X118393400Y-65049838D01*
X119563699Y-63879540D01*
X133308542Y-63879540D01*
X135584121Y-66155120D01*
G37*
%TD.AperFunction*%
%TD*%
M02*
