%TF.GenerationSoftware,KiCad,Pcbnew,(5.1.9)-1*%
%TF.CreationDate,2021-07-20T08:15:42+01:00*%
%TF.ProjectId,romboard,726f6d62-6f61-4726-942e-6b696361645f,rev?*%
%TF.SameCoordinates,Original*%
%TF.FileFunction,Legend,Top*%
%TF.FilePolarity,Positive*%
%FSLAX46Y46*%
G04 Gerber Fmt 4.6, Leading zero omitted, Abs format (unit mm)*
G04 Created by KiCad (PCBNEW (5.1.9)-1) date 2021-07-20 08:15:42*
%MOMM*%
%LPD*%
G01*
G04 APERTURE LIST*
%ADD10C,0.125000*%
%ADD11C,0.150000*%
%ADD12C,0.120000*%
G04 APERTURE END LIST*
D10*
X88435310Y-89739873D02*
X88435310Y-90025587D01*
X88435310Y-89882730D02*
X87935310Y-89882730D01*
X88006739Y-89930349D01*
X88054358Y-89977968D01*
X88078167Y-90025587D01*
X87935310Y-89430349D02*
X87935310Y-89382730D01*
X87959120Y-89335111D01*
X87982929Y-89311301D01*
X88030548Y-89287492D01*
X88125786Y-89263682D01*
X88244834Y-89263682D01*
X88340072Y-89287492D01*
X88387691Y-89311301D01*
X88411500Y-89335111D01*
X88435310Y-89382730D01*
X88435310Y-89430349D01*
X88411500Y-89477968D01*
X88387691Y-89501778D01*
X88340072Y-89525587D01*
X88244834Y-89549397D01*
X88125786Y-89549397D01*
X88030548Y-89525587D01*
X87982929Y-89501778D01*
X87959120Y-89477968D01*
X87935310Y-89430349D01*
X87935310Y-88954159D02*
X87935310Y-88906540D01*
X87959120Y-88858920D01*
X87982929Y-88835111D01*
X88030548Y-88811301D01*
X88125786Y-88787492D01*
X88244834Y-88787492D01*
X88340072Y-88811301D01*
X88387691Y-88835111D01*
X88411500Y-88858920D01*
X88435310Y-88906540D01*
X88435310Y-88954159D01*
X88411500Y-89001778D01*
X88387691Y-89025587D01*
X88340072Y-89049397D01*
X88244834Y-89073206D01*
X88125786Y-89073206D01*
X88030548Y-89049397D01*
X87982929Y-89025587D01*
X87959120Y-89001778D01*
X87935310Y-88954159D01*
X88435310Y-88573206D02*
X87935310Y-88573206D01*
X88435310Y-88287492D02*
X88149596Y-88501778D01*
X87935310Y-88287492D02*
X88221024Y-88573206D01*
X90975310Y-89739873D02*
X90975310Y-90025587D01*
X90975310Y-89882730D02*
X90475310Y-89882730D01*
X90546739Y-89930349D01*
X90594358Y-89977968D01*
X90618167Y-90025587D01*
X90475310Y-89430349D02*
X90475310Y-89382730D01*
X90499120Y-89335111D01*
X90522929Y-89311301D01*
X90570548Y-89287492D01*
X90665786Y-89263682D01*
X90784834Y-89263682D01*
X90880072Y-89287492D01*
X90927691Y-89311301D01*
X90951500Y-89335111D01*
X90975310Y-89382730D01*
X90975310Y-89430349D01*
X90951500Y-89477968D01*
X90927691Y-89501778D01*
X90880072Y-89525587D01*
X90784834Y-89549397D01*
X90665786Y-89549397D01*
X90570548Y-89525587D01*
X90522929Y-89501778D01*
X90499120Y-89477968D01*
X90475310Y-89430349D01*
X90475310Y-88954159D02*
X90475310Y-88906540D01*
X90499120Y-88858920D01*
X90522929Y-88835111D01*
X90570548Y-88811301D01*
X90665786Y-88787492D01*
X90784834Y-88787492D01*
X90880072Y-88811301D01*
X90927691Y-88835111D01*
X90951500Y-88858920D01*
X90975310Y-88906540D01*
X90975310Y-88954159D01*
X90951500Y-89001778D01*
X90927691Y-89025587D01*
X90880072Y-89049397D01*
X90784834Y-89073206D01*
X90665786Y-89073206D01*
X90570548Y-89049397D01*
X90522929Y-89025587D01*
X90499120Y-89001778D01*
X90475310Y-88954159D01*
X90975310Y-88573206D02*
X90475310Y-88573206D01*
X90975310Y-88287492D02*
X90689596Y-88501778D01*
X90475310Y-88287492D02*
X90761024Y-88573206D01*
X117915310Y-84048730D02*
X117629596Y-84048730D01*
X117772453Y-84048730D02*
X117772453Y-83548730D01*
X117724834Y-83620159D01*
X117677215Y-83667778D01*
X117629596Y-83691587D01*
X118224834Y-83548730D02*
X118272453Y-83548730D01*
X118320072Y-83572540D01*
X118343881Y-83596349D01*
X118367691Y-83643968D01*
X118391500Y-83739206D01*
X118391500Y-83858254D01*
X118367691Y-83953492D01*
X118343881Y-84001111D01*
X118320072Y-84024920D01*
X118272453Y-84048730D01*
X118224834Y-84048730D01*
X118177215Y-84024920D01*
X118153405Y-84001111D01*
X118129596Y-83953492D01*
X118105786Y-83858254D01*
X118105786Y-83739206D01*
X118129596Y-83643968D01*
X118153405Y-83596349D01*
X118177215Y-83572540D01*
X118224834Y-83548730D01*
X118701024Y-83548730D02*
X118748643Y-83548730D01*
X118796262Y-83572540D01*
X118820072Y-83596349D01*
X118843881Y-83643968D01*
X118867691Y-83739206D01*
X118867691Y-83858254D01*
X118843881Y-83953492D01*
X118820072Y-84001111D01*
X118796262Y-84024920D01*
X118748643Y-84048730D01*
X118701024Y-84048730D01*
X118653405Y-84024920D01*
X118629596Y-84001111D01*
X118605786Y-83953492D01*
X118581977Y-83858254D01*
X118581977Y-83739206D01*
X118605786Y-83643968D01*
X118629596Y-83596349D01*
X118653405Y-83572540D01*
X118701024Y-83548730D01*
X119081977Y-83715397D02*
X119081977Y-84048730D01*
X119081977Y-83763016D02*
X119105786Y-83739206D01*
X119153405Y-83715397D01*
X119224834Y-83715397D01*
X119272453Y-83739206D01*
X119296262Y-83786825D01*
X119296262Y-84048730D01*
X119701024Y-83786825D02*
X119534358Y-83786825D01*
X119534358Y-84048730D02*
X119534358Y-83548730D01*
X119772453Y-83548730D01*
X117915310Y-66268730D02*
X117629596Y-66268730D01*
X117772453Y-66268730D02*
X117772453Y-65768730D01*
X117724834Y-65840159D01*
X117677215Y-65887778D01*
X117629596Y-65911587D01*
X118224834Y-65768730D02*
X118272453Y-65768730D01*
X118320072Y-65792540D01*
X118343881Y-65816349D01*
X118367691Y-65863968D01*
X118391500Y-65959206D01*
X118391500Y-66078254D01*
X118367691Y-66173492D01*
X118343881Y-66221111D01*
X118320072Y-66244920D01*
X118272453Y-66268730D01*
X118224834Y-66268730D01*
X118177215Y-66244920D01*
X118153405Y-66221111D01*
X118129596Y-66173492D01*
X118105786Y-66078254D01*
X118105786Y-65959206D01*
X118129596Y-65863968D01*
X118153405Y-65816349D01*
X118177215Y-65792540D01*
X118224834Y-65768730D01*
X118701024Y-65768730D02*
X118748643Y-65768730D01*
X118796262Y-65792540D01*
X118820072Y-65816349D01*
X118843881Y-65863968D01*
X118867691Y-65959206D01*
X118867691Y-66078254D01*
X118843881Y-66173492D01*
X118820072Y-66221111D01*
X118796262Y-66244920D01*
X118748643Y-66268730D01*
X118701024Y-66268730D01*
X118653405Y-66244920D01*
X118629596Y-66221111D01*
X118605786Y-66173492D01*
X118581977Y-66078254D01*
X118581977Y-65959206D01*
X118605786Y-65863968D01*
X118629596Y-65816349D01*
X118653405Y-65792540D01*
X118701024Y-65768730D01*
X119081977Y-65935397D02*
X119081977Y-66268730D01*
X119081977Y-65983016D02*
X119105786Y-65959206D01*
X119153405Y-65935397D01*
X119224834Y-65935397D01*
X119272453Y-65959206D01*
X119296262Y-66006825D01*
X119296262Y-66268730D01*
X119701024Y-66006825D02*
X119534358Y-66006825D01*
X119534358Y-66268730D02*
X119534358Y-65768730D01*
X119772453Y-65768730D01*
D11*
X126460262Y-83274920D02*
X127126929Y-83274920D01*
X126698358Y-84274920D01*
X127936453Y-83608254D02*
X127936453Y-84274920D01*
X127698358Y-83227301D02*
X127460262Y-83941587D01*
X128079310Y-83941587D01*
X128936453Y-84274920D02*
X128460262Y-84274920D01*
X128460262Y-83274920D01*
X129222167Y-84227301D02*
X129365024Y-84274920D01*
X129603120Y-84274920D01*
X129698358Y-84227301D01*
X129745977Y-84179682D01*
X129793596Y-84084444D01*
X129793596Y-83989206D01*
X129745977Y-83893968D01*
X129698358Y-83846349D01*
X129603120Y-83798730D01*
X129412643Y-83751111D01*
X129317405Y-83703492D01*
X129269786Y-83655873D01*
X129222167Y-83560635D01*
X129222167Y-83465397D01*
X129269786Y-83370159D01*
X129317405Y-83322540D01*
X129412643Y-83274920D01*
X129650739Y-83274920D01*
X129793596Y-83322540D01*
X130412643Y-83274920D02*
X130507881Y-83274920D01*
X130603120Y-83322540D01*
X130650739Y-83370159D01*
X130698358Y-83465397D01*
X130745977Y-83655873D01*
X130745977Y-83893968D01*
X130698358Y-84084444D01*
X130650739Y-84179682D01*
X130603120Y-84227301D01*
X130507881Y-84274920D01*
X130412643Y-84274920D01*
X130317405Y-84227301D01*
X130269786Y-84179682D01*
X130222167Y-84084444D01*
X130174548Y-83893968D01*
X130174548Y-83655873D01*
X130222167Y-83465397D01*
X130269786Y-83370159D01*
X130317405Y-83322540D01*
X130412643Y-83274920D01*
X131603120Y-83274920D02*
X131412643Y-83274920D01*
X131317405Y-83322540D01*
X131269786Y-83370159D01*
X131174548Y-83513016D01*
X131126929Y-83703492D01*
X131126929Y-84084444D01*
X131174548Y-84179682D01*
X131222167Y-84227301D01*
X131317405Y-84274920D01*
X131507881Y-84274920D01*
X131603120Y-84227301D01*
X131650739Y-84179682D01*
X131698358Y-84084444D01*
X131698358Y-83846349D01*
X131650739Y-83751111D01*
X131603120Y-83703492D01*
X131507881Y-83655873D01*
X131317405Y-83655873D01*
X131222167Y-83703492D01*
X131174548Y-83751111D01*
X131126929Y-83846349D01*
X126460262Y-65494920D02*
X127126929Y-65494920D01*
X126698358Y-66494920D01*
X127936453Y-65828254D02*
X127936453Y-66494920D01*
X127698358Y-65447301D02*
X127460262Y-66161587D01*
X128079310Y-66161587D01*
X128936453Y-66494920D02*
X128460262Y-66494920D01*
X128460262Y-65494920D01*
X129222167Y-66447301D02*
X129365024Y-66494920D01*
X129603120Y-66494920D01*
X129698358Y-66447301D01*
X129745977Y-66399682D01*
X129793596Y-66304444D01*
X129793596Y-66209206D01*
X129745977Y-66113968D01*
X129698358Y-66066349D01*
X129603120Y-66018730D01*
X129412643Y-65971111D01*
X129317405Y-65923492D01*
X129269786Y-65875873D01*
X129222167Y-65780635D01*
X129222167Y-65685397D01*
X129269786Y-65590159D01*
X129317405Y-65542540D01*
X129412643Y-65494920D01*
X129650739Y-65494920D01*
X129793596Y-65542540D01*
X130412643Y-65494920D02*
X130507881Y-65494920D01*
X130603120Y-65542540D01*
X130650739Y-65590159D01*
X130698358Y-65685397D01*
X130745977Y-65875873D01*
X130745977Y-66113968D01*
X130698358Y-66304444D01*
X130650739Y-66399682D01*
X130603120Y-66447301D01*
X130507881Y-66494920D01*
X130412643Y-66494920D01*
X130317405Y-66447301D01*
X130269786Y-66399682D01*
X130222167Y-66304444D01*
X130174548Y-66113968D01*
X130174548Y-65875873D01*
X130222167Y-65685397D01*
X130269786Y-65590159D01*
X130317405Y-65542540D01*
X130412643Y-65494920D01*
X131603120Y-65828254D02*
X131603120Y-66494920D01*
X131365024Y-65447301D02*
X131126929Y-66161587D01*
X131745977Y-66161587D01*
X97964643Y-65590159D02*
X98012262Y-65542540D01*
X98107500Y-65494920D01*
X98345596Y-65494920D01*
X98440834Y-65542540D01*
X98488453Y-65590159D01*
X98536072Y-65685397D01*
X98536072Y-65780635D01*
X98488453Y-65923492D01*
X97917024Y-66494920D01*
X98536072Y-66494920D01*
X98869405Y-65494920D02*
X99536072Y-65494920D01*
X99107500Y-66494920D01*
X100488453Y-66399682D02*
X100440834Y-66447301D01*
X100297977Y-66494920D01*
X100202739Y-66494920D01*
X100059881Y-66447301D01*
X99964643Y-66352063D01*
X99917024Y-66256825D01*
X99869405Y-66066349D01*
X99869405Y-65923492D01*
X99917024Y-65733016D01*
X99964643Y-65637778D01*
X100059881Y-65542540D01*
X100202739Y-65494920D01*
X100297977Y-65494920D01*
X100440834Y-65542540D01*
X100488453Y-65590159D01*
X101393215Y-65494920D02*
X100917024Y-65494920D01*
X100869405Y-65971111D01*
X100917024Y-65923492D01*
X101012262Y-65875873D01*
X101250358Y-65875873D01*
X101345596Y-65923492D01*
X101393215Y-65971111D01*
X101440834Y-66066349D01*
X101440834Y-66304444D01*
X101393215Y-66399682D01*
X101345596Y-66447301D01*
X101250358Y-66494920D01*
X101012262Y-66494920D01*
X100917024Y-66447301D01*
X100869405Y-66399682D01*
X102393215Y-66494920D02*
X101821786Y-66494920D01*
X102107500Y-66494920D02*
X102107500Y-65494920D01*
X102012262Y-65637778D01*
X101917024Y-65733016D01*
X101821786Y-65780635D01*
X102774167Y-65590159D02*
X102821786Y-65542540D01*
X102917024Y-65494920D01*
X103155120Y-65494920D01*
X103250358Y-65542540D01*
X103297977Y-65590159D01*
X103345596Y-65685397D01*
X103345596Y-65780635D01*
X103297977Y-65923492D01*
X102726548Y-66494920D01*
X103345596Y-66494920D01*
X139461596Y-80717873D02*
X139413977Y-80813111D01*
X139413977Y-81003587D01*
X139461596Y-81098825D01*
X139556834Y-81194063D01*
X139652072Y-81241682D01*
X139842548Y-81241682D01*
X139937786Y-81194063D01*
X140033024Y-81098825D01*
X140080643Y-81003587D01*
X140080643Y-80813111D01*
X140033024Y-80717873D01*
X139080643Y-80908349D02*
X139128262Y-81146444D01*
X139271120Y-81384540D01*
X139509215Y-81527397D01*
X139747310Y-81575016D01*
X139985405Y-81527397D01*
X140223500Y-81384540D01*
X140366358Y-81146444D01*
X140413977Y-80908349D01*
X140366358Y-80670254D01*
X140223500Y-80432159D01*
X139985405Y-80289301D01*
X139747310Y-80241682D01*
X139509215Y-80289301D01*
X139271120Y-80432159D01*
X139128262Y-80670254D01*
X139080643Y-80908349D01*
X140223500Y-78622635D02*
X139223500Y-78622635D01*
X140175881Y-78622635D02*
X140223500Y-78717873D01*
X140223500Y-78908349D01*
X140175881Y-79003587D01*
X140128262Y-79051206D01*
X140033024Y-79098825D01*
X139747310Y-79098825D01*
X139652072Y-79051206D01*
X139604453Y-79003587D01*
X139556834Y-78908349D01*
X139556834Y-78717873D01*
X139604453Y-78622635D01*
X140223500Y-77717873D02*
X139699691Y-77717873D01*
X139604453Y-77765492D01*
X139556834Y-77860730D01*
X139556834Y-78051206D01*
X139604453Y-78146444D01*
X140175881Y-77717873D02*
X140223500Y-77813111D01*
X140223500Y-78051206D01*
X140175881Y-78146444D01*
X140080643Y-78194063D01*
X139985405Y-78194063D01*
X139890167Y-78146444D01*
X139842548Y-78051206D01*
X139842548Y-77813111D01*
X139794929Y-77717873D01*
X139556834Y-77241682D02*
X140223500Y-77241682D01*
X139652072Y-77241682D02*
X139604453Y-77194063D01*
X139556834Y-77098825D01*
X139556834Y-76955968D01*
X139604453Y-76860730D01*
X139699691Y-76813111D01*
X140223500Y-76813111D01*
X139556834Y-76336920D02*
X140223500Y-76336920D01*
X139652072Y-76336920D02*
X139604453Y-76289301D01*
X139556834Y-76194063D01*
X139556834Y-76051206D01*
X139604453Y-75955968D01*
X139699691Y-75908349D01*
X140223500Y-75908349D01*
X139556834Y-75527397D02*
X140223500Y-75289301D01*
X139556834Y-75051206D02*
X140223500Y-75289301D01*
X140461596Y-75384540D01*
X140509215Y-75432159D01*
X140556834Y-75527397D01*
X140223500Y-74241682D02*
X139699691Y-74241682D01*
X139604453Y-74289301D01*
X139556834Y-74384540D01*
X139556834Y-74575016D01*
X139604453Y-74670254D01*
X140175881Y-74241682D02*
X140223500Y-74336920D01*
X140223500Y-74575016D01*
X140175881Y-74670254D01*
X140080643Y-74717873D01*
X139985405Y-74717873D01*
X139890167Y-74670254D01*
X139842548Y-74575016D01*
X139842548Y-74336920D01*
X139794929Y-74241682D01*
X140223500Y-73765492D02*
X139556834Y-73765492D01*
X139747310Y-73765492D02*
X139652072Y-73717873D01*
X139604453Y-73670254D01*
X139556834Y-73575016D01*
X139556834Y-73479778D01*
X139556834Y-73146444D02*
X140223500Y-73146444D01*
X139652072Y-73146444D02*
X139604453Y-73098825D01*
X139556834Y-73003587D01*
X139556834Y-72860730D01*
X139604453Y-72765492D01*
X139699691Y-72717873D01*
X140223500Y-72717873D01*
X140223500Y-72098825D02*
X140175881Y-72194063D01*
X140128262Y-72241682D01*
X140033024Y-72289301D01*
X139747310Y-72289301D01*
X139652072Y-72241682D01*
X139604453Y-72194063D01*
X139556834Y-72098825D01*
X139556834Y-71955968D01*
X139604453Y-71860730D01*
X139652072Y-71813111D01*
X139747310Y-71765492D01*
X140033024Y-71765492D01*
X140128262Y-71813111D01*
X140175881Y-71860730D01*
X140223500Y-71955968D01*
X140223500Y-72098825D01*
X140223500Y-71194063D02*
X140175881Y-71289301D01*
X140080643Y-71336920D01*
X139223500Y-71336920D01*
X140223500Y-70384540D02*
X139223500Y-70384540D01*
X140175881Y-70384540D02*
X140223500Y-70479778D01*
X140223500Y-70670254D01*
X140175881Y-70765492D01*
X140128262Y-70813111D01*
X140033024Y-70860730D01*
X139747310Y-70860730D01*
X139652072Y-70813111D01*
X139604453Y-70765492D01*
X139556834Y-70670254D01*
X139556834Y-70479778D01*
X139604453Y-70384540D01*
X140128262Y-69908349D02*
X140175881Y-69860730D01*
X140223500Y-69908349D01*
X140175881Y-69955968D01*
X140128262Y-69908349D01*
X140223500Y-69908349D01*
X140175881Y-69003587D02*
X140223500Y-69098825D01*
X140223500Y-69289301D01*
X140175881Y-69384540D01*
X140128262Y-69432159D01*
X140033024Y-69479778D01*
X139747310Y-69479778D01*
X139652072Y-69432159D01*
X139604453Y-69384540D01*
X139556834Y-69289301D01*
X139556834Y-69098825D01*
X139604453Y-69003587D01*
X140223500Y-68432159D02*
X140175881Y-68527397D01*
X140128262Y-68575016D01*
X140033024Y-68622635D01*
X139747310Y-68622635D01*
X139652072Y-68575016D01*
X139604453Y-68527397D01*
X139556834Y-68432159D01*
X139556834Y-68289301D01*
X139604453Y-68194063D01*
X139652072Y-68146444D01*
X139747310Y-68098825D01*
X140033024Y-68098825D01*
X140128262Y-68146444D01*
X140175881Y-68194063D01*
X140223500Y-68289301D01*
X140223500Y-68432159D01*
X140223500Y-67670254D02*
X139556834Y-67670254D01*
X139652072Y-67670254D02*
X139604453Y-67622635D01*
X139556834Y-67527397D01*
X139556834Y-67384540D01*
X139604453Y-67289301D01*
X139699691Y-67241682D01*
X140223500Y-67241682D01*
X139699691Y-67241682D02*
X139604453Y-67194063D01*
X139556834Y-67098825D01*
X139556834Y-66955968D01*
X139604453Y-66860730D01*
X139699691Y-66813111D01*
X140223500Y-66813111D01*
X139318739Y-65622635D02*
X139271120Y-65575016D01*
X139223500Y-65479778D01*
X139223500Y-65241682D01*
X139271120Y-65146444D01*
X139318739Y-65098825D01*
X139413977Y-65051206D01*
X139509215Y-65051206D01*
X139652072Y-65098825D01*
X140223500Y-65670254D01*
X140223500Y-65051206D01*
X139223500Y-64432159D02*
X139223500Y-64336920D01*
X139271120Y-64241682D01*
X139318739Y-64194063D01*
X139413977Y-64146444D01*
X139604453Y-64098825D01*
X139842548Y-64098825D01*
X140033024Y-64146444D01*
X140128262Y-64194063D01*
X140175881Y-64241682D01*
X140223500Y-64336920D01*
X140223500Y-64432159D01*
X140175881Y-64527397D01*
X140128262Y-64575016D01*
X140033024Y-64622635D01*
X139842548Y-64670254D01*
X139604453Y-64670254D01*
X139413977Y-64622635D01*
X139318739Y-64575016D01*
X139271120Y-64527397D01*
X139223500Y-64432159D01*
X139318739Y-63717873D02*
X139271120Y-63670254D01*
X139223500Y-63575016D01*
X139223500Y-63336920D01*
X139271120Y-63241682D01*
X139318739Y-63194063D01*
X139413977Y-63146444D01*
X139509215Y-63146444D01*
X139652072Y-63194063D01*
X140223500Y-63765492D01*
X140223500Y-63146444D01*
X140223500Y-62194063D02*
X140223500Y-62765492D01*
X140223500Y-62479778D02*
X139223500Y-62479778D01*
X139366358Y-62575016D01*
X139461596Y-62670254D01*
X139509215Y-62765492D01*
X85613500Y-96973778D02*
X85613500Y-97545206D01*
X85613500Y-97259492D02*
X84613500Y-97259492D01*
X84756358Y-97354730D01*
X84851596Y-97449968D01*
X84899215Y-97545206D01*
X84613500Y-96069016D02*
X84613500Y-96545206D01*
X85089691Y-96592825D01*
X85042072Y-96545206D01*
X84994453Y-96449968D01*
X84994453Y-96211873D01*
X85042072Y-96116635D01*
X85089691Y-96069016D01*
X85184929Y-96021397D01*
X85423024Y-96021397D01*
X85518262Y-96069016D01*
X85565881Y-96116635D01*
X85613500Y-96211873D01*
X85613500Y-96449968D01*
X85565881Y-96545206D01*
X85518262Y-96592825D01*
X84946834Y-95164254D02*
X85613500Y-95164254D01*
X84565881Y-95402349D02*
X85280167Y-95640444D01*
X85280167Y-95021397D01*
X85613500Y-94116635D02*
X85613500Y-94688063D01*
X85613500Y-94402349D02*
X84613500Y-94402349D01*
X84756358Y-94497587D01*
X84851596Y-94592825D01*
X84899215Y-94688063D01*
X85613500Y-92354730D02*
X85137310Y-92688063D01*
X85613500Y-92926159D02*
X84613500Y-92926159D01*
X84613500Y-92545206D01*
X84661120Y-92449968D01*
X84708739Y-92402349D01*
X84803977Y-92354730D01*
X84946834Y-92354730D01*
X85042072Y-92402349D01*
X85089691Y-92449968D01*
X85137310Y-92545206D01*
X85137310Y-92926159D01*
X85613500Y-91783301D02*
X85565881Y-91878540D01*
X85518262Y-91926159D01*
X85423024Y-91973778D01*
X85137310Y-91973778D01*
X85042072Y-91926159D01*
X84994453Y-91878540D01*
X84946834Y-91783301D01*
X84946834Y-91640444D01*
X84994453Y-91545206D01*
X85042072Y-91497587D01*
X85137310Y-91449968D01*
X85423024Y-91449968D01*
X85518262Y-91497587D01*
X85565881Y-91545206D01*
X85613500Y-91640444D01*
X85613500Y-91783301D01*
X85613500Y-91021397D02*
X84946834Y-91021397D01*
X85042072Y-91021397D02*
X84994453Y-90973778D01*
X84946834Y-90878540D01*
X84946834Y-90735682D01*
X84994453Y-90640444D01*
X85089691Y-90592825D01*
X85613500Y-90592825D01*
X85089691Y-90592825D02*
X84994453Y-90545206D01*
X84946834Y-90449968D01*
X84946834Y-90307111D01*
X84994453Y-90211873D01*
X85089691Y-90164254D01*
X85613500Y-90164254D01*
X85089691Y-88592825D02*
X85137310Y-88449968D01*
X85184929Y-88402349D01*
X85280167Y-88354730D01*
X85423024Y-88354730D01*
X85518262Y-88402349D01*
X85565881Y-88449968D01*
X85613500Y-88545206D01*
X85613500Y-88926159D01*
X84613500Y-88926159D01*
X84613500Y-88592825D01*
X84661120Y-88497587D01*
X84708739Y-88449968D01*
X84803977Y-88402349D01*
X84899215Y-88402349D01*
X84994453Y-88449968D01*
X85042072Y-88497587D01*
X85089691Y-88592825D01*
X85089691Y-88926159D01*
X85613500Y-87783301D02*
X85565881Y-87878540D01*
X85518262Y-87926159D01*
X85423024Y-87973778D01*
X85137310Y-87973778D01*
X85042072Y-87926159D01*
X84994453Y-87878540D01*
X84946834Y-87783301D01*
X84946834Y-87640444D01*
X84994453Y-87545206D01*
X85042072Y-87497587D01*
X85137310Y-87449968D01*
X85423024Y-87449968D01*
X85518262Y-87497587D01*
X85565881Y-87545206D01*
X85613500Y-87640444D01*
X85613500Y-87783301D01*
X85613500Y-86592825D02*
X85089691Y-86592825D01*
X84994453Y-86640444D01*
X84946834Y-86735682D01*
X84946834Y-86926159D01*
X84994453Y-87021397D01*
X85565881Y-86592825D02*
X85613500Y-86688063D01*
X85613500Y-86926159D01*
X85565881Y-87021397D01*
X85470643Y-87069016D01*
X85375405Y-87069016D01*
X85280167Y-87021397D01*
X85232548Y-86926159D01*
X85232548Y-86688063D01*
X85184929Y-86592825D01*
X85613500Y-86116635D02*
X84946834Y-86116635D01*
X85137310Y-86116635D02*
X85042072Y-86069016D01*
X84994453Y-86021397D01*
X84946834Y-85926159D01*
X84946834Y-85830920D01*
X85613500Y-85069016D02*
X84613500Y-85069016D01*
X85565881Y-85069016D02*
X85613500Y-85164254D01*
X85613500Y-85354730D01*
X85565881Y-85449968D01*
X85518262Y-85497587D01*
X85423024Y-85545206D01*
X85137310Y-85545206D01*
X85042072Y-85497587D01*
X84994453Y-85449968D01*
X84946834Y-85354730D01*
X84946834Y-85164254D01*
X84994453Y-85069016D01*
X85994453Y-83545206D02*
X85946834Y-83592825D01*
X85803977Y-83688063D01*
X85708739Y-83735682D01*
X85565881Y-83783301D01*
X85327786Y-83830920D01*
X85137310Y-83830920D01*
X84899215Y-83783301D01*
X84756358Y-83735682D01*
X84661120Y-83688063D01*
X84518262Y-83592825D01*
X84470643Y-83545206D01*
X84708739Y-83211873D02*
X84661120Y-83164254D01*
X84613500Y-83069016D01*
X84613500Y-82830920D01*
X84661120Y-82735682D01*
X84708739Y-82688063D01*
X84803977Y-82640444D01*
X84899215Y-82640444D01*
X85042072Y-82688063D01*
X85613500Y-83259492D01*
X85613500Y-82640444D01*
X84613500Y-81735682D02*
X84613500Y-82211873D01*
X85089691Y-82259492D01*
X85042072Y-82211873D01*
X84994453Y-82116635D01*
X84994453Y-81878540D01*
X85042072Y-81783301D01*
X85089691Y-81735682D01*
X85184929Y-81688063D01*
X85423024Y-81688063D01*
X85518262Y-81735682D01*
X85565881Y-81783301D01*
X85613500Y-81878540D01*
X85613500Y-82116635D01*
X85565881Y-82211873D01*
X85518262Y-82259492D01*
X84613500Y-81069016D02*
X84613500Y-80973778D01*
X84661120Y-80878540D01*
X84708739Y-80830920D01*
X84803977Y-80783301D01*
X84994453Y-80735682D01*
X85232548Y-80735682D01*
X85423024Y-80783301D01*
X85518262Y-80830920D01*
X85565881Y-80878540D01*
X85613500Y-80973778D01*
X85613500Y-81069016D01*
X85565881Y-81164254D01*
X85518262Y-81211873D01*
X85423024Y-81259492D01*
X85232548Y-81307111D01*
X84994453Y-81307111D01*
X84803977Y-81259492D01*
X84708739Y-81211873D01*
X84661120Y-81164254D01*
X84613500Y-81069016D01*
X84946834Y-79878540D02*
X85613500Y-79878540D01*
X84565881Y-80116635D02*
X85280167Y-80354730D01*
X85280167Y-79735682D01*
X84946834Y-78926159D02*
X85613500Y-78926159D01*
X84565881Y-79164254D02*
X85280167Y-79402349D01*
X85280167Y-78783301D01*
X84708739Y-78449968D02*
X84661120Y-78402349D01*
X84613500Y-78307111D01*
X84613500Y-78069016D01*
X84661120Y-77973778D01*
X84708739Y-77926159D01*
X84803977Y-77878540D01*
X84899215Y-77878540D01*
X85042072Y-77926159D01*
X85613500Y-78497587D01*
X85613500Y-77878540D01*
X85994453Y-77545206D02*
X85946834Y-77497587D01*
X85803977Y-77402349D01*
X85708739Y-77354730D01*
X85565881Y-77307111D01*
X85327786Y-77259492D01*
X85137310Y-77259492D01*
X84899215Y-77307111D01*
X84756358Y-77354730D01*
X84661120Y-77402349D01*
X84518262Y-77497587D01*
X84470643Y-77545206D01*
D12*
%TO.C,C2*%
X116379120Y-82752540D02*
X120919120Y-82752540D01*
X116379120Y-84892540D02*
X120919120Y-84892540D01*
X116379120Y-82752540D02*
X116379120Y-82767540D01*
X116379120Y-84877540D02*
X116379120Y-84892540D01*
X120919120Y-82752540D02*
X120919120Y-82767540D01*
X120919120Y-84877540D02*
X120919120Y-84892540D01*
%TO.C,C1*%
X116379120Y-64972540D02*
X120919120Y-64972540D01*
X116379120Y-67112540D02*
X120919120Y-67112540D01*
X116379120Y-64972540D02*
X116379120Y-64987540D01*
X116379120Y-67097540D02*
X116379120Y-67112540D01*
X120919120Y-64972540D02*
X120919120Y-64987540D01*
X120919120Y-67097540D02*
X120919120Y-67112540D01*
%TO.C,U5*%
X101909120Y-62172540D02*
G75*
G02*
X99909120Y-62172540I-1000000J0D01*
G01*
X99909120Y-62172540D02*
X94449120Y-62172540D01*
X94449120Y-62172540D02*
X94449120Y-97852540D01*
X94449120Y-97852540D02*
X107369120Y-97852540D01*
X107369120Y-97852540D02*
X107369120Y-62172540D01*
X107369120Y-62172540D02*
X101909120Y-62172540D01*
X91959120Y-62112540D02*
X91959120Y-97912540D01*
X91959120Y-97912540D02*
X109859120Y-97912540D01*
X109859120Y-97912540D02*
X109859120Y-62112540D01*
X109859120Y-62112540D02*
X91959120Y-62112540D01*
%TO.C,U2*%
X114819120Y-87522540D02*
X114819120Y-89172540D01*
X132719120Y-87522540D02*
X114819120Y-87522540D01*
X132719120Y-92822540D02*
X132719120Y-87522540D01*
X114819120Y-92822540D02*
X132719120Y-92822540D01*
X114819120Y-91172540D02*
X114819120Y-92822540D01*
X114819120Y-89172540D02*
G75*
G02*
X114819120Y-91172540I0J-1000000D01*
G01*
%TO.C,U1*%
X114819120Y-69742540D02*
X114819120Y-71392540D01*
X132719120Y-69742540D02*
X114819120Y-69742540D01*
X132719120Y-75042540D02*
X132719120Y-69742540D01*
X114819120Y-75042540D02*
X132719120Y-75042540D01*
X114819120Y-73392540D02*
X114819120Y-75042540D01*
X114819120Y-71392540D02*
G75*
G02*
X114819120Y-73392540I0J-1000000D01*
G01*
%TO.C,R2*%
X88209120Y-82322540D02*
X88209120Y-85632540D01*
X88209120Y-95482540D02*
X88209120Y-92172540D01*
X86839120Y-85632540D02*
X86839120Y-92172540D01*
X89579120Y-85632540D02*
X86839120Y-85632540D01*
X89579120Y-92172540D02*
X89579120Y-85632540D01*
X86839120Y-92172540D02*
X89579120Y-92172540D01*
%TO.C,R1*%
X90749120Y-82322540D02*
X90749120Y-85632540D01*
X90749120Y-95482540D02*
X90749120Y-92172540D01*
X89379120Y-85632540D02*
X89379120Y-92172540D01*
X92119120Y-85632540D02*
X89379120Y-85632540D01*
X92119120Y-92172540D02*
X92119120Y-85632540D01*
X89379120Y-92172540D02*
X92119120Y-92172540D01*
%TO.C,A15*%
X89539120Y-67372540D02*
X88209120Y-67372540D01*
X89539120Y-66042540D02*
X89539120Y-67372540D01*
X89539120Y-64772540D02*
X86879120Y-64772540D01*
X86879120Y-64772540D02*
X86879120Y-62172540D01*
X89539120Y-64772540D02*
X89539120Y-62172540D01*
X89539120Y-62172540D02*
X86879120Y-62172540D01*
%TO.C,A14*%
X89539120Y-72452540D02*
X88209120Y-72452540D01*
X89539120Y-71122540D02*
X89539120Y-72452540D01*
X89539120Y-69852540D02*
X86879120Y-69852540D01*
X86879120Y-69852540D02*
X86879120Y-67252540D01*
X89539120Y-69852540D02*
X89539120Y-67252540D01*
X89539120Y-67252540D02*
X86879120Y-67252540D01*
%TO.C,C2*%
D11*
X118482453Y-81979682D02*
X118434834Y-82027301D01*
X118291977Y-82074920D01*
X118196739Y-82074920D01*
X118053881Y-82027301D01*
X117958643Y-81932063D01*
X117911024Y-81836825D01*
X117863405Y-81646349D01*
X117863405Y-81503492D01*
X117911024Y-81313016D01*
X117958643Y-81217778D01*
X118053881Y-81122540D01*
X118196739Y-81074920D01*
X118291977Y-81074920D01*
X118434834Y-81122540D01*
X118482453Y-81170159D01*
X118863405Y-81170159D02*
X118911024Y-81122540D01*
X119006262Y-81074920D01*
X119244358Y-81074920D01*
X119339596Y-81122540D01*
X119387215Y-81170159D01*
X119434834Y-81265397D01*
X119434834Y-81360635D01*
X119387215Y-81503492D01*
X118815786Y-82074920D01*
X119434834Y-82074920D01*
%TO.C,C1*%
X118482453Y-64199682D02*
X118434834Y-64247301D01*
X118291977Y-64294920D01*
X118196739Y-64294920D01*
X118053881Y-64247301D01*
X117958643Y-64152063D01*
X117911024Y-64056825D01*
X117863405Y-63866349D01*
X117863405Y-63723492D01*
X117911024Y-63533016D01*
X117958643Y-63437778D01*
X118053881Y-63342540D01*
X118196739Y-63294920D01*
X118291977Y-63294920D01*
X118434834Y-63342540D01*
X118482453Y-63390159D01*
X119434834Y-64294920D02*
X118863405Y-64294920D01*
X119149120Y-64294920D02*
X119149120Y-63294920D01*
X119053881Y-63437778D01*
X118958643Y-63533016D01*
X118863405Y-63580635D01*
%TO.C,U5*%
X110775500Y-97284444D02*
X111585024Y-97284444D01*
X111680262Y-97236825D01*
X111727881Y-97189206D01*
X111775500Y-97093968D01*
X111775500Y-96903492D01*
X111727881Y-96808254D01*
X111680262Y-96760635D01*
X111585024Y-96713016D01*
X110775500Y-96713016D01*
X110775500Y-95760635D02*
X110775500Y-96236825D01*
X111251691Y-96284444D01*
X111204072Y-96236825D01*
X111156453Y-96141587D01*
X111156453Y-95903492D01*
X111204072Y-95808254D01*
X111251691Y-95760635D01*
X111346929Y-95713016D01*
X111585024Y-95713016D01*
X111680262Y-95760635D01*
X111727881Y-95808254D01*
X111775500Y-95903492D01*
X111775500Y-96141587D01*
X111727881Y-96236825D01*
X111680262Y-96284444D01*
%TO.C,U2*%
X130841500Y-97284444D02*
X131651024Y-97284444D01*
X131746262Y-97236825D01*
X131793881Y-97189206D01*
X131841500Y-97093968D01*
X131841500Y-96903492D01*
X131793881Y-96808254D01*
X131746262Y-96760635D01*
X131651024Y-96713016D01*
X130841500Y-96713016D01*
X130936739Y-96284444D02*
X130889120Y-96236825D01*
X130841500Y-96141587D01*
X130841500Y-95903492D01*
X130889120Y-95808254D01*
X130936739Y-95760635D01*
X131031977Y-95713016D01*
X131127215Y-95713016D01*
X131270072Y-95760635D01*
X131841500Y-96332063D01*
X131841500Y-95713016D01*
%TO.C,U1*%
X130841500Y-79504444D02*
X131651024Y-79504444D01*
X131746262Y-79456825D01*
X131793881Y-79409206D01*
X131841500Y-79313968D01*
X131841500Y-79123492D01*
X131793881Y-79028254D01*
X131746262Y-78980635D01*
X131651024Y-78933016D01*
X130841500Y-78933016D01*
X131841500Y-77933016D02*
X131841500Y-78504444D01*
X131841500Y-78218730D02*
X130841500Y-78218730D01*
X130984358Y-78313968D01*
X131079596Y-78409206D01*
X131127215Y-78504444D01*
%TO.C,R2*%
X87645500Y-83989206D02*
X87169310Y-84322540D01*
X87645500Y-84560635D02*
X86645500Y-84560635D01*
X86645500Y-84179682D01*
X86693120Y-84084444D01*
X86740739Y-84036825D01*
X86835977Y-83989206D01*
X86978834Y-83989206D01*
X87074072Y-84036825D01*
X87121691Y-84084444D01*
X87169310Y-84179682D01*
X87169310Y-84560635D01*
X86740739Y-83608254D02*
X86693120Y-83560635D01*
X86645500Y-83465397D01*
X86645500Y-83227301D01*
X86693120Y-83132063D01*
X86740739Y-83084444D01*
X86835977Y-83036825D01*
X86931215Y-83036825D01*
X87074072Y-83084444D01*
X87645500Y-83655873D01*
X87645500Y-83036825D01*
%TO.C,R1*%
X89931500Y-83989206D02*
X89455310Y-84322540D01*
X89931500Y-84560635D02*
X88931500Y-84560635D01*
X88931500Y-84179682D01*
X88979120Y-84084444D01*
X89026739Y-84036825D01*
X89121977Y-83989206D01*
X89264834Y-83989206D01*
X89360072Y-84036825D01*
X89407691Y-84084444D01*
X89455310Y-84179682D01*
X89455310Y-84560635D01*
X89931500Y-83036825D02*
X89931500Y-83608254D01*
X89931500Y-83322540D02*
X88931500Y-83322540D01*
X89074358Y-83417778D01*
X89169596Y-83513016D01*
X89217215Y-83608254D01*
%TO.C,A15*%
X85327786Y-65963016D02*
X85327786Y-65486825D01*
X85613500Y-66058254D02*
X84613500Y-65724920D01*
X85613500Y-65391587D01*
X85613500Y-64534444D02*
X85613500Y-65105873D01*
X85613500Y-64820159D02*
X84613500Y-64820159D01*
X84756358Y-64915397D01*
X84851596Y-65010635D01*
X84899215Y-65105873D01*
X84613500Y-63629682D02*
X84613500Y-64105873D01*
X85089691Y-64153492D01*
X85042072Y-64105873D01*
X84994453Y-64010635D01*
X84994453Y-63772540D01*
X85042072Y-63677301D01*
X85089691Y-63629682D01*
X85184929Y-63582063D01*
X85423024Y-63582063D01*
X85518262Y-63629682D01*
X85565881Y-63677301D01*
X85613500Y-63772540D01*
X85613500Y-64010635D01*
X85565881Y-64105873D01*
X85518262Y-64153492D01*
%TO.C,A14*%
X85327786Y-71043016D02*
X85327786Y-70566825D01*
X85613500Y-71138254D02*
X84613500Y-70804920D01*
X85613500Y-70471587D01*
X85613500Y-69614444D02*
X85613500Y-70185873D01*
X85613500Y-69900159D02*
X84613500Y-69900159D01*
X84756358Y-69995397D01*
X84851596Y-70090635D01*
X84899215Y-70185873D01*
X84946834Y-68757301D02*
X85613500Y-68757301D01*
X84565881Y-68995397D02*
X85280167Y-69233492D01*
X85280167Y-68614444D01*
%TD*%
M02*
